%TF.GenerationSoftware,KiCad,Pcbnew,9.0.2*%
%TF.CreationDate,2025-06-10T15:00:01-06:00*%
%TF.ProjectId,SparkFun_STC31_panelized,53706172-6b46-4756-9e5f-53544333315f,v10*%
%TF.SameCoordinates,Original*%
%TF.FileFunction,Paste,Top*%
%TF.FilePolarity,Positive*%
%FSLAX46Y46*%
G04 Gerber Fmt 4.6, Leading zero omitted, Abs format (unit mm)*
G04 Created by KiCad (PCBNEW 9.0.2) date 2025-06-10 15:00:01*
%MOMM*%
%LPD*%
G01*
G04 APERTURE LIST*
G04 Aperture macros list*
%AMRoundRect*
0 Rectangle with rounded corners*
0 $1 Rounding radius*
0 $2 $3 $4 $5 $6 $7 $8 $9 X,Y pos of 4 corners*
0 Add a 4 corners polygon primitive as box body*
4,1,4,$2,$3,$4,$5,$6,$7,$8,$9,$2,$3,0*
0 Add four circle primitives for the rounded corners*
1,1,$1+$1,$2,$3*
1,1,$1+$1,$4,$5*
1,1,$1+$1,$6,$7*
1,1,$1+$1,$8,$9*
0 Add four rect primitives between the rounded corners*
20,1,$1+$1,$2,$3,$4,$5,0*
20,1,$1+$1,$4,$5,$6,$7,0*
20,1,$1+$1,$6,$7,$8,$9,0*
20,1,$1+$1,$8,$9,$2,$3,0*%
G04 Aperture macros list end*
%ADD10C,0.000000*%
%ADD11RoundRect,0.218750X0.218750X0.256250X-0.218750X0.256250X-0.218750X-0.256250X0.218750X-0.256250X0*%
%ADD12RoundRect,0.200000X0.275000X-0.200000X0.275000X0.200000X-0.275000X0.200000X-0.275000X-0.200000X0*%
%ADD13RoundRect,0.225000X0.250000X-0.225000X0.250000X0.225000X-0.250000X0.225000X-0.250000X-0.225000X0*%
%ADD14R,1.350000X0.600000*%
%ADD15R,2.000000X1.200000*%
%ADD16RoundRect,0.200000X0.200000X0.275000X-0.200000X0.275000X-0.200000X-0.275000X0.200000X-0.275000X0*%
%ADD17R,0.550000X0.350000*%
%ADD18RoundRect,0.225000X0.225000X0.250000X-0.225000X0.250000X-0.225000X-0.250000X0.225000X-0.250000X0*%
G04 APERTURE END LIST*
D10*
%TO.C,U3*%
G36*
X11475800Y15890000D02*
G01*
X11075800Y15890000D01*
X11075800Y16190000D01*
X11475800Y16190000D01*
X11475800Y15890000D01*
G37*
G36*
X11475800Y15090000D02*
G01*
X11075800Y15090000D01*
X11075800Y15390000D01*
X11475800Y15390000D01*
X11475800Y15090000D01*
G37*
G36*
X11475800Y14290000D02*
G01*
X11075800Y14290000D01*
X11075800Y14590000D01*
X11475800Y14590000D01*
X11475800Y14290000D01*
G37*
G36*
X12075800Y16740000D02*
G01*
X11775800Y16740000D01*
X11775800Y17140000D01*
X12075800Y17140000D01*
X12075800Y16740000D01*
G37*
G36*
X12075800Y13340000D02*
G01*
X11775800Y13340000D01*
X11775800Y13740000D01*
X12075800Y13740000D01*
X12075800Y13340000D01*
G37*
G36*
X13075800Y14790000D02*
G01*
X12375800Y14790000D01*
X12375800Y15690000D01*
X13075800Y15690000D01*
X13075800Y14790000D01*
G37*
G36*
X12875800Y16740000D02*
G01*
X12575800Y16740000D01*
X12575800Y17140000D01*
X12875800Y17140000D01*
X12875800Y16740000D01*
G37*
G36*
X12875800Y13340000D02*
G01*
X12575800Y13340000D01*
X12575800Y13740000D01*
X12875800Y13740000D01*
X12875800Y13340000D01*
G37*
G36*
X13675800Y16740000D02*
G01*
X13375800Y16740000D01*
X13375800Y17140000D01*
X13675800Y17140000D01*
X13675800Y16740000D01*
G37*
G36*
X13675800Y13340000D02*
G01*
X13375800Y13340000D01*
X13375800Y13740000D01*
X13675800Y13740000D01*
X13675800Y13340000D01*
G37*
G36*
X14375800Y15890000D02*
G01*
X13975800Y15890000D01*
X13975800Y16190000D01*
X14375800Y16190000D01*
X14375800Y15890000D01*
G37*
G36*
X14375800Y15090000D02*
G01*
X13975800Y15090000D01*
X13975800Y15390000D01*
X14375800Y15390000D01*
X14375800Y15090000D01*
G37*
G36*
X14375800Y14290000D02*
G01*
X13975800Y14290000D01*
X13975800Y14590000D01*
X14375800Y14590000D01*
X14375800Y14290000D01*
G37*
G36*
X37375800Y145390000D02*
G01*
X36975800Y145390000D01*
X36975800Y145690000D01*
X37375800Y145690000D01*
X37375800Y145390000D01*
G37*
G36*
X37375800Y144590000D02*
G01*
X36975800Y144590000D01*
X36975800Y144890000D01*
X37375800Y144890000D01*
X37375800Y144590000D01*
G37*
G36*
X37375800Y143790000D02*
G01*
X36975800Y143790000D01*
X36975800Y144090000D01*
X37375800Y144090000D01*
X37375800Y143790000D01*
G37*
G36*
X37975800Y146240000D02*
G01*
X37675800Y146240000D01*
X37675800Y146640000D01*
X37975800Y146640000D01*
X37975800Y146240000D01*
G37*
G36*
X37975800Y142840000D02*
G01*
X37675800Y142840000D01*
X37675800Y143240000D01*
X37975800Y143240000D01*
X37975800Y142840000D01*
G37*
G36*
X38975800Y144290000D02*
G01*
X38275800Y144290000D01*
X38275800Y145190000D01*
X38975800Y145190000D01*
X38975800Y144290000D01*
G37*
G36*
X38775800Y146240000D02*
G01*
X38475800Y146240000D01*
X38475800Y146640000D01*
X38775800Y146640000D01*
X38775800Y146240000D01*
G37*
G36*
X38775800Y142840000D02*
G01*
X38475800Y142840000D01*
X38475800Y143240000D01*
X38775800Y143240000D01*
X38775800Y142840000D01*
G37*
G36*
X39575800Y146240000D02*
G01*
X39275800Y146240000D01*
X39275800Y146640000D01*
X39575800Y146640000D01*
X39575800Y146240000D01*
G37*
G36*
X39575800Y142840000D02*
G01*
X39275800Y142840000D01*
X39275800Y143240000D01*
X39575800Y143240000D01*
X39575800Y142840000D01*
G37*
G36*
X40275800Y145390000D02*
G01*
X39875800Y145390000D01*
X39875800Y145690000D01*
X40275800Y145690000D01*
X40275800Y145390000D01*
G37*
G36*
X40275800Y144590000D02*
G01*
X39875800Y144590000D01*
X39875800Y144890000D01*
X40275800Y144890000D01*
X40275800Y144590000D01*
G37*
G36*
X40275800Y143790000D02*
G01*
X39875800Y143790000D01*
X39875800Y144090000D01*
X40275800Y144090000D01*
X40275800Y143790000D01*
G37*
G36*
X11475800Y41790000D02*
G01*
X11075800Y41790000D01*
X11075800Y42090000D01*
X11475800Y42090000D01*
X11475800Y41790000D01*
G37*
G36*
X11475800Y40990000D02*
G01*
X11075800Y40990000D01*
X11075800Y41290000D01*
X11475800Y41290000D01*
X11475800Y40990000D01*
G37*
G36*
X11475800Y40190000D02*
G01*
X11075800Y40190000D01*
X11075800Y40490000D01*
X11475800Y40490000D01*
X11475800Y40190000D01*
G37*
G36*
X12075800Y42640000D02*
G01*
X11775800Y42640000D01*
X11775800Y43040000D01*
X12075800Y43040000D01*
X12075800Y42640000D01*
G37*
G36*
X12075800Y39240000D02*
G01*
X11775800Y39240000D01*
X11775800Y39640000D01*
X12075800Y39640000D01*
X12075800Y39240000D01*
G37*
G36*
X13075800Y40690000D02*
G01*
X12375800Y40690000D01*
X12375800Y41590000D01*
X13075800Y41590000D01*
X13075800Y40690000D01*
G37*
G36*
X12875800Y42640000D02*
G01*
X12575800Y42640000D01*
X12575800Y43040000D01*
X12875800Y43040000D01*
X12875800Y42640000D01*
G37*
G36*
X12875800Y39240000D02*
G01*
X12575800Y39240000D01*
X12575800Y39640000D01*
X12875800Y39640000D01*
X12875800Y39240000D01*
G37*
G36*
X13675800Y42640000D02*
G01*
X13375800Y42640000D01*
X13375800Y43040000D01*
X13675800Y43040000D01*
X13675800Y42640000D01*
G37*
G36*
X13675800Y39240000D02*
G01*
X13375800Y39240000D01*
X13375800Y39640000D01*
X13675800Y39640000D01*
X13675800Y39240000D01*
G37*
G36*
X14375800Y41790000D02*
G01*
X13975800Y41790000D01*
X13975800Y42090000D01*
X14375800Y42090000D01*
X14375800Y41790000D01*
G37*
G36*
X14375800Y40990000D02*
G01*
X13975800Y40990000D01*
X13975800Y41290000D01*
X14375800Y41290000D01*
X14375800Y40990000D01*
G37*
G36*
X14375800Y40190000D02*
G01*
X13975800Y40190000D01*
X13975800Y40490000D01*
X14375800Y40490000D01*
X14375800Y40190000D01*
G37*
G36*
X11475800Y67690000D02*
G01*
X11075800Y67690000D01*
X11075800Y67990000D01*
X11475800Y67990000D01*
X11475800Y67690000D01*
G37*
G36*
X11475800Y66890000D02*
G01*
X11075800Y66890000D01*
X11075800Y67190000D01*
X11475800Y67190000D01*
X11475800Y66890000D01*
G37*
G36*
X11475800Y66090000D02*
G01*
X11075800Y66090000D01*
X11075800Y66390000D01*
X11475800Y66390000D01*
X11475800Y66090000D01*
G37*
G36*
X12075800Y68540000D02*
G01*
X11775800Y68540000D01*
X11775800Y68940000D01*
X12075800Y68940000D01*
X12075800Y68540000D01*
G37*
G36*
X12075800Y65140000D02*
G01*
X11775800Y65140000D01*
X11775800Y65540000D01*
X12075800Y65540000D01*
X12075800Y65140000D01*
G37*
G36*
X13075800Y66590000D02*
G01*
X12375800Y66590000D01*
X12375800Y67490000D01*
X13075800Y67490000D01*
X13075800Y66590000D01*
G37*
G36*
X12875800Y68540000D02*
G01*
X12575800Y68540000D01*
X12575800Y68940000D01*
X12875800Y68940000D01*
X12875800Y68540000D01*
G37*
G36*
X12875800Y65140000D02*
G01*
X12575800Y65140000D01*
X12575800Y65540000D01*
X12875800Y65540000D01*
X12875800Y65140000D01*
G37*
G36*
X13675800Y68540000D02*
G01*
X13375800Y68540000D01*
X13375800Y68940000D01*
X13675800Y68940000D01*
X13675800Y68540000D01*
G37*
G36*
X13675800Y65140000D02*
G01*
X13375800Y65140000D01*
X13375800Y65540000D01*
X13675800Y65540000D01*
X13675800Y65140000D01*
G37*
G36*
X14375800Y67690000D02*
G01*
X13975800Y67690000D01*
X13975800Y67990000D01*
X14375800Y67990000D01*
X14375800Y67690000D01*
G37*
G36*
X14375800Y66890000D02*
G01*
X13975800Y66890000D01*
X13975800Y67190000D01*
X14375800Y67190000D01*
X14375800Y66890000D01*
G37*
G36*
X14375800Y66090000D02*
G01*
X13975800Y66090000D01*
X13975800Y66390000D01*
X14375800Y66390000D01*
X14375800Y66090000D01*
G37*
G36*
X11475800Y93590000D02*
G01*
X11075800Y93590000D01*
X11075800Y93890000D01*
X11475800Y93890000D01*
X11475800Y93590000D01*
G37*
G36*
X11475800Y92790000D02*
G01*
X11075800Y92790000D01*
X11075800Y93090000D01*
X11475800Y93090000D01*
X11475800Y92790000D01*
G37*
G36*
X11475800Y91990000D02*
G01*
X11075800Y91990000D01*
X11075800Y92290000D01*
X11475800Y92290000D01*
X11475800Y91990000D01*
G37*
G36*
X12075800Y94440000D02*
G01*
X11775800Y94440000D01*
X11775800Y94840000D01*
X12075800Y94840000D01*
X12075800Y94440000D01*
G37*
G36*
X12075800Y91040000D02*
G01*
X11775800Y91040000D01*
X11775800Y91440000D01*
X12075800Y91440000D01*
X12075800Y91040000D01*
G37*
G36*
X13075800Y92490000D02*
G01*
X12375800Y92490000D01*
X12375800Y93390000D01*
X13075800Y93390000D01*
X13075800Y92490000D01*
G37*
G36*
X12875800Y94440000D02*
G01*
X12575800Y94440000D01*
X12575800Y94840000D01*
X12875800Y94840000D01*
X12875800Y94440000D01*
G37*
G36*
X12875800Y91040000D02*
G01*
X12575800Y91040000D01*
X12575800Y91440000D01*
X12875800Y91440000D01*
X12875800Y91040000D01*
G37*
G36*
X13675800Y94440000D02*
G01*
X13375800Y94440000D01*
X13375800Y94840000D01*
X13675800Y94840000D01*
X13675800Y94440000D01*
G37*
G36*
X13675800Y91040000D02*
G01*
X13375800Y91040000D01*
X13375800Y91440000D01*
X13675800Y91440000D01*
X13675800Y91040000D01*
G37*
G36*
X14375800Y93590000D02*
G01*
X13975800Y93590000D01*
X13975800Y93890000D01*
X14375800Y93890000D01*
X14375800Y93590000D01*
G37*
G36*
X14375800Y92790000D02*
G01*
X13975800Y92790000D01*
X13975800Y93090000D01*
X14375800Y93090000D01*
X14375800Y92790000D01*
G37*
G36*
X14375800Y91990000D02*
G01*
X13975800Y91990000D01*
X13975800Y92290000D01*
X14375800Y92290000D01*
X14375800Y91990000D01*
G37*
G36*
X11475800Y119490000D02*
G01*
X11075800Y119490000D01*
X11075800Y119790000D01*
X11475800Y119790000D01*
X11475800Y119490000D01*
G37*
G36*
X11475800Y118690000D02*
G01*
X11075800Y118690000D01*
X11075800Y118990000D01*
X11475800Y118990000D01*
X11475800Y118690000D01*
G37*
G36*
X11475800Y117890000D02*
G01*
X11075800Y117890000D01*
X11075800Y118190000D01*
X11475800Y118190000D01*
X11475800Y117890000D01*
G37*
G36*
X12075800Y120340000D02*
G01*
X11775800Y120340000D01*
X11775800Y120740000D01*
X12075800Y120740000D01*
X12075800Y120340000D01*
G37*
G36*
X12075800Y116940000D02*
G01*
X11775800Y116940000D01*
X11775800Y117340000D01*
X12075800Y117340000D01*
X12075800Y116940000D01*
G37*
G36*
X13075800Y118390000D02*
G01*
X12375800Y118390000D01*
X12375800Y119290000D01*
X13075800Y119290000D01*
X13075800Y118390000D01*
G37*
G36*
X12875800Y120340000D02*
G01*
X12575800Y120340000D01*
X12575800Y120740000D01*
X12875800Y120740000D01*
X12875800Y120340000D01*
G37*
G36*
X12875800Y116940000D02*
G01*
X12575800Y116940000D01*
X12575800Y117340000D01*
X12875800Y117340000D01*
X12875800Y116940000D01*
G37*
G36*
X13675800Y120340000D02*
G01*
X13375800Y120340000D01*
X13375800Y120740000D01*
X13675800Y120740000D01*
X13675800Y120340000D01*
G37*
G36*
X13675800Y116940000D02*
G01*
X13375800Y116940000D01*
X13375800Y117340000D01*
X13675800Y117340000D01*
X13675800Y116940000D01*
G37*
G36*
X14375800Y119490000D02*
G01*
X13975800Y119490000D01*
X13975800Y119790000D01*
X14375800Y119790000D01*
X14375800Y119490000D01*
G37*
G36*
X14375800Y118690000D02*
G01*
X13975800Y118690000D01*
X13975800Y118990000D01*
X14375800Y118990000D01*
X14375800Y118690000D01*
G37*
G36*
X14375800Y117890000D02*
G01*
X13975800Y117890000D01*
X13975800Y118190000D01*
X14375800Y118190000D01*
X14375800Y117890000D01*
G37*
G36*
X11475800Y145390000D02*
G01*
X11075800Y145390000D01*
X11075800Y145690000D01*
X11475800Y145690000D01*
X11475800Y145390000D01*
G37*
G36*
X11475800Y144590000D02*
G01*
X11075800Y144590000D01*
X11075800Y144890000D01*
X11475800Y144890000D01*
X11475800Y144590000D01*
G37*
G36*
X11475800Y143790000D02*
G01*
X11075800Y143790000D01*
X11075800Y144090000D01*
X11475800Y144090000D01*
X11475800Y143790000D01*
G37*
G36*
X12075800Y146240000D02*
G01*
X11775800Y146240000D01*
X11775800Y146640000D01*
X12075800Y146640000D01*
X12075800Y146240000D01*
G37*
G36*
X12075800Y142840000D02*
G01*
X11775800Y142840000D01*
X11775800Y143240000D01*
X12075800Y143240000D01*
X12075800Y142840000D01*
G37*
G36*
X13075800Y144290000D02*
G01*
X12375800Y144290000D01*
X12375800Y145190000D01*
X13075800Y145190000D01*
X13075800Y144290000D01*
G37*
G36*
X12875800Y146240000D02*
G01*
X12575800Y146240000D01*
X12575800Y146640000D01*
X12875800Y146640000D01*
X12875800Y146240000D01*
G37*
G36*
X12875800Y142840000D02*
G01*
X12575800Y142840000D01*
X12575800Y143240000D01*
X12875800Y143240000D01*
X12875800Y142840000D01*
G37*
G36*
X13675800Y146240000D02*
G01*
X13375800Y146240000D01*
X13375800Y146640000D01*
X13675800Y146640000D01*
X13675800Y146240000D01*
G37*
G36*
X13675800Y142840000D02*
G01*
X13375800Y142840000D01*
X13375800Y143240000D01*
X13675800Y143240000D01*
X13675800Y142840000D01*
G37*
G36*
X14375800Y145390000D02*
G01*
X13975800Y145390000D01*
X13975800Y145690000D01*
X14375800Y145690000D01*
X14375800Y145390000D01*
G37*
G36*
X14375800Y144590000D02*
G01*
X13975800Y144590000D01*
X13975800Y144890000D01*
X14375800Y144890000D01*
X14375800Y144590000D01*
G37*
G36*
X14375800Y143790000D02*
G01*
X13975800Y143790000D01*
X13975800Y144090000D01*
X14375800Y144090000D01*
X14375800Y143790000D01*
G37*
G36*
X11475800Y171290000D02*
G01*
X11075800Y171290000D01*
X11075800Y171590000D01*
X11475800Y171590000D01*
X11475800Y171290000D01*
G37*
G36*
X11475800Y170490000D02*
G01*
X11075800Y170490000D01*
X11075800Y170790000D01*
X11475800Y170790000D01*
X11475800Y170490000D01*
G37*
G36*
X11475800Y169690000D02*
G01*
X11075800Y169690000D01*
X11075800Y169990000D01*
X11475800Y169990000D01*
X11475800Y169690000D01*
G37*
G36*
X12075800Y172140000D02*
G01*
X11775800Y172140000D01*
X11775800Y172540000D01*
X12075800Y172540000D01*
X12075800Y172140000D01*
G37*
G36*
X12075800Y168740000D02*
G01*
X11775800Y168740000D01*
X11775800Y169140000D01*
X12075800Y169140000D01*
X12075800Y168740000D01*
G37*
G36*
X13075800Y170190000D02*
G01*
X12375800Y170190000D01*
X12375800Y171090000D01*
X13075800Y171090000D01*
X13075800Y170190000D01*
G37*
G36*
X12875800Y172140000D02*
G01*
X12575800Y172140000D01*
X12575800Y172540000D01*
X12875800Y172540000D01*
X12875800Y172140000D01*
G37*
G36*
X12875800Y168740000D02*
G01*
X12575800Y168740000D01*
X12575800Y169140000D01*
X12875800Y169140000D01*
X12875800Y168740000D01*
G37*
G36*
X13675800Y172140000D02*
G01*
X13375800Y172140000D01*
X13375800Y172540000D01*
X13675800Y172540000D01*
X13675800Y172140000D01*
G37*
G36*
X13675800Y168740000D02*
G01*
X13375800Y168740000D01*
X13375800Y169140000D01*
X13675800Y169140000D01*
X13675800Y168740000D01*
G37*
G36*
X14375800Y171290000D02*
G01*
X13975800Y171290000D01*
X13975800Y171590000D01*
X14375800Y171590000D01*
X14375800Y171290000D01*
G37*
G36*
X14375800Y170490000D02*
G01*
X13975800Y170490000D01*
X13975800Y170790000D01*
X14375800Y170790000D01*
X14375800Y170490000D01*
G37*
G36*
X14375800Y169690000D02*
G01*
X13975800Y169690000D01*
X13975800Y169990000D01*
X14375800Y169990000D01*
X14375800Y169690000D01*
G37*
G36*
X37375800Y15890000D02*
G01*
X36975800Y15890000D01*
X36975800Y16190000D01*
X37375800Y16190000D01*
X37375800Y15890000D01*
G37*
G36*
X37375800Y15090000D02*
G01*
X36975800Y15090000D01*
X36975800Y15390000D01*
X37375800Y15390000D01*
X37375800Y15090000D01*
G37*
G36*
X37375800Y14290000D02*
G01*
X36975800Y14290000D01*
X36975800Y14590000D01*
X37375800Y14590000D01*
X37375800Y14290000D01*
G37*
G36*
X37975800Y16740000D02*
G01*
X37675800Y16740000D01*
X37675800Y17140000D01*
X37975800Y17140000D01*
X37975800Y16740000D01*
G37*
G36*
X37975800Y13340000D02*
G01*
X37675800Y13340000D01*
X37675800Y13740000D01*
X37975800Y13740000D01*
X37975800Y13340000D01*
G37*
G36*
X38975800Y14790000D02*
G01*
X38275800Y14790000D01*
X38275800Y15690000D01*
X38975800Y15690000D01*
X38975800Y14790000D01*
G37*
G36*
X38775800Y16740000D02*
G01*
X38475800Y16740000D01*
X38475800Y17140000D01*
X38775800Y17140000D01*
X38775800Y16740000D01*
G37*
G36*
X38775800Y13340000D02*
G01*
X38475800Y13340000D01*
X38475800Y13740000D01*
X38775800Y13740000D01*
X38775800Y13340000D01*
G37*
G36*
X39575800Y16740000D02*
G01*
X39275800Y16740000D01*
X39275800Y17140000D01*
X39575800Y17140000D01*
X39575800Y16740000D01*
G37*
G36*
X39575800Y13340000D02*
G01*
X39275800Y13340000D01*
X39275800Y13740000D01*
X39575800Y13740000D01*
X39575800Y13340000D01*
G37*
G36*
X40275800Y15890000D02*
G01*
X39875800Y15890000D01*
X39875800Y16190000D01*
X40275800Y16190000D01*
X40275800Y15890000D01*
G37*
G36*
X40275800Y15090000D02*
G01*
X39875800Y15090000D01*
X39875800Y15390000D01*
X40275800Y15390000D01*
X40275800Y15090000D01*
G37*
G36*
X40275800Y14290000D02*
G01*
X39875800Y14290000D01*
X39875800Y14590000D01*
X40275800Y14590000D01*
X40275800Y14290000D01*
G37*
G36*
X37375800Y41790000D02*
G01*
X36975800Y41790000D01*
X36975800Y42090000D01*
X37375800Y42090000D01*
X37375800Y41790000D01*
G37*
G36*
X37375800Y40990000D02*
G01*
X36975800Y40990000D01*
X36975800Y41290000D01*
X37375800Y41290000D01*
X37375800Y40990000D01*
G37*
G36*
X37375800Y40190000D02*
G01*
X36975800Y40190000D01*
X36975800Y40490000D01*
X37375800Y40490000D01*
X37375800Y40190000D01*
G37*
G36*
X37975800Y42640000D02*
G01*
X37675800Y42640000D01*
X37675800Y43040000D01*
X37975800Y43040000D01*
X37975800Y42640000D01*
G37*
G36*
X37975800Y39240000D02*
G01*
X37675800Y39240000D01*
X37675800Y39640000D01*
X37975800Y39640000D01*
X37975800Y39240000D01*
G37*
G36*
X38975800Y40690000D02*
G01*
X38275800Y40690000D01*
X38275800Y41590000D01*
X38975800Y41590000D01*
X38975800Y40690000D01*
G37*
G36*
X38775800Y42640000D02*
G01*
X38475800Y42640000D01*
X38475800Y43040000D01*
X38775800Y43040000D01*
X38775800Y42640000D01*
G37*
G36*
X38775800Y39240000D02*
G01*
X38475800Y39240000D01*
X38475800Y39640000D01*
X38775800Y39640000D01*
X38775800Y39240000D01*
G37*
G36*
X39575800Y42640000D02*
G01*
X39275800Y42640000D01*
X39275800Y43040000D01*
X39575800Y43040000D01*
X39575800Y42640000D01*
G37*
G36*
X39575800Y39240000D02*
G01*
X39275800Y39240000D01*
X39275800Y39640000D01*
X39575800Y39640000D01*
X39575800Y39240000D01*
G37*
G36*
X40275800Y41790000D02*
G01*
X39875800Y41790000D01*
X39875800Y42090000D01*
X40275800Y42090000D01*
X40275800Y41790000D01*
G37*
G36*
X40275800Y40990000D02*
G01*
X39875800Y40990000D01*
X39875800Y41290000D01*
X40275800Y41290000D01*
X40275800Y40990000D01*
G37*
G36*
X40275800Y40190000D02*
G01*
X39875800Y40190000D01*
X39875800Y40490000D01*
X40275800Y40490000D01*
X40275800Y40190000D01*
G37*
G36*
X37375800Y67690000D02*
G01*
X36975800Y67690000D01*
X36975800Y67990000D01*
X37375800Y67990000D01*
X37375800Y67690000D01*
G37*
G36*
X37375800Y66890000D02*
G01*
X36975800Y66890000D01*
X36975800Y67190000D01*
X37375800Y67190000D01*
X37375800Y66890000D01*
G37*
G36*
X37375800Y66090000D02*
G01*
X36975800Y66090000D01*
X36975800Y66390000D01*
X37375800Y66390000D01*
X37375800Y66090000D01*
G37*
G36*
X37975800Y68540000D02*
G01*
X37675800Y68540000D01*
X37675800Y68940000D01*
X37975800Y68940000D01*
X37975800Y68540000D01*
G37*
G36*
X37975800Y65140000D02*
G01*
X37675800Y65140000D01*
X37675800Y65540000D01*
X37975800Y65540000D01*
X37975800Y65140000D01*
G37*
G36*
X38975800Y66590000D02*
G01*
X38275800Y66590000D01*
X38275800Y67490000D01*
X38975800Y67490000D01*
X38975800Y66590000D01*
G37*
G36*
X38775800Y68540000D02*
G01*
X38475800Y68540000D01*
X38475800Y68940000D01*
X38775800Y68940000D01*
X38775800Y68540000D01*
G37*
G36*
X38775800Y65140000D02*
G01*
X38475800Y65140000D01*
X38475800Y65540000D01*
X38775800Y65540000D01*
X38775800Y65140000D01*
G37*
G36*
X39575800Y68540000D02*
G01*
X39275800Y68540000D01*
X39275800Y68940000D01*
X39575800Y68940000D01*
X39575800Y68540000D01*
G37*
G36*
X39575800Y65140000D02*
G01*
X39275800Y65140000D01*
X39275800Y65540000D01*
X39575800Y65540000D01*
X39575800Y65140000D01*
G37*
G36*
X40275800Y67690000D02*
G01*
X39875800Y67690000D01*
X39875800Y67990000D01*
X40275800Y67990000D01*
X40275800Y67690000D01*
G37*
G36*
X40275800Y66890000D02*
G01*
X39875800Y66890000D01*
X39875800Y67190000D01*
X40275800Y67190000D01*
X40275800Y66890000D01*
G37*
G36*
X40275800Y66090000D02*
G01*
X39875800Y66090000D01*
X39875800Y66390000D01*
X40275800Y66390000D01*
X40275800Y66090000D01*
G37*
G36*
X37375800Y93590000D02*
G01*
X36975800Y93590000D01*
X36975800Y93890000D01*
X37375800Y93890000D01*
X37375800Y93590000D01*
G37*
G36*
X37375800Y92790000D02*
G01*
X36975800Y92790000D01*
X36975800Y93090000D01*
X37375800Y93090000D01*
X37375800Y92790000D01*
G37*
G36*
X37375800Y91990000D02*
G01*
X36975800Y91990000D01*
X36975800Y92290000D01*
X37375800Y92290000D01*
X37375800Y91990000D01*
G37*
G36*
X37975800Y94440000D02*
G01*
X37675800Y94440000D01*
X37675800Y94840000D01*
X37975800Y94840000D01*
X37975800Y94440000D01*
G37*
G36*
X37975800Y91040000D02*
G01*
X37675800Y91040000D01*
X37675800Y91440000D01*
X37975800Y91440000D01*
X37975800Y91040000D01*
G37*
G36*
X38975800Y92490000D02*
G01*
X38275800Y92490000D01*
X38275800Y93390000D01*
X38975800Y93390000D01*
X38975800Y92490000D01*
G37*
G36*
X38775800Y94440000D02*
G01*
X38475800Y94440000D01*
X38475800Y94840000D01*
X38775800Y94840000D01*
X38775800Y94440000D01*
G37*
G36*
X38775800Y91040000D02*
G01*
X38475800Y91040000D01*
X38475800Y91440000D01*
X38775800Y91440000D01*
X38775800Y91040000D01*
G37*
G36*
X39575800Y94440000D02*
G01*
X39275800Y94440000D01*
X39275800Y94840000D01*
X39575800Y94840000D01*
X39575800Y94440000D01*
G37*
G36*
X39575800Y91040000D02*
G01*
X39275800Y91040000D01*
X39275800Y91440000D01*
X39575800Y91440000D01*
X39575800Y91040000D01*
G37*
G36*
X40275800Y93590000D02*
G01*
X39875800Y93590000D01*
X39875800Y93890000D01*
X40275800Y93890000D01*
X40275800Y93590000D01*
G37*
G36*
X40275800Y92790000D02*
G01*
X39875800Y92790000D01*
X39875800Y93090000D01*
X40275800Y93090000D01*
X40275800Y92790000D01*
G37*
G36*
X40275800Y91990000D02*
G01*
X39875800Y91990000D01*
X39875800Y92290000D01*
X40275800Y92290000D01*
X40275800Y91990000D01*
G37*
G36*
X37375800Y119490000D02*
G01*
X36975800Y119490000D01*
X36975800Y119790000D01*
X37375800Y119790000D01*
X37375800Y119490000D01*
G37*
G36*
X37375800Y118690000D02*
G01*
X36975800Y118690000D01*
X36975800Y118990000D01*
X37375800Y118990000D01*
X37375800Y118690000D01*
G37*
G36*
X37375800Y117890000D02*
G01*
X36975800Y117890000D01*
X36975800Y118190000D01*
X37375800Y118190000D01*
X37375800Y117890000D01*
G37*
G36*
X37975800Y120340000D02*
G01*
X37675800Y120340000D01*
X37675800Y120740000D01*
X37975800Y120740000D01*
X37975800Y120340000D01*
G37*
G36*
X37975800Y116940000D02*
G01*
X37675800Y116940000D01*
X37675800Y117340000D01*
X37975800Y117340000D01*
X37975800Y116940000D01*
G37*
G36*
X38975800Y118390000D02*
G01*
X38275800Y118390000D01*
X38275800Y119290000D01*
X38975800Y119290000D01*
X38975800Y118390000D01*
G37*
G36*
X38775800Y120340000D02*
G01*
X38475800Y120340000D01*
X38475800Y120740000D01*
X38775800Y120740000D01*
X38775800Y120340000D01*
G37*
G36*
X38775800Y116940000D02*
G01*
X38475800Y116940000D01*
X38475800Y117340000D01*
X38775800Y117340000D01*
X38775800Y116940000D01*
G37*
G36*
X39575800Y120340000D02*
G01*
X39275800Y120340000D01*
X39275800Y120740000D01*
X39575800Y120740000D01*
X39575800Y120340000D01*
G37*
G36*
X39575800Y116940000D02*
G01*
X39275800Y116940000D01*
X39275800Y117340000D01*
X39575800Y117340000D01*
X39575800Y116940000D01*
G37*
G36*
X40275800Y119490000D02*
G01*
X39875800Y119490000D01*
X39875800Y119790000D01*
X40275800Y119790000D01*
X40275800Y119490000D01*
G37*
G36*
X40275800Y118690000D02*
G01*
X39875800Y118690000D01*
X39875800Y118990000D01*
X40275800Y118990000D01*
X40275800Y118690000D01*
G37*
G36*
X40275800Y117890000D02*
G01*
X39875800Y117890000D01*
X39875800Y118190000D01*
X40275800Y118190000D01*
X40275800Y117890000D01*
G37*
G36*
X37375800Y171290000D02*
G01*
X36975800Y171290000D01*
X36975800Y171590000D01*
X37375800Y171590000D01*
X37375800Y171290000D01*
G37*
G36*
X37375800Y170490000D02*
G01*
X36975800Y170490000D01*
X36975800Y170790000D01*
X37375800Y170790000D01*
X37375800Y170490000D01*
G37*
G36*
X37375800Y169690000D02*
G01*
X36975800Y169690000D01*
X36975800Y169990000D01*
X37375800Y169990000D01*
X37375800Y169690000D01*
G37*
G36*
X37975800Y172140000D02*
G01*
X37675800Y172140000D01*
X37675800Y172540000D01*
X37975800Y172540000D01*
X37975800Y172140000D01*
G37*
G36*
X37975800Y168740000D02*
G01*
X37675800Y168740000D01*
X37675800Y169140000D01*
X37975800Y169140000D01*
X37975800Y168740000D01*
G37*
G36*
X38975800Y170190000D02*
G01*
X38275800Y170190000D01*
X38275800Y171090000D01*
X38975800Y171090000D01*
X38975800Y170190000D01*
G37*
G36*
X38775800Y172140000D02*
G01*
X38475800Y172140000D01*
X38475800Y172540000D01*
X38775800Y172540000D01*
X38775800Y172140000D01*
G37*
G36*
X38775800Y168740000D02*
G01*
X38475800Y168740000D01*
X38475800Y169140000D01*
X38775800Y169140000D01*
X38775800Y168740000D01*
G37*
G36*
X39575800Y172140000D02*
G01*
X39275800Y172140000D01*
X39275800Y172540000D01*
X39575800Y172540000D01*
X39575800Y172140000D01*
G37*
G36*
X39575800Y168740000D02*
G01*
X39275800Y168740000D01*
X39275800Y169140000D01*
X39575800Y169140000D01*
X39575800Y168740000D01*
G37*
G36*
X40275800Y171290000D02*
G01*
X39875800Y171290000D01*
X39875800Y171590000D01*
X40275800Y171590000D01*
X40275800Y171290000D01*
G37*
G36*
X40275800Y170490000D02*
G01*
X39875800Y170490000D01*
X39875800Y170790000D01*
X40275800Y170790000D01*
X40275800Y170490000D01*
G37*
G36*
X40275800Y169690000D02*
G01*
X39875800Y169690000D01*
X39875800Y169990000D01*
X40275800Y169990000D01*
X40275800Y169690000D01*
G37*
G36*
X63275800Y15890000D02*
G01*
X62875800Y15890000D01*
X62875800Y16190000D01*
X63275800Y16190000D01*
X63275800Y15890000D01*
G37*
G36*
X63275800Y15090000D02*
G01*
X62875800Y15090000D01*
X62875800Y15390000D01*
X63275800Y15390000D01*
X63275800Y15090000D01*
G37*
G36*
X63275800Y14290000D02*
G01*
X62875800Y14290000D01*
X62875800Y14590000D01*
X63275800Y14590000D01*
X63275800Y14290000D01*
G37*
G36*
X63875800Y16740000D02*
G01*
X63575800Y16740000D01*
X63575800Y17140000D01*
X63875800Y17140000D01*
X63875800Y16740000D01*
G37*
G36*
X63875800Y13340000D02*
G01*
X63575800Y13340000D01*
X63575800Y13740000D01*
X63875800Y13740000D01*
X63875800Y13340000D01*
G37*
G36*
X64875800Y14790000D02*
G01*
X64175800Y14790000D01*
X64175800Y15690000D01*
X64875800Y15690000D01*
X64875800Y14790000D01*
G37*
G36*
X64675800Y16740000D02*
G01*
X64375800Y16740000D01*
X64375800Y17140000D01*
X64675800Y17140000D01*
X64675800Y16740000D01*
G37*
G36*
X64675800Y13340000D02*
G01*
X64375800Y13340000D01*
X64375800Y13740000D01*
X64675800Y13740000D01*
X64675800Y13340000D01*
G37*
G36*
X65475800Y16740000D02*
G01*
X65175800Y16740000D01*
X65175800Y17140000D01*
X65475800Y17140000D01*
X65475800Y16740000D01*
G37*
G36*
X65475800Y13340000D02*
G01*
X65175800Y13340000D01*
X65175800Y13740000D01*
X65475800Y13740000D01*
X65475800Y13340000D01*
G37*
G36*
X66175800Y15890000D02*
G01*
X65775800Y15890000D01*
X65775800Y16190000D01*
X66175800Y16190000D01*
X66175800Y15890000D01*
G37*
G36*
X66175800Y15090000D02*
G01*
X65775800Y15090000D01*
X65775800Y15390000D01*
X66175800Y15390000D01*
X66175800Y15090000D01*
G37*
G36*
X66175800Y14290000D02*
G01*
X65775800Y14290000D01*
X65775800Y14590000D01*
X66175800Y14590000D01*
X66175800Y14290000D01*
G37*
G36*
X63275800Y41790000D02*
G01*
X62875800Y41790000D01*
X62875800Y42090000D01*
X63275800Y42090000D01*
X63275800Y41790000D01*
G37*
G36*
X63275800Y40990000D02*
G01*
X62875800Y40990000D01*
X62875800Y41290000D01*
X63275800Y41290000D01*
X63275800Y40990000D01*
G37*
G36*
X63275800Y40190000D02*
G01*
X62875800Y40190000D01*
X62875800Y40490000D01*
X63275800Y40490000D01*
X63275800Y40190000D01*
G37*
G36*
X63875800Y42640000D02*
G01*
X63575800Y42640000D01*
X63575800Y43040000D01*
X63875800Y43040000D01*
X63875800Y42640000D01*
G37*
G36*
X63875800Y39240000D02*
G01*
X63575800Y39240000D01*
X63575800Y39640000D01*
X63875800Y39640000D01*
X63875800Y39240000D01*
G37*
G36*
X64875800Y40690000D02*
G01*
X64175800Y40690000D01*
X64175800Y41590000D01*
X64875800Y41590000D01*
X64875800Y40690000D01*
G37*
G36*
X64675800Y42640000D02*
G01*
X64375800Y42640000D01*
X64375800Y43040000D01*
X64675800Y43040000D01*
X64675800Y42640000D01*
G37*
G36*
X64675800Y39240000D02*
G01*
X64375800Y39240000D01*
X64375800Y39640000D01*
X64675800Y39640000D01*
X64675800Y39240000D01*
G37*
G36*
X65475800Y42640000D02*
G01*
X65175800Y42640000D01*
X65175800Y43040000D01*
X65475800Y43040000D01*
X65475800Y42640000D01*
G37*
G36*
X65475800Y39240000D02*
G01*
X65175800Y39240000D01*
X65175800Y39640000D01*
X65475800Y39640000D01*
X65475800Y39240000D01*
G37*
G36*
X66175800Y41790000D02*
G01*
X65775800Y41790000D01*
X65775800Y42090000D01*
X66175800Y42090000D01*
X66175800Y41790000D01*
G37*
G36*
X66175800Y40990000D02*
G01*
X65775800Y40990000D01*
X65775800Y41290000D01*
X66175800Y41290000D01*
X66175800Y40990000D01*
G37*
G36*
X66175800Y40190000D02*
G01*
X65775800Y40190000D01*
X65775800Y40490000D01*
X66175800Y40490000D01*
X66175800Y40190000D01*
G37*
G36*
X63275800Y67690000D02*
G01*
X62875800Y67690000D01*
X62875800Y67990000D01*
X63275800Y67990000D01*
X63275800Y67690000D01*
G37*
G36*
X63275800Y66890000D02*
G01*
X62875800Y66890000D01*
X62875800Y67190000D01*
X63275800Y67190000D01*
X63275800Y66890000D01*
G37*
G36*
X63275800Y66090000D02*
G01*
X62875800Y66090000D01*
X62875800Y66390000D01*
X63275800Y66390000D01*
X63275800Y66090000D01*
G37*
G36*
X63875800Y68540000D02*
G01*
X63575800Y68540000D01*
X63575800Y68940000D01*
X63875800Y68940000D01*
X63875800Y68540000D01*
G37*
G36*
X63875800Y65140000D02*
G01*
X63575800Y65140000D01*
X63575800Y65540000D01*
X63875800Y65540000D01*
X63875800Y65140000D01*
G37*
G36*
X64875800Y66590000D02*
G01*
X64175800Y66590000D01*
X64175800Y67490000D01*
X64875800Y67490000D01*
X64875800Y66590000D01*
G37*
G36*
X64675800Y68540000D02*
G01*
X64375800Y68540000D01*
X64375800Y68940000D01*
X64675800Y68940000D01*
X64675800Y68540000D01*
G37*
G36*
X64675800Y65140000D02*
G01*
X64375800Y65140000D01*
X64375800Y65540000D01*
X64675800Y65540000D01*
X64675800Y65140000D01*
G37*
G36*
X65475800Y68540000D02*
G01*
X65175800Y68540000D01*
X65175800Y68940000D01*
X65475800Y68940000D01*
X65475800Y68540000D01*
G37*
G36*
X65475800Y65140000D02*
G01*
X65175800Y65140000D01*
X65175800Y65540000D01*
X65475800Y65540000D01*
X65475800Y65140000D01*
G37*
G36*
X66175800Y67690000D02*
G01*
X65775800Y67690000D01*
X65775800Y67990000D01*
X66175800Y67990000D01*
X66175800Y67690000D01*
G37*
G36*
X66175800Y66890000D02*
G01*
X65775800Y66890000D01*
X65775800Y67190000D01*
X66175800Y67190000D01*
X66175800Y66890000D01*
G37*
G36*
X66175800Y66090000D02*
G01*
X65775800Y66090000D01*
X65775800Y66390000D01*
X66175800Y66390000D01*
X66175800Y66090000D01*
G37*
G36*
X63275800Y93590000D02*
G01*
X62875800Y93590000D01*
X62875800Y93890000D01*
X63275800Y93890000D01*
X63275800Y93590000D01*
G37*
G36*
X63275800Y92790000D02*
G01*
X62875800Y92790000D01*
X62875800Y93090000D01*
X63275800Y93090000D01*
X63275800Y92790000D01*
G37*
G36*
X63275800Y91990000D02*
G01*
X62875800Y91990000D01*
X62875800Y92290000D01*
X63275800Y92290000D01*
X63275800Y91990000D01*
G37*
G36*
X63875800Y94440000D02*
G01*
X63575800Y94440000D01*
X63575800Y94840000D01*
X63875800Y94840000D01*
X63875800Y94440000D01*
G37*
G36*
X63875800Y91040000D02*
G01*
X63575800Y91040000D01*
X63575800Y91440000D01*
X63875800Y91440000D01*
X63875800Y91040000D01*
G37*
G36*
X64875800Y92490000D02*
G01*
X64175800Y92490000D01*
X64175800Y93390000D01*
X64875800Y93390000D01*
X64875800Y92490000D01*
G37*
G36*
X64675800Y94440000D02*
G01*
X64375800Y94440000D01*
X64375800Y94840000D01*
X64675800Y94840000D01*
X64675800Y94440000D01*
G37*
G36*
X64675800Y91040000D02*
G01*
X64375800Y91040000D01*
X64375800Y91440000D01*
X64675800Y91440000D01*
X64675800Y91040000D01*
G37*
G36*
X65475800Y94440000D02*
G01*
X65175800Y94440000D01*
X65175800Y94840000D01*
X65475800Y94840000D01*
X65475800Y94440000D01*
G37*
G36*
X65475800Y91040000D02*
G01*
X65175800Y91040000D01*
X65175800Y91440000D01*
X65475800Y91440000D01*
X65475800Y91040000D01*
G37*
G36*
X66175800Y93590000D02*
G01*
X65775800Y93590000D01*
X65775800Y93890000D01*
X66175800Y93890000D01*
X66175800Y93590000D01*
G37*
G36*
X66175800Y92790000D02*
G01*
X65775800Y92790000D01*
X65775800Y93090000D01*
X66175800Y93090000D01*
X66175800Y92790000D01*
G37*
G36*
X66175800Y91990000D02*
G01*
X65775800Y91990000D01*
X65775800Y92290000D01*
X66175800Y92290000D01*
X66175800Y91990000D01*
G37*
G36*
X63275800Y119490000D02*
G01*
X62875800Y119490000D01*
X62875800Y119790000D01*
X63275800Y119790000D01*
X63275800Y119490000D01*
G37*
G36*
X63275800Y118690000D02*
G01*
X62875800Y118690000D01*
X62875800Y118990000D01*
X63275800Y118990000D01*
X63275800Y118690000D01*
G37*
G36*
X63275800Y117890000D02*
G01*
X62875800Y117890000D01*
X62875800Y118190000D01*
X63275800Y118190000D01*
X63275800Y117890000D01*
G37*
G36*
X63875800Y120340000D02*
G01*
X63575800Y120340000D01*
X63575800Y120740000D01*
X63875800Y120740000D01*
X63875800Y120340000D01*
G37*
G36*
X63875800Y116940000D02*
G01*
X63575800Y116940000D01*
X63575800Y117340000D01*
X63875800Y117340000D01*
X63875800Y116940000D01*
G37*
G36*
X64875800Y118390000D02*
G01*
X64175800Y118390000D01*
X64175800Y119290000D01*
X64875800Y119290000D01*
X64875800Y118390000D01*
G37*
G36*
X64675800Y120340000D02*
G01*
X64375800Y120340000D01*
X64375800Y120740000D01*
X64675800Y120740000D01*
X64675800Y120340000D01*
G37*
G36*
X64675800Y116940000D02*
G01*
X64375800Y116940000D01*
X64375800Y117340000D01*
X64675800Y117340000D01*
X64675800Y116940000D01*
G37*
G36*
X65475800Y120340000D02*
G01*
X65175800Y120340000D01*
X65175800Y120740000D01*
X65475800Y120740000D01*
X65475800Y120340000D01*
G37*
G36*
X65475800Y116940000D02*
G01*
X65175800Y116940000D01*
X65175800Y117340000D01*
X65475800Y117340000D01*
X65475800Y116940000D01*
G37*
G36*
X66175800Y119490000D02*
G01*
X65775800Y119490000D01*
X65775800Y119790000D01*
X66175800Y119790000D01*
X66175800Y119490000D01*
G37*
G36*
X66175800Y118690000D02*
G01*
X65775800Y118690000D01*
X65775800Y118990000D01*
X66175800Y118990000D01*
X66175800Y118690000D01*
G37*
G36*
X66175800Y117890000D02*
G01*
X65775800Y117890000D01*
X65775800Y118190000D01*
X66175800Y118190000D01*
X66175800Y117890000D01*
G37*
G36*
X63275800Y145390000D02*
G01*
X62875800Y145390000D01*
X62875800Y145690000D01*
X63275800Y145690000D01*
X63275800Y145390000D01*
G37*
G36*
X63275800Y144590000D02*
G01*
X62875800Y144590000D01*
X62875800Y144890000D01*
X63275800Y144890000D01*
X63275800Y144590000D01*
G37*
G36*
X63275800Y143790000D02*
G01*
X62875800Y143790000D01*
X62875800Y144090000D01*
X63275800Y144090000D01*
X63275800Y143790000D01*
G37*
G36*
X63875800Y146240000D02*
G01*
X63575800Y146240000D01*
X63575800Y146640000D01*
X63875800Y146640000D01*
X63875800Y146240000D01*
G37*
G36*
X63875800Y142840000D02*
G01*
X63575800Y142840000D01*
X63575800Y143240000D01*
X63875800Y143240000D01*
X63875800Y142840000D01*
G37*
G36*
X64875800Y144290000D02*
G01*
X64175800Y144290000D01*
X64175800Y145190000D01*
X64875800Y145190000D01*
X64875800Y144290000D01*
G37*
G36*
X64675800Y146240000D02*
G01*
X64375800Y146240000D01*
X64375800Y146640000D01*
X64675800Y146640000D01*
X64675800Y146240000D01*
G37*
G36*
X64675800Y142840000D02*
G01*
X64375800Y142840000D01*
X64375800Y143240000D01*
X64675800Y143240000D01*
X64675800Y142840000D01*
G37*
G36*
X65475800Y146240000D02*
G01*
X65175800Y146240000D01*
X65175800Y146640000D01*
X65475800Y146640000D01*
X65475800Y146240000D01*
G37*
G36*
X65475800Y142840000D02*
G01*
X65175800Y142840000D01*
X65175800Y143240000D01*
X65475800Y143240000D01*
X65475800Y142840000D01*
G37*
G36*
X66175800Y145390000D02*
G01*
X65775800Y145390000D01*
X65775800Y145690000D01*
X66175800Y145690000D01*
X66175800Y145390000D01*
G37*
G36*
X66175800Y144590000D02*
G01*
X65775800Y144590000D01*
X65775800Y144890000D01*
X66175800Y144890000D01*
X66175800Y144590000D01*
G37*
G36*
X66175800Y143790000D02*
G01*
X65775800Y143790000D01*
X65775800Y144090000D01*
X66175800Y144090000D01*
X66175800Y143790000D01*
G37*
G36*
X63275800Y171290000D02*
G01*
X62875800Y171290000D01*
X62875800Y171590000D01*
X63275800Y171590000D01*
X63275800Y171290000D01*
G37*
G36*
X63275800Y170490000D02*
G01*
X62875800Y170490000D01*
X62875800Y170790000D01*
X63275800Y170790000D01*
X63275800Y170490000D01*
G37*
G36*
X63275800Y169690000D02*
G01*
X62875800Y169690000D01*
X62875800Y169990000D01*
X63275800Y169990000D01*
X63275800Y169690000D01*
G37*
G36*
X63875800Y172140000D02*
G01*
X63575800Y172140000D01*
X63575800Y172540000D01*
X63875800Y172540000D01*
X63875800Y172140000D01*
G37*
G36*
X63875800Y168740000D02*
G01*
X63575800Y168740000D01*
X63575800Y169140000D01*
X63875800Y169140000D01*
X63875800Y168740000D01*
G37*
G36*
X64875800Y170190000D02*
G01*
X64175800Y170190000D01*
X64175800Y171090000D01*
X64875800Y171090000D01*
X64875800Y170190000D01*
G37*
G36*
X64675800Y172140000D02*
G01*
X64375800Y172140000D01*
X64375800Y172540000D01*
X64675800Y172540000D01*
X64675800Y172140000D01*
G37*
G36*
X64675800Y168740000D02*
G01*
X64375800Y168740000D01*
X64375800Y169140000D01*
X64675800Y169140000D01*
X64675800Y168740000D01*
G37*
G36*
X65475800Y172140000D02*
G01*
X65175800Y172140000D01*
X65175800Y172540000D01*
X65475800Y172540000D01*
X65475800Y172140000D01*
G37*
G36*
X65475800Y168740000D02*
G01*
X65175800Y168740000D01*
X65175800Y169140000D01*
X65475800Y169140000D01*
X65475800Y168740000D01*
G37*
G36*
X66175800Y171290000D02*
G01*
X65775800Y171290000D01*
X65775800Y171590000D01*
X66175800Y171590000D01*
X66175800Y171290000D01*
G37*
G36*
X66175800Y170490000D02*
G01*
X65775800Y170490000D01*
X65775800Y170790000D01*
X66175800Y170790000D01*
X66175800Y170490000D01*
G37*
G36*
X66175800Y169690000D02*
G01*
X65775800Y169690000D01*
X65775800Y169990000D01*
X66175800Y169990000D01*
X66175800Y169690000D01*
G37*
G36*
X89175800Y15890000D02*
G01*
X88775800Y15890000D01*
X88775800Y16190000D01*
X89175800Y16190000D01*
X89175800Y15890000D01*
G37*
G36*
X89175800Y15090000D02*
G01*
X88775800Y15090000D01*
X88775800Y15390000D01*
X89175800Y15390000D01*
X89175800Y15090000D01*
G37*
G36*
X89175800Y14290000D02*
G01*
X88775800Y14290000D01*
X88775800Y14590000D01*
X89175800Y14590000D01*
X89175800Y14290000D01*
G37*
G36*
X89775800Y16740000D02*
G01*
X89475800Y16740000D01*
X89475800Y17140000D01*
X89775800Y17140000D01*
X89775800Y16740000D01*
G37*
G36*
X89775800Y13340000D02*
G01*
X89475800Y13340000D01*
X89475800Y13740000D01*
X89775800Y13740000D01*
X89775800Y13340000D01*
G37*
G36*
X90775800Y14790000D02*
G01*
X90075800Y14790000D01*
X90075800Y15690000D01*
X90775800Y15690000D01*
X90775800Y14790000D01*
G37*
G36*
X90575800Y16740000D02*
G01*
X90275800Y16740000D01*
X90275800Y17140000D01*
X90575800Y17140000D01*
X90575800Y16740000D01*
G37*
G36*
X90575800Y13340000D02*
G01*
X90275800Y13340000D01*
X90275800Y13740000D01*
X90575800Y13740000D01*
X90575800Y13340000D01*
G37*
G36*
X91375800Y16740000D02*
G01*
X91075800Y16740000D01*
X91075800Y17140000D01*
X91375800Y17140000D01*
X91375800Y16740000D01*
G37*
G36*
X91375800Y13340000D02*
G01*
X91075800Y13340000D01*
X91075800Y13740000D01*
X91375800Y13740000D01*
X91375800Y13340000D01*
G37*
G36*
X92075800Y15890000D02*
G01*
X91675800Y15890000D01*
X91675800Y16190000D01*
X92075800Y16190000D01*
X92075800Y15890000D01*
G37*
G36*
X92075800Y15090000D02*
G01*
X91675800Y15090000D01*
X91675800Y15390000D01*
X92075800Y15390000D01*
X92075800Y15090000D01*
G37*
G36*
X92075800Y14290000D02*
G01*
X91675800Y14290000D01*
X91675800Y14590000D01*
X92075800Y14590000D01*
X92075800Y14290000D01*
G37*
G36*
X89175800Y41790000D02*
G01*
X88775800Y41790000D01*
X88775800Y42090000D01*
X89175800Y42090000D01*
X89175800Y41790000D01*
G37*
G36*
X89175800Y40990000D02*
G01*
X88775800Y40990000D01*
X88775800Y41290000D01*
X89175800Y41290000D01*
X89175800Y40990000D01*
G37*
G36*
X89175800Y40190000D02*
G01*
X88775800Y40190000D01*
X88775800Y40490000D01*
X89175800Y40490000D01*
X89175800Y40190000D01*
G37*
G36*
X89775800Y42640000D02*
G01*
X89475800Y42640000D01*
X89475800Y43040000D01*
X89775800Y43040000D01*
X89775800Y42640000D01*
G37*
G36*
X89775800Y39240000D02*
G01*
X89475800Y39240000D01*
X89475800Y39640000D01*
X89775800Y39640000D01*
X89775800Y39240000D01*
G37*
G36*
X90775800Y40690000D02*
G01*
X90075800Y40690000D01*
X90075800Y41590000D01*
X90775800Y41590000D01*
X90775800Y40690000D01*
G37*
G36*
X90575800Y42640000D02*
G01*
X90275800Y42640000D01*
X90275800Y43040000D01*
X90575800Y43040000D01*
X90575800Y42640000D01*
G37*
G36*
X90575800Y39240000D02*
G01*
X90275800Y39240000D01*
X90275800Y39640000D01*
X90575800Y39640000D01*
X90575800Y39240000D01*
G37*
G36*
X91375800Y42640000D02*
G01*
X91075800Y42640000D01*
X91075800Y43040000D01*
X91375800Y43040000D01*
X91375800Y42640000D01*
G37*
G36*
X91375800Y39240000D02*
G01*
X91075800Y39240000D01*
X91075800Y39640000D01*
X91375800Y39640000D01*
X91375800Y39240000D01*
G37*
G36*
X92075800Y41790000D02*
G01*
X91675800Y41790000D01*
X91675800Y42090000D01*
X92075800Y42090000D01*
X92075800Y41790000D01*
G37*
G36*
X92075800Y40990000D02*
G01*
X91675800Y40990000D01*
X91675800Y41290000D01*
X92075800Y41290000D01*
X92075800Y40990000D01*
G37*
G36*
X92075800Y40190000D02*
G01*
X91675800Y40190000D01*
X91675800Y40490000D01*
X92075800Y40490000D01*
X92075800Y40190000D01*
G37*
G36*
X89175800Y67690000D02*
G01*
X88775800Y67690000D01*
X88775800Y67990000D01*
X89175800Y67990000D01*
X89175800Y67690000D01*
G37*
G36*
X89175800Y66890000D02*
G01*
X88775800Y66890000D01*
X88775800Y67190000D01*
X89175800Y67190000D01*
X89175800Y66890000D01*
G37*
G36*
X89175800Y66090000D02*
G01*
X88775800Y66090000D01*
X88775800Y66390000D01*
X89175800Y66390000D01*
X89175800Y66090000D01*
G37*
G36*
X89775800Y68540000D02*
G01*
X89475800Y68540000D01*
X89475800Y68940000D01*
X89775800Y68940000D01*
X89775800Y68540000D01*
G37*
G36*
X89775800Y65140000D02*
G01*
X89475800Y65140000D01*
X89475800Y65540000D01*
X89775800Y65540000D01*
X89775800Y65140000D01*
G37*
G36*
X90775800Y66590000D02*
G01*
X90075800Y66590000D01*
X90075800Y67490000D01*
X90775800Y67490000D01*
X90775800Y66590000D01*
G37*
G36*
X90575800Y68540000D02*
G01*
X90275800Y68540000D01*
X90275800Y68940000D01*
X90575800Y68940000D01*
X90575800Y68540000D01*
G37*
G36*
X90575800Y65140000D02*
G01*
X90275800Y65140000D01*
X90275800Y65540000D01*
X90575800Y65540000D01*
X90575800Y65140000D01*
G37*
G36*
X91375800Y68540000D02*
G01*
X91075800Y68540000D01*
X91075800Y68940000D01*
X91375800Y68940000D01*
X91375800Y68540000D01*
G37*
G36*
X91375800Y65140000D02*
G01*
X91075800Y65140000D01*
X91075800Y65540000D01*
X91375800Y65540000D01*
X91375800Y65140000D01*
G37*
G36*
X92075800Y67690000D02*
G01*
X91675800Y67690000D01*
X91675800Y67990000D01*
X92075800Y67990000D01*
X92075800Y67690000D01*
G37*
G36*
X92075800Y66890000D02*
G01*
X91675800Y66890000D01*
X91675800Y67190000D01*
X92075800Y67190000D01*
X92075800Y66890000D01*
G37*
G36*
X92075800Y66090000D02*
G01*
X91675800Y66090000D01*
X91675800Y66390000D01*
X92075800Y66390000D01*
X92075800Y66090000D01*
G37*
G36*
X89175800Y93590000D02*
G01*
X88775800Y93590000D01*
X88775800Y93890000D01*
X89175800Y93890000D01*
X89175800Y93590000D01*
G37*
G36*
X89175800Y92790000D02*
G01*
X88775800Y92790000D01*
X88775800Y93090000D01*
X89175800Y93090000D01*
X89175800Y92790000D01*
G37*
G36*
X89175800Y91990000D02*
G01*
X88775800Y91990000D01*
X88775800Y92290000D01*
X89175800Y92290000D01*
X89175800Y91990000D01*
G37*
G36*
X89775800Y94440000D02*
G01*
X89475800Y94440000D01*
X89475800Y94840000D01*
X89775800Y94840000D01*
X89775800Y94440000D01*
G37*
G36*
X89775800Y91040000D02*
G01*
X89475800Y91040000D01*
X89475800Y91440000D01*
X89775800Y91440000D01*
X89775800Y91040000D01*
G37*
G36*
X90775800Y92490000D02*
G01*
X90075800Y92490000D01*
X90075800Y93390000D01*
X90775800Y93390000D01*
X90775800Y92490000D01*
G37*
G36*
X90575800Y94440000D02*
G01*
X90275800Y94440000D01*
X90275800Y94840000D01*
X90575800Y94840000D01*
X90575800Y94440000D01*
G37*
G36*
X90575800Y91040000D02*
G01*
X90275800Y91040000D01*
X90275800Y91440000D01*
X90575800Y91440000D01*
X90575800Y91040000D01*
G37*
G36*
X91375800Y94440000D02*
G01*
X91075800Y94440000D01*
X91075800Y94840000D01*
X91375800Y94840000D01*
X91375800Y94440000D01*
G37*
G36*
X91375800Y91040000D02*
G01*
X91075800Y91040000D01*
X91075800Y91440000D01*
X91375800Y91440000D01*
X91375800Y91040000D01*
G37*
G36*
X92075800Y93590000D02*
G01*
X91675800Y93590000D01*
X91675800Y93890000D01*
X92075800Y93890000D01*
X92075800Y93590000D01*
G37*
G36*
X92075800Y92790000D02*
G01*
X91675800Y92790000D01*
X91675800Y93090000D01*
X92075800Y93090000D01*
X92075800Y92790000D01*
G37*
G36*
X92075800Y91990000D02*
G01*
X91675800Y91990000D01*
X91675800Y92290000D01*
X92075800Y92290000D01*
X92075800Y91990000D01*
G37*
G36*
X89175800Y119490000D02*
G01*
X88775800Y119490000D01*
X88775800Y119790000D01*
X89175800Y119790000D01*
X89175800Y119490000D01*
G37*
G36*
X89175800Y118690000D02*
G01*
X88775800Y118690000D01*
X88775800Y118990000D01*
X89175800Y118990000D01*
X89175800Y118690000D01*
G37*
G36*
X89175800Y117890000D02*
G01*
X88775800Y117890000D01*
X88775800Y118190000D01*
X89175800Y118190000D01*
X89175800Y117890000D01*
G37*
G36*
X89775800Y120340000D02*
G01*
X89475800Y120340000D01*
X89475800Y120740000D01*
X89775800Y120740000D01*
X89775800Y120340000D01*
G37*
G36*
X89775800Y116940000D02*
G01*
X89475800Y116940000D01*
X89475800Y117340000D01*
X89775800Y117340000D01*
X89775800Y116940000D01*
G37*
G36*
X90775800Y118390000D02*
G01*
X90075800Y118390000D01*
X90075800Y119290000D01*
X90775800Y119290000D01*
X90775800Y118390000D01*
G37*
G36*
X90575800Y120340000D02*
G01*
X90275800Y120340000D01*
X90275800Y120740000D01*
X90575800Y120740000D01*
X90575800Y120340000D01*
G37*
G36*
X90575800Y116940000D02*
G01*
X90275800Y116940000D01*
X90275800Y117340000D01*
X90575800Y117340000D01*
X90575800Y116940000D01*
G37*
G36*
X91375800Y120340000D02*
G01*
X91075800Y120340000D01*
X91075800Y120740000D01*
X91375800Y120740000D01*
X91375800Y120340000D01*
G37*
G36*
X91375800Y116940000D02*
G01*
X91075800Y116940000D01*
X91075800Y117340000D01*
X91375800Y117340000D01*
X91375800Y116940000D01*
G37*
G36*
X92075800Y119490000D02*
G01*
X91675800Y119490000D01*
X91675800Y119790000D01*
X92075800Y119790000D01*
X92075800Y119490000D01*
G37*
G36*
X92075800Y118690000D02*
G01*
X91675800Y118690000D01*
X91675800Y118990000D01*
X92075800Y118990000D01*
X92075800Y118690000D01*
G37*
G36*
X92075800Y117890000D02*
G01*
X91675800Y117890000D01*
X91675800Y118190000D01*
X92075800Y118190000D01*
X92075800Y117890000D01*
G37*
G36*
X89175800Y145390000D02*
G01*
X88775800Y145390000D01*
X88775800Y145690000D01*
X89175800Y145690000D01*
X89175800Y145390000D01*
G37*
G36*
X89175800Y144590000D02*
G01*
X88775800Y144590000D01*
X88775800Y144890000D01*
X89175800Y144890000D01*
X89175800Y144590000D01*
G37*
G36*
X89175800Y143790000D02*
G01*
X88775800Y143790000D01*
X88775800Y144090000D01*
X89175800Y144090000D01*
X89175800Y143790000D01*
G37*
G36*
X89775800Y146240000D02*
G01*
X89475800Y146240000D01*
X89475800Y146640000D01*
X89775800Y146640000D01*
X89775800Y146240000D01*
G37*
G36*
X89775800Y142840000D02*
G01*
X89475800Y142840000D01*
X89475800Y143240000D01*
X89775800Y143240000D01*
X89775800Y142840000D01*
G37*
G36*
X90775800Y144290000D02*
G01*
X90075800Y144290000D01*
X90075800Y145190000D01*
X90775800Y145190000D01*
X90775800Y144290000D01*
G37*
G36*
X90575800Y146240000D02*
G01*
X90275800Y146240000D01*
X90275800Y146640000D01*
X90575800Y146640000D01*
X90575800Y146240000D01*
G37*
G36*
X90575800Y142840000D02*
G01*
X90275800Y142840000D01*
X90275800Y143240000D01*
X90575800Y143240000D01*
X90575800Y142840000D01*
G37*
G36*
X91375800Y146240000D02*
G01*
X91075800Y146240000D01*
X91075800Y146640000D01*
X91375800Y146640000D01*
X91375800Y146240000D01*
G37*
G36*
X91375800Y142840000D02*
G01*
X91075800Y142840000D01*
X91075800Y143240000D01*
X91375800Y143240000D01*
X91375800Y142840000D01*
G37*
G36*
X92075800Y145390000D02*
G01*
X91675800Y145390000D01*
X91675800Y145690000D01*
X92075800Y145690000D01*
X92075800Y145390000D01*
G37*
G36*
X92075800Y144590000D02*
G01*
X91675800Y144590000D01*
X91675800Y144890000D01*
X92075800Y144890000D01*
X92075800Y144590000D01*
G37*
G36*
X92075800Y143790000D02*
G01*
X91675800Y143790000D01*
X91675800Y144090000D01*
X92075800Y144090000D01*
X92075800Y143790000D01*
G37*
G36*
X89175800Y171290000D02*
G01*
X88775800Y171290000D01*
X88775800Y171590000D01*
X89175800Y171590000D01*
X89175800Y171290000D01*
G37*
G36*
X89175800Y170490000D02*
G01*
X88775800Y170490000D01*
X88775800Y170790000D01*
X89175800Y170790000D01*
X89175800Y170490000D01*
G37*
G36*
X89175800Y169690000D02*
G01*
X88775800Y169690000D01*
X88775800Y169990000D01*
X89175800Y169990000D01*
X89175800Y169690000D01*
G37*
G36*
X89775800Y172140000D02*
G01*
X89475800Y172140000D01*
X89475800Y172540000D01*
X89775800Y172540000D01*
X89775800Y172140000D01*
G37*
G36*
X89775800Y168740000D02*
G01*
X89475800Y168740000D01*
X89475800Y169140000D01*
X89775800Y169140000D01*
X89775800Y168740000D01*
G37*
G36*
X90775800Y170190000D02*
G01*
X90075800Y170190000D01*
X90075800Y171090000D01*
X90775800Y171090000D01*
X90775800Y170190000D01*
G37*
G36*
X90575800Y172140000D02*
G01*
X90275800Y172140000D01*
X90275800Y172540000D01*
X90575800Y172540000D01*
X90575800Y172140000D01*
G37*
G36*
X90575800Y168740000D02*
G01*
X90275800Y168740000D01*
X90275800Y169140000D01*
X90575800Y169140000D01*
X90575800Y168740000D01*
G37*
G36*
X91375800Y172140000D02*
G01*
X91075800Y172140000D01*
X91075800Y172540000D01*
X91375800Y172540000D01*
X91375800Y172140000D01*
G37*
G36*
X91375800Y168740000D02*
G01*
X91075800Y168740000D01*
X91075800Y169140000D01*
X91375800Y169140000D01*
X91375800Y168740000D01*
G37*
G36*
X92075800Y171290000D02*
G01*
X91675800Y171290000D01*
X91675800Y171590000D01*
X92075800Y171590000D01*
X92075800Y171290000D01*
G37*
G36*
X92075800Y170490000D02*
G01*
X91675800Y170490000D01*
X91675800Y170790000D01*
X92075800Y170790000D01*
X92075800Y170490000D01*
G37*
G36*
X92075800Y169690000D02*
G01*
X91675800Y169690000D01*
X91675800Y169990000D01*
X92075800Y169990000D01*
X92075800Y169690000D01*
G37*
G36*
X115075800Y15890000D02*
G01*
X114675800Y15890000D01*
X114675800Y16190000D01*
X115075800Y16190000D01*
X115075800Y15890000D01*
G37*
G36*
X115075800Y15090000D02*
G01*
X114675800Y15090000D01*
X114675800Y15390000D01*
X115075800Y15390000D01*
X115075800Y15090000D01*
G37*
G36*
X115075800Y14290000D02*
G01*
X114675800Y14290000D01*
X114675800Y14590000D01*
X115075800Y14590000D01*
X115075800Y14290000D01*
G37*
G36*
X115675800Y16740000D02*
G01*
X115375800Y16740000D01*
X115375800Y17140000D01*
X115675800Y17140000D01*
X115675800Y16740000D01*
G37*
G36*
X115675800Y13340000D02*
G01*
X115375800Y13340000D01*
X115375800Y13740000D01*
X115675800Y13740000D01*
X115675800Y13340000D01*
G37*
G36*
X116675800Y14790000D02*
G01*
X115975800Y14790000D01*
X115975800Y15690000D01*
X116675800Y15690000D01*
X116675800Y14790000D01*
G37*
G36*
X116475800Y16740000D02*
G01*
X116175800Y16740000D01*
X116175800Y17140000D01*
X116475800Y17140000D01*
X116475800Y16740000D01*
G37*
G36*
X116475800Y13340000D02*
G01*
X116175800Y13340000D01*
X116175800Y13740000D01*
X116475800Y13740000D01*
X116475800Y13340000D01*
G37*
G36*
X117275800Y16740000D02*
G01*
X116975800Y16740000D01*
X116975800Y17140000D01*
X117275800Y17140000D01*
X117275800Y16740000D01*
G37*
G36*
X117275800Y13340000D02*
G01*
X116975800Y13340000D01*
X116975800Y13740000D01*
X117275800Y13740000D01*
X117275800Y13340000D01*
G37*
G36*
X117975800Y15890000D02*
G01*
X117575800Y15890000D01*
X117575800Y16190000D01*
X117975800Y16190000D01*
X117975800Y15890000D01*
G37*
G36*
X117975800Y15090000D02*
G01*
X117575800Y15090000D01*
X117575800Y15390000D01*
X117975800Y15390000D01*
X117975800Y15090000D01*
G37*
G36*
X117975800Y14290000D02*
G01*
X117575800Y14290000D01*
X117575800Y14590000D01*
X117975800Y14590000D01*
X117975800Y14290000D01*
G37*
G36*
X115075800Y41790000D02*
G01*
X114675800Y41790000D01*
X114675800Y42090000D01*
X115075800Y42090000D01*
X115075800Y41790000D01*
G37*
G36*
X115075800Y40990000D02*
G01*
X114675800Y40990000D01*
X114675800Y41290000D01*
X115075800Y41290000D01*
X115075800Y40990000D01*
G37*
G36*
X115075800Y40190000D02*
G01*
X114675800Y40190000D01*
X114675800Y40490000D01*
X115075800Y40490000D01*
X115075800Y40190000D01*
G37*
G36*
X115675800Y42640000D02*
G01*
X115375800Y42640000D01*
X115375800Y43040000D01*
X115675800Y43040000D01*
X115675800Y42640000D01*
G37*
G36*
X115675800Y39240000D02*
G01*
X115375800Y39240000D01*
X115375800Y39640000D01*
X115675800Y39640000D01*
X115675800Y39240000D01*
G37*
G36*
X116675800Y40690000D02*
G01*
X115975800Y40690000D01*
X115975800Y41590000D01*
X116675800Y41590000D01*
X116675800Y40690000D01*
G37*
G36*
X116475800Y42640000D02*
G01*
X116175800Y42640000D01*
X116175800Y43040000D01*
X116475800Y43040000D01*
X116475800Y42640000D01*
G37*
G36*
X116475800Y39240000D02*
G01*
X116175800Y39240000D01*
X116175800Y39640000D01*
X116475800Y39640000D01*
X116475800Y39240000D01*
G37*
G36*
X117275800Y42640000D02*
G01*
X116975800Y42640000D01*
X116975800Y43040000D01*
X117275800Y43040000D01*
X117275800Y42640000D01*
G37*
G36*
X117275800Y39240000D02*
G01*
X116975800Y39240000D01*
X116975800Y39640000D01*
X117275800Y39640000D01*
X117275800Y39240000D01*
G37*
G36*
X117975800Y41790000D02*
G01*
X117575800Y41790000D01*
X117575800Y42090000D01*
X117975800Y42090000D01*
X117975800Y41790000D01*
G37*
G36*
X117975800Y40990000D02*
G01*
X117575800Y40990000D01*
X117575800Y41290000D01*
X117975800Y41290000D01*
X117975800Y40990000D01*
G37*
G36*
X117975800Y40190000D02*
G01*
X117575800Y40190000D01*
X117575800Y40490000D01*
X117975800Y40490000D01*
X117975800Y40190000D01*
G37*
G36*
X115075800Y67690000D02*
G01*
X114675800Y67690000D01*
X114675800Y67990000D01*
X115075800Y67990000D01*
X115075800Y67690000D01*
G37*
G36*
X115075800Y66890000D02*
G01*
X114675800Y66890000D01*
X114675800Y67190000D01*
X115075800Y67190000D01*
X115075800Y66890000D01*
G37*
G36*
X115075800Y66090000D02*
G01*
X114675800Y66090000D01*
X114675800Y66390000D01*
X115075800Y66390000D01*
X115075800Y66090000D01*
G37*
G36*
X115675800Y68540000D02*
G01*
X115375800Y68540000D01*
X115375800Y68940000D01*
X115675800Y68940000D01*
X115675800Y68540000D01*
G37*
G36*
X115675800Y65140000D02*
G01*
X115375800Y65140000D01*
X115375800Y65540000D01*
X115675800Y65540000D01*
X115675800Y65140000D01*
G37*
G36*
X116675800Y66590000D02*
G01*
X115975800Y66590000D01*
X115975800Y67490000D01*
X116675800Y67490000D01*
X116675800Y66590000D01*
G37*
G36*
X116475800Y68540000D02*
G01*
X116175800Y68540000D01*
X116175800Y68940000D01*
X116475800Y68940000D01*
X116475800Y68540000D01*
G37*
G36*
X116475800Y65140000D02*
G01*
X116175800Y65140000D01*
X116175800Y65540000D01*
X116475800Y65540000D01*
X116475800Y65140000D01*
G37*
G36*
X117275800Y68540000D02*
G01*
X116975800Y68540000D01*
X116975800Y68940000D01*
X117275800Y68940000D01*
X117275800Y68540000D01*
G37*
G36*
X117275800Y65140000D02*
G01*
X116975800Y65140000D01*
X116975800Y65540000D01*
X117275800Y65540000D01*
X117275800Y65140000D01*
G37*
G36*
X117975800Y67690000D02*
G01*
X117575800Y67690000D01*
X117575800Y67990000D01*
X117975800Y67990000D01*
X117975800Y67690000D01*
G37*
G36*
X117975800Y66890000D02*
G01*
X117575800Y66890000D01*
X117575800Y67190000D01*
X117975800Y67190000D01*
X117975800Y66890000D01*
G37*
G36*
X117975800Y66090000D02*
G01*
X117575800Y66090000D01*
X117575800Y66390000D01*
X117975800Y66390000D01*
X117975800Y66090000D01*
G37*
G36*
X115075800Y93590000D02*
G01*
X114675800Y93590000D01*
X114675800Y93890000D01*
X115075800Y93890000D01*
X115075800Y93590000D01*
G37*
G36*
X115075800Y92790000D02*
G01*
X114675800Y92790000D01*
X114675800Y93090000D01*
X115075800Y93090000D01*
X115075800Y92790000D01*
G37*
G36*
X115075800Y91990000D02*
G01*
X114675800Y91990000D01*
X114675800Y92290000D01*
X115075800Y92290000D01*
X115075800Y91990000D01*
G37*
G36*
X115675800Y94440000D02*
G01*
X115375800Y94440000D01*
X115375800Y94840000D01*
X115675800Y94840000D01*
X115675800Y94440000D01*
G37*
G36*
X115675800Y91040000D02*
G01*
X115375800Y91040000D01*
X115375800Y91440000D01*
X115675800Y91440000D01*
X115675800Y91040000D01*
G37*
G36*
X116675800Y92490000D02*
G01*
X115975800Y92490000D01*
X115975800Y93390000D01*
X116675800Y93390000D01*
X116675800Y92490000D01*
G37*
G36*
X116475800Y94440000D02*
G01*
X116175800Y94440000D01*
X116175800Y94840000D01*
X116475800Y94840000D01*
X116475800Y94440000D01*
G37*
G36*
X116475800Y91040000D02*
G01*
X116175800Y91040000D01*
X116175800Y91440000D01*
X116475800Y91440000D01*
X116475800Y91040000D01*
G37*
G36*
X117275800Y94440000D02*
G01*
X116975800Y94440000D01*
X116975800Y94840000D01*
X117275800Y94840000D01*
X117275800Y94440000D01*
G37*
G36*
X117275800Y91040000D02*
G01*
X116975800Y91040000D01*
X116975800Y91440000D01*
X117275800Y91440000D01*
X117275800Y91040000D01*
G37*
G36*
X117975800Y93590000D02*
G01*
X117575800Y93590000D01*
X117575800Y93890000D01*
X117975800Y93890000D01*
X117975800Y93590000D01*
G37*
G36*
X117975800Y92790000D02*
G01*
X117575800Y92790000D01*
X117575800Y93090000D01*
X117975800Y93090000D01*
X117975800Y92790000D01*
G37*
G36*
X117975800Y91990000D02*
G01*
X117575800Y91990000D01*
X117575800Y92290000D01*
X117975800Y92290000D01*
X117975800Y91990000D01*
G37*
G36*
X115075800Y119490000D02*
G01*
X114675800Y119490000D01*
X114675800Y119790000D01*
X115075800Y119790000D01*
X115075800Y119490000D01*
G37*
G36*
X115075800Y118690000D02*
G01*
X114675800Y118690000D01*
X114675800Y118990000D01*
X115075800Y118990000D01*
X115075800Y118690000D01*
G37*
G36*
X115075800Y117890000D02*
G01*
X114675800Y117890000D01*
X114675800Y118190000D01*
X115075800Y118190000D01*
X115075800Y117890000D01*
G37*
G36*
X115675800Y120340000D02*
G01*
X115375800Y120340000D01*
X115375800Y120740000D01*
X115675800Y120740000D01*
X115675800Y120340000D01*
G37*
G36*
X115675800Y116940000D02*
G01*
X115375800Y116940000D01*
X115375800Y117340000D01*
X115675800Y117340000D01*
X115675800Y116940000D01*
G37*
G36*
X116675800Y118390000D02*
G01*
X115975800Y118390000D01*
X115975800Y119290000D01*
X116675800Y119290000D01*
X116675800Y118390000D01*
G37*
G36*
X116475800Y120340000D02*
G01*
X116175800Y120340000D01*
X116175800Y120740000D01*
X116475800Y120740000D01*
X116475800Y120340000D01*
G37*
G36*
X116475800Y116940000D02*
G01*
X116175800Y116940000D01*
X116175800Y117340000D01*
X116475800Y117340000D01*
X116475800Y116940000D01*
G37*
G36*
X117275800Y120340000D02*
G01*
X116975800Y120340000D01*
X116975800Y120740000D01*
X117275800Y120740000D01*
X117275800Y120340000D01*
G37*
G36*
X117275800Y116940000D02*
G01*
X116975800Y116940000D01*
X116975800Y117340000D01*
X117275800Y117340000D01*
X117275800Y116940000D01*
G37*
G36*
X117975800Y119490000D02*
G01*
X117575800Y119490000D01*
X117575800Y119790000D01*
X117975800Y119790000D01*
X117975800Y119490000D01*
G37*
G36*
X117975800Y118690000D02*
G01*
X117575800Y118690000D01*
X117575800Y118990000D01*
X117975800Y118990000D01*
X117975800Y118690000D01*
G37*
G36*
X117975800Y117890000D02*
G01*
X117575800Y117890000D01*
X117575800Y118190000D01*
X117975800Y118190000D01*
X117975800Y117890000D01*
G37*
G36*
X115075800Y145390000D02*
G01*
X114675800Y145390000D01*
X114675800Y145690000D01*
X115075800Y145690000D01*
X115075800Y145390000D01*
G37*
G36*
X115075800Y144590000D02*
G01*
X114675800Y144590000D01*
X114675800Y144890000D01*
X115075800Y144890000D01*
X115075800Y144590000D01*
G37*
G36*
X115075800Y143790000D02*
G01*
X114675800Y143790000D01*
X114675800Y144090000D01*
X115075800Y144090000D01*
X115075800Y143790000D01*
G37*
G36*
X115675800Y146240000D02*
G01*
X115375800Y146240000D01*
X115375800Y146640000D01*
X115675800Y146640000D01*
X115675800Y146240000D01*
G37*
G36*
X115675800Y142840000D02*
G01*
X115375800Y142840000D01*
X115375800Y143240000D01*
X115675800Y143240000D01*
X115675800Y142840000D01*
G37*
G36*
X116675800Y144290000D02*
G01*
X115975800Y144290000D01*
X115975800Y145190000D01*
X116675800Y145190000D01*
X116675800Y144290000D01*
G37*
G36*
X116475800Y146240000D02*
G01*
X116175800Y146240000D01*
X116175800Y146640000D01*
X116475800Y146640000D01*
X116475800Y146240000D01*
G37*
G36*
X116475800Y142840000D02*
G01*
X116175800Y142840000D01*
X116175800Y143240000D01*
X116475800Y143240000D01*
X116475800Y142840000D01*
G37*
G36*
X117275800Y146240000D02*
G01*
X116975800Y146240000D01*
X116975800Y146640000D01*
X117275800Y146640000D01*
X117275800Y146240000D01*
G37*
G36*
X117275800Y142840000D02*
G01*
X116975800Y142840000D01*
X116975800Y143240000D01*
X117275800Y143240000D01*
X117275800Y142840000D01*
G37*
G36*
X117975800Y145390000D02*
G01*
X117575800Y145390000D01*
X117575800Y145690000D01*
X117975800Y145690000D01*
X117975800Y145390000D01*
G37*
G36*
X117975800Y144590000D02*
G01*
X117575800Y144590000D01*
X117575800Y144890000D01*
X117975800Y144890000D01*
X117975800Y144590000D01*
G37*
G36*
X117975800Y143790000D02*
G01*
X117575800Y143790000D01*
X117575800Y144090000D01*
X117975800Y144090000D01*
X117975800Y143790000D01*
G37*
G36*
X115075800Y171290000D02*
G01*
X114675800Y171290000D01*
X114675800Y171590000D01*
X115075800Y171590000D01*
X115075800Y171290000D01*
G37*
G36*
X115075800Y170490000D02*
G01*
X114675800Y170490000D01*
X114675800Y170790000D01*
X115075800Y170790000D01*
X115075800Y170490000D01*
G37*
G36*
X115075800Y169690000D02*
G01*
X114675800Y169690000D01*
X114675800Y169990000D01*
X115075800Y169990000D01*
X115075800Y169690000D01*
G37*
G36*
X115675800Y172140000D02*
G01*
X115375800Y172140000D01*
X115375800Y172540000D01*
X115675800Y172540000D01*
X115675800Y172140000D01*
G37*
G36*
X115675800Y168740000D02*
G01*
X115375800Y168740000D01*
X115375800Y169140000D01*
X115675800Y169140000D01*
X115675800Y168740000D01*
G37*
G36*
X116675800Y170190000D02*
G01*
X115975800Y170190000D01*
X115975800Y171090000D01*
X116675800Y171090000D01*
X116675800Y170190000D01*
G37*
G36*
X116475800Y172140000D02*
G01*
X116175800Y172140000D01*
X116175800Y172540000D01*
X116475800Y172540000D01*
X116475800Y172140000D01*
G37*
G36*
X116475800Y168740000D02*
G01*
X116175800Y168740000D01*
X116175800Y169140000D01*
X116475800Y169140000D01*
X116475800Y168740000D01*
G37*
G36*
X117275800Y172140000D02*
G01*
X116975800Y172140000D01*
X116975800Y172540000D01*
X117275800Y172540000D01*
X117275800Y172140000D01*
G37*
G36*
X117275800Y168740000D02*
G01*
X116975800Y168740000D01*
X116975800Y169140000D01*
X117275800Y169140000D01*
X117275800Y168740000D01*
G37*
G36*
X117975800Y171290000D02*
G01*
X117575800Y171290000D01*
X117575800Y171590000D01*
X117975800Y171590000D01*
X117975800Y171290000D01*
G37*
G36*
X117975800Y170490000D02*
G01*
X117575800Y170490000D01*
X117575800Y170790000D01*
X117975800Y170790000D01*
X117975800Y170490000D01*
G37*
G36*
X117975800Y169690000D02*
G01*
X117575800Y169690000D01*
X117575800Y169990000D01*
X117975800Y169990000D01*
X117975800Y169690000D01*
G37*
%TO.C,U4*%
G36*
X12956000Y18377000D02*
G01*
X12456000Y18377000D01*
X12456000Y19777000D01*
X12956000Y19777000D01*
X12956000Y18377000D01*
G37*
G36*
X12956000Y44277000D02*
G01*
X12456000Y44277000D01*
X12456000Y45677000D01*
X12956000Y45677000D01*
X12956000Y44277000D01*
G37*
G36*
X12956000Y70177000D02*
G01*
X12456000Y70177000D01*
X12456000Y71577000D01*
X12956000Y71577000D01*
X12956000Y70177000D01*
G37*
G36*
X12956000Y96077000D02*
G01*
X12456000Y96077000D01*
X12456000Y97477000D01*
X12956000Y97477000D01*
X12956000Y96077000D01*
G37*
G36*
X12956000Y121977000D02*
G01*
X12456000Y121977000D01*
X12456000Y123377000D01*
X12956000Y123377000D01*
X12956000Y121977000D01*
G37*
G36*
X12956000Y147877000D02*
G01*
X12456000Y147877000D01*
X12456000Y149277000D01*
X12956000Y149277000D01*
X12956000Y147877000D01*
G37*
G36*
X12956000Y173777000D02*
G01*
X12456000Y173777000D01*
X12456000Y175177000D01*
X12956000Y175177000D01*
X12956000Y173777000D01*
G37*
G36*
X38856000Y18377000D02*
G01*
X38356000Y18377000D01*
X38356000Y19777000D01*
X38856000Y19777000D01*
X38856000Y18377000D01*
G37*
G36*
X38856000Y44277000D02*
G01*
X38356000Y44277000D01*
X38356000Y45677000D01*
X38856000Y45677000D01*
X38856000Y44277000D01*
G37*
G36*
X38856000Y70177000D02*
G01*
X38356000Y70177000D01*
X38356000Y71577000D01*
X38856000Y71577000D01*
X38856000Y70177000D01*
G37*
G36*
X38856000Y96077000D02*
G01*
X38356000Y96077000D01*
X38356000Y97477000D01*
X38856000Y97477000D01*
X38856000Y96077000D01*
G37*
G36*
X38856000Y121977000D02*
G01*
X38356000Y121977000D01*
X38356000Y123377000D01*
X38856000Y123377000D01*
X38856000Y121977000D01*
G37*
G36*
X38856000Y147877000D02*
G01*
X38356000Y147877000D01*
X38356000Y149277000D01*
X38856000Y149277000D01*
X38856000Y147877000D01*
G37*
G36*
X38856000Y173777000D02*
G01*
X38356000Y173777000D01*
X38356000Y175177000D01*
X38856000Y175177000D01*
X38856000Y173777000D01*
G37*
G36*
X64756000Y18377000D02*
G01*
X64256000Y18377000D01*
X64256000Y19777000D01*
X64756000Y19777000D01*
X64756000Y18377000D01*
G37*
G36*
X64756000Y44277000D02*
G01*
X64256000Y44277000D01*
X64256000Y45677000D01*
X64756000Y45677000D01*
X64756000Y44277000D01*
G37*
G36*
X64756000Y70177000D02*
G01*
X64256000Y70177000D01*
X64256000Y71577000D01*
X64756000Y71577000D01*
X64756000Y70177000D01*
G37*
G36*
X64756000Y96077000D02*
G01*
X64256000Y96077000D01*
X64256000Y97477000D01*
X64756000Y97477000D01*
X64756000Y96077000D01*
G37*
G36*
X64756000Y121977000D02*
G01*
X64256000Y121977000D01*
X64256000Y123377000D01*
X64756000Y123377000D01*
X64756000Y121977000D01*
G37*
G36*
X64756000Y147877000D02*
G01*
X64256000Y147877000D01*
X64256000Y149277000D01*
X64756000Y149277000D01*
X64756000Y147877000D01*
G37*
G36*
X64756000Y173777000D02*
G01*
X64256000Y173777000D01*
X64256000Y175177000D01*
X64756000Y175177000D01*
X64756000Y173777000D01*
G37*
G36*
X90656000Y18377000D02*
G01*
X90156000Y18377000D01*
X90156000Y19777000D01*
X90656000Y19777000D01*
X90656000Y18377000D01*
G37*
G36*
X90656000Y44277000D02*
G01*
X90156000Y44277000D01*
X90156000Y45677000D01*
X90656000Y45677000D01*
X90656000Y44277000D01*
G37*
G36*
X90656000Y70177000D02*
G01*
X90156000Y70177000D01*
X90156000Y71577000D01*
X90656000Y71577000D01*
X90656000Y70177000D01*
G37*
G36*
X90656000Y96077000D02*
G01*
X90156000Y96077000D01*
X90156000Y97477000D01*
X90656000Y97477000D01*
X90656000Y96077000D01*
G37*
G36*
X90656000Y121977000D02*
G01*
X90156000Y121977000D01*
X90156000Y123377000D01*
X90656000Y123377000D01*
X90656000Y121977000D01*
G37*
G36*
X90656000Y147877000D02*
G01*
X90156000Y147877000D01*
X90156000Y149277000D01*
X90656000Y149277000D01*
X90656000Y147877000D01*
G37*
G36*
X90656000Y173777000D02*
G01*
X90156000Y173777000D01*
X90156000Y175177000D01*
X90656000Y175177000D01*
X90656000Y173777000D01*
G37*
G36*
X116556000Y18377000D02*
G01*
X116056000Y18377000D01*
X116056000Y19777000D01*
X116556000Y19777000D01*
X116556000Y18377000D01*
G37*
G36*
X116556000Y44277000D02*
G01*
X116056000Y44277000D01*
X116056000Y45677000D01*
X116556000Y45677000D01*
X116556000Y44277000D01*
G37*
G36*
X116556000Y70177000D02*
G01*
X116056000Y70177000D01*
X116056000Y71577000D01*
X116556000Y71577000D01*
X116556000Y70177000D01*
G37*
G36*
X116556000Y96077000D02*
G01*
X116056000Y96077000D01*
X116056000Y97477000D01*
X116556000Y97477000D01*
X116556000Y96077000D01*
G37*
G36*
X116556000Y121977000D02*
G01*
X116056000Y121977000D01*
X116056000Y123377000D01*
X116556000Y123377000D01*
X116556000Y121977000D01*
G37*
G36*
X116556000Y147877000D02*
G01*
X116056000Y147877000D01*
X116056000Y149277000D01*
X116556000Y149277000D01*
X116556000Y147877000D01*
G37*
G36*
X116556000Y173777000D02*
G01*
X116056000Y173777000D01*
X116056000Y175177000D01*
X116556000Y175177000D01*
X116556000Y173777000D01*
G37*
%TD*%
D11*
%TO.C,D1*%
X3645000Y6350000D03*
X2070000Y6350000D03*
%TD*%
%TO.C,D1*%
X3645000Y32250000D03*
X2070000Y32250000D03*
%TD*%
%TO.C,D1*%
X3645000Y58150000D03*
X2070000Y58150000D03*
%TD*%
%TO.C,D1*%
X3645000Y84050000D03*
X2070000Y84050000D03*
%TD*%
%TO.C,D1*%
X3645000Y109950000D03*
X2070000Y109950000D03*
%TD*%
%TO.C,D1*%
X3645000Y135850000D03*
X2070000Y135850000D03*
%TD*%
%TO.C,D1*%
X3645000Y161750000D03*
X2070000Y161750000D03*
%TD*%
%TO.C,D1*%
X29545000Y6350000D03*
X27970000Y6350000D03*
%TD*%
%TO.C,D1*%
X29545000Y32250000D03*
X27970000Y32250000D03*
%TD*%
%TO.C,D1*%
X29545000Y58150000D03*
X27970000Y58150000D03*
%TD*%
%TO.C,D1*%
X29545000Y84050000D03*
X27970000Y84050000D03*
%TD*%
%TO.C,D1*%
X29545000Y109950000D03*
X27970000Y109950000D03*
%TD*%
%TO.C,D1*%
X29545000Y135850000D03*
X27970000Y135850000D03*
%TD*%
%TO.C,D1*%
X29545000Y161750000D03*
X27970000Y161750000D03*
%TD*%
%TO.C,D1*%
X55445000Y6350000D03*
X53870000Y6350000D03*
%TD*%
%TO.C,D1*%
X55445000Y32250000D03*
X53870000Y32250000D03*
%TD*%
%TO.C,D1*%
X55445000Y58150000D03*
X53870000Y58150000D03*
%TD*%
%TO.C,D1*%
X55445000Y84050000D03*
X53870000Y84050000D03*
%TD*%
%TO.C,D1*%
X55445000Y109950000D03*
X53870000Y109950000D03*
%TD*%
%TO.C,D1*%
X55445000Y135850000D03*
X53870000Y135850000D03*
%TD*%
%TO.C,D1*%
X55445000Y161750000D03*
X53870000Y161750000D03*
%TD*%
%TO.C,D1*%
X81345000Y6350000D03*
X79770000Y6350000D03*
%TD*%
%TO.C,D1*%
X81345000Y32250000D03*
X79770000Y32250000D03*
%TD*%
%TO.C,D1*%
X81345000Y58150000D03*
X79770000Y58150000D03*
%TD*%
%TO.C,D1*%
X81345000Y84050000D03*
X79770000Y84050000D03*
%TD*%
%TO.C,D1*%
X81345000Y109950000D03*
X79770000Y109950000D03*
%TD*%
%TO.C,D1*%
X81345000Y135850000D03*
X79770000Y135850000D03*
%TD*%
%TO.C,D1*%
X81345000Y161750000D03*
X79770000Y161750000D03*
%TD*%
%TO.C,D1*%
X107245000Y6350000D03*
X105670000Y6350000D03*
%TD*%
%TO.C,D1*%
X107245000Y32250000D03*
X105670000Y32250000D03*
%TD*%
%TO.C,D1*%
X107245000Y58150000D03*
X105670000Y58150000D03*
%TD*%
%TO.C,D1*%
X107245000Y84050000D03*
X105670000Y84050000D03*
%TD*%
%TO.C,D1*%
X107245000Y109950000D03*
X105670000Y109950000D03*
%TD*%
%TO.C,D1*%
X107245000Y135850000D03*
X105670000Y135850000D03*
%TD*%
%TO.C,D1*%
X107245000Y161750000D03*
X105670000Y161750000D03*
%TD*%
D12*
%TO.C,R2*%
X21272500Y17082500D03*
X21272500Y18732500D03*
%TD*%
%TO.C,R2*%
X21272500Y42982500D03*
X21272500Y44632500D03*
%TD*%
%TO.C,R2*%
X21272500Y68882500D03*
X21272500Y70532500D03*
%TD*%
%TO.C,R2*%
X21272500Y94782500D03*
X21272500Y96432500D03*
%TD*%
%TO.C,R2*%
X21272500Y120682500D03*
X21272500Y122332500D03*
%TD*%
%TO.C,R2*%
X21272500Y146582500D03*
X21272500Y148232500D03*
%TD*%
%TO.C,R2*%
X21272500Y172482500D03*
X21272500Y174132500D03*
%TD*%
%TO.C,R2*%
X47172500Y17082500D03*
X47172500Y18732500D03*
%TD*%
%TO.C,R2*%
X47172500Y42982500D03*
X47172500Y44632500D03*
%TD*%
%TO.C,R2*%
X47172500Y68882500D03*
X47172500Y70532500D03*
%TD*%
%TO.C,R2*%
X47172500Y94782500D03*
X47172500Y96432500D03*
%TD*%
%TO.C,R2*%
X47172500Y120682500D03*
X47172500Y122332500D03*
%TD*%
%TO.C,R2*%
X47172500Y146582500D03*
X47172500Y148232500D03*
%TD*%
%TO.C,R2*%
X47172500Y172482500D03*
X47172500Y174132500D03*
%TD*%
%TO.C,R2*%
X73072500Y17082500D03*
X73072500Y18732500D03*
%TD*%
%TO.C,R2*%
X73072500Y42982500D03*
X73072500Y44632500D03*
%TD*%
%TO.C,R2*%
X73072500Y68882500D03*
X73072500Y70532500D03*
%TD*%
%TO.C,R2*%
X73072500Y94782500D03*
X73072500Y96432500D03*
%TD*%
%TO.C,R2*%
X73072500Y120682500D03*
X73072500Y122332500D03*
%TD*%
%TO.C,R2*%
X73072500Y146582500D03*
X73072500Y148232500D03*
%TD*%
%TO.C,R2*%
X73072500Y172482500D03*
X73072500Y174132500D03*
%TD*%
%TO.C,R2*%
X98972500Y17082500D03*
X98972500Y18732500D03*
%TD*%
%TO.C,R2*%
X98972500Y42982500D03*
X98972500Y44632500D03*
%TD*%
%TO.C,R2*%
X98972500Y68882500D03*
X98972500Y70532500D03*
%TD*%
%TO.C,R2*%
X98972500Y94782500D03*
X98972500Y96432500D03*
%TD*%
%TO.C,R2*%
X98972500Y120682500D03*
X98972500Y122332500D03*
%TD*%
%TO.C,R2*%
X98972500Y146582500D03*
X98972500Y148232500D03*
%TD*%
%TO.C,R2*%
X98972500Y172482500D03*
X98972500Y174132500D03*
%TD*%
%TO.C,R2*%
X124872500Y17082500D03*
X124872500Y18732500D03*
%TD*%
%TO.C,R2*%
X124872500Y42982500D03*
X124872500Y44632500D03*
%TD*%
%TO.C,R2*%
X124872500Y68882500D03*
X124872500Y70532500D03*
%TD*%
%TO.C,R2*%
X124872500Y94782500D03*
X124872500Y96432500D03*
%TD*%
%TO.C,R2*%
X124872500Y120682500D03*
X124872500Y122332500D03*
%TD*%
%TO.C,R2*%
X124872500Y146582500D03*
X124872500Y148232500D03*
%TD*%
%TO.C,R2*%
X124872500Y172482500D03*
X124872500Y174132500D03*
%TD*%
D13*
%TO.C,C3*%
X14922500Y18275000D03*
X14922500Y19825000D03*
%TD*%
%TO.C,C3*%
X66722500Y70075000D03*
X66722500Y71625000D03*
%TD*%
%TO.C,C3*%
X14922500Y44175000D03*
X14922500Y45725000D03*
%TD*%
%TO.C,C3*%
X14922500Y70075000D03*
X14922500Y71625000D03*
%TD*%
%TO.C,C3*%
X14922500Y95975000D03*
X14922500Y97525000D03*
%TD*%
%TO.C,C3*%
X14922500Y121875000D03*
X14922500Y123425000D03*
%TD*%
%TO.C,C3*%
X14922500Y147775000D03*
X14922500Y149325000D03*
%TD*%
%TO.C,C3*%
X14922500Y173675000D03*
X14922500Y175225000D03*
%TD*%
%TO.C,C3*%
X40822500Y18275000D03*
X40822500Y19825000D03*
%TD*%
%TO.C,C3*%
X40822500Y44175000D03*
X40822500Y45725000D03*
%TD*%
%TO.C,C3*%
X40822500Y70075000D03*
X40822500Y71625000D03*
%TD*%
%TO.C,C3*%
X40822500Y95975000D03*
X40822500Y97525000D03*
%TD*%
%TO.C,C3*%
X40822500Y121875000D03*
X40822500Y123425000D03*
%TD*%
%TO.C,C3*%
X40822500Y147775000D03*
X40822500Y149325000D03*
%TD*%
%TO.C,C3*%
X40822500Y173675000D03*
X40822500Y175225000D03*
%TD*%
%TO.C,C3*%
X66722500Y18275000D03*
X66722500Y19825000D03*
%TD*%
%TO.C,C3*%
X66722500Y44175000D03*
X66722500Y45725000D03*
%TD*%
%TO.C,C3*%
X66722500Y95975000D03*
X66722500Y97525000D03*
%TD*%
%TO.C,C3*%
X66722500Y121875000D03*
X66722500Y123425000D03*
%TD*%
%TO.C,C3*%
X66722500Y147775000D03*
X66722500Y149325000D03*
%TD*%
%TO.C,C3*%
X66722500Y173675000D03*
X66722500Y175225000D03*
%TD*%
%TO.C,C3*%
X92622500Y18275000D03*
X92622500Y19825000D03*
%TD*%
%TO.C,C3*%
X92622500Y44175000D03*
X92622500Y45725000D03*
%TD*%
%TO.C,C3*%
X92622500Y70075000D03*
X92622500Y71625000D03*
%TD*%
%TO.C,C3*%
X92622500Y95975000D03*
X92622500Y97525000D03*
%TD*%
%TO.C,C3*%
X92622500Y121875000D03*
X92622500Y123425000D03*
%TD*%
%TO.C,C3*%
X92622500Y147775000D03*
X92622500Y149325000D03*
%TD*%
%TO.C,C3*%
X92622500Y173675000D03*
X92622500Y175225000D03*
%TD*%
%TO.C,C3*%
X118522500Y18275000D03*
X118522500Y19825000D03*
%TD*%
%TO.C,C3*%
X118522500Y44175000D03*
X118522500Y45725000D03*
%TD*%
%TO.C,C3*%
X118522500Y70075000D03*
X118522500Y71625000D03*
%TD*%
%TO.C,C3*%
X118522500Y95975000D03*
X118522500Y97525000D03*
%TD*%
%TO.C,C3*%
X118522500Y121875000D03*
X118522500Y123425000D03*
%TD*%
%TO.C,C3*%
X118522500Y147775000D03*
X118522500Y149325000D03*
%TD*%
%TO.C,C3*%
X118522500Y173675000D03*
X118522500Y175225000D03*
%TD*%
D12*
%TO.C,R3*%
X22860000Y17082500D03*
X22860000Y18732500D03*
%TD*%
%TO.C,R3*%
X22860000Y42982500D03*
X22860000Y44632500D03*
%TD*%
%TO.C,R3*%
X22860000Y68882500D03*
X22860000Y70532500D03*
%TD*%
%TO.C,R3*%
X22860000Y94782500D03*
X22860000Y96432500D03*
%TD*%
%TO.C,R3*%
X22860000Y120682500D03*
X22860000Y122332500D03*
%TD*%
%TO.C,R3*%
X22860000Y146582500D03*
X22860000Y148232500D03*
%TD*%
%TO.C,R3*%
X22860000Y172482500D03*
X22860000Y174132500D03*
%TD*%
%TO.C,R3*%
X48760000Y17082500D03*
X48760000Y18732500D03*
%TD*%
%TO.C,R3*%
X48760000Y42982500D03*
X48760000Y44632500D03*
%TD*%
%TO.C,R3*%
X48760000Y68882500D03*
X48760000Y70532500D03*
%TD*%
%TO.C,R3*%
X48760000Y94782500D03*
X48760000Y96432500D03*
%TD*%
%TO.C,R3*%
X48760000Y120682500D03*
X48760000Y122332500D03*
%TD*%
%TO.C,R3*%
X48760000Y146582500D03*
X48760000Y148232500D03*
%TD*%
%TO.C,R3*%
X48760000Y172482500D03*
X48760000Y174132500D03*
%TD*%
%TO.C,R3*%
X74660000Y17082500D03*
X74660000Y18732500D03*
%TD*%
%TO.C,R3*%
X74660000Y42982500D03*
X74660000Y44632500D03*
%TD*%
%TO.C,R3*%
X74660000Y68882500D03*
X74660000Y70532500D03*
%TD*%
%TO.C,R3*%
X74660000Y94782500D03*
X74660000Y96432500D03*
%TD*%
%TO.C,R3*%
X74660000Y120682500D03*
X74660000Y122332500D03*
%TD*%
%TO.C,R3*%
X74660000Y146582500D03*
X74660000Y148232500D03*
%TD*%
%TO.C,R3*%
X74660000Y172482500D03*
X74660000Y174132500D03*
%TD*%
%TO.C,R3*%
X100560000Y17082500D03*
X100560000Y18732500D03*
%TD*%
%TO.C,R3*%
X100560000Y42982500D03*
X100560000Y44632500D03*
%TD*%
%TO.C,R3*%
X100560000Y68882500D03*
X100560000Y70532500D03*
%TD*%
%TO.C,R3*%
X100560000Y94782500D03*
X100560000Y96432500D03*
%TD*%
%TO.C,R3*%
X100560000Y120682500D03*
X100560000Y122332500D03*
%TD*%
%TO.C,R3*%
X100560000Y146582500D03*
X100560000Y148232500D03*
%TD*%
%TO.C,R3*%
X100560000Y172482500D03*
X100560000Y174132500D03*
%TD*%
%TO.C,R3*%
X126460000Y17082500D03*
X126460000Y18732500D03*
%TD*%
%TO.C,R3*%
X126460000Y42982500D03*
X126460000Y44632500D03*
%TD*%
%TO.C,R3*%
X126460000Y68882500D03*
X126460000Y70532500D03*
%TD*%
%TO.C,R3*%
X126460000Y94782500D03*
X126460000Y96432500D03*
%TD*%
%TO.C,R3*%
X126460000Y120682500D03*
X126460000Y122332500D03*
%TD*%
%TO.C,R3*%
X126460000Y146582500D03*
X126460000Y148232500D03*
%TD*%
%TO.C,R3*%
X126460000Y172482500D03*
X126460000Y174132500D03*
%TD*%
D14*
%TO.C,J5*%
X4882500Y14200000D03*
X4882500Y13200000D03*
X4882500Y12200000D03*
X4882500Y11200000D03*
D15*
X1207500Y9900000D03*
X1207500Y15500000D03*
%TD*%
D14*
%TO.C,J5*%
X56682500Y66000000D03*
X56682500Y65000000D03*
X56682500Y64000000D03*
X56682500Y63000000D03*
D15*
X53007500Y61700000D03*
X53007500Y67300000D03*
%TD*%
D14*
%TO.C,J5*%
X4882500Y40100000D03*
X4882500Y39100000D03*
X4882500Y38100000D03*
X4882500Y37100000D03*
D15*
X1207500Y35800000D03*
X1207500Y41400000D03*
%TD*%
D14*
%TO.C,J5*%
X4882500Y66000000D03*
X4882500Y65000000D03*
X4882500Y64000000D03*
X4882500Y63000000D03*
D15*
X1207500Y61700000D03*
X1207500Y67300000D03*
%TD*%
D14*
%TO.C,J5*%
X4882500Y91900000D03*
X4882500Y90900000D03*
X4882500Y89900000D03*
X4882500Y88900000D03*
D15*
X1207500Y87600000D03*
X1207500Y93200000D03*
%TD*%
D14*
%TO.C,J5*%
X4882500Y117800000D03*
X4882500Y116800000D03*
X4882500Y115800000D03*
X4882500Y114800000D03*
D15*
X1207500Y113500000D03*
X1207500Y119100000D03*
%TD*%
D14*
%TO.C,J5*%
X4882500Y143700000D03*
X4882500Y142700000D03*
X4882500Y141700000D03*
X4882500Y140700000D03*
D15*
X1207500Y139400000D03*
X1207500Y145000000D03*
%TD*%
D14*
%TO.C,J5*%
X4882500Y169600000D03*
X4882500Y168600000D03*
X4882500Y167600000D03*
X4882500Y166600000D03*
D15*
X1207500Y165300000D03*
X1207500Y170900000D03*
%TD*%
D14*
%TO.C,J5*%
X30782500Y14200000D03*
X30782500Y13200000D03*
X30782500Y12200000D03*
X30782500Y11200000D03*
D15*
X27107500Y9900000D03*
X27107500Y15500000D03*
%TD*%
D14*
%TO.C,J5*%
X30782500Y40100000D03*
X30782500Y39100000D03*
X30782500Y38100000D03*
X30782500Y37100000D03*
D15*
X27107500Y35800000D03*
X27107500Y41400000D03*
%TD*%
D14*
%TO.C,J5*%
X30782500Y66000000D03*
X30782500Y65000000D03*
X30782500Y64000000D03*
X30782500Y63000000D03*
D15*
X27107500Y61700000D03*
X27107500Y67300000D03*
%TD*%
D14*
%TO.C,J5*%
X30782500Y91900000D03*
X30782500Y90900000D03*
X30782500Y89900000D03*
X30782500Y88900000D03*
D15*
X27107500Y87600000D03*
X27107500Y93200000D03*
%TD*%
D14*
%TO.C,J5*%
X30782500Y117800000D03*
X30782500Y116800000D03*
X30782500Y115800000D03*
X30782500Y114800000D03*
D15*
X27107500Y113500000D03*
X27107500Y119100000D03*
%TD*%
D14*
%TO.C,J5*%
X30782500Y143700000D03*
X30782500Y142700000D03*
X30782500Y141700000D03*
X30782500Y140700000D03*
D15*
X27107500Y139400000D03*
X27107500Y145000000D03*
%TD*%
D14*
%TO.C,J5*%
X30782500Y169600000D03*
X30782500Y168600000D03*
X30782500Y167600000D03*
X30782500Y166600000D03*
D15*
X27107500Y165300000D03*
X27107500Y170900000D03*
%TD*%
D14*
%TO.C,J5*%
X56682500Y14200000D03*
X56682500Y13200000D03*
X56682500Y12200000D03*
X56682500Y11200000D03*
D15*
X53007500Y9900000D03*
X53007500Y15500000D03*
%TD*%
D14*
%TO.C,J5*%
X56682500Y40100000D03*
X56682500Y39100000D03*
X56682500Y38100000D03*
X56682500Y37100000D03*
D15*
X53007500Y35800000D03*
X53007500Y41400000D03*
%TD*%
D14*
%TO.C,J5*%
X56682500Y91900000D03*
X56682500Y90900000D03*
X56682500Y89900000D03*
X56682500Y88900000D03*
D15*
X53007500Y87600000D03*
X53007500Y93200000D03*
%TD*%
D14*
%TO.C,J5*%
X56682500Y117800000D03*
X56682500Y116800000D03*
X56682500Y115800000D03*
X56682500Y114800000D03*
D15*
X53007500Y113500000D03*
X53007500Y119100000D03*
%TD*%
D14*
%TO.C,J5*%
X56682500Y143700000D03*
X56682500Y142700000D03*
X56682500Y141700000D03*
X56682500Y140700000D03*
D15*
X53007500Y139400000D03*
X53007500Y145000000D03*
%TD*%
D14*
%TO.C,J5*%
X56682500Y169600000D03*
X56682500Y168600000D03*
X56682500Y167600000D03*
X56682500Y166600000D03*
D15*
X53007500Y165300000D03*
X53007500Y170900000D03*
%TD*%
D14*
%TO.C,J5*%
X82582500Y14200000D03*
X82582500Y13200000D03*
X82582500Y12200000D03*
X82582500Y11200000D03*
D15*
X78907500Y9900000D03*
X78907500Y15500000D03*
%TD*%
D14*
%TO.C,J5*%
X82582500Y40100000D03*
X82582500Y39100000D03*
X82582500Y38100000D03*
X82582500Y37100000D03*
D15*
X78907500Y35800000D03*
X78907500Y41400000D03*
%TD*%
D14*
%TO.C,J5*%
X82582500Y66000000D03*
X82582500Y65000000D03*
X82582500Y64000000D03*
X82582500Y63000000D03*
D15*
X78907500Y61700000D03*
X78907500Y67300000D03*
%TD*%
D14*
%TO.C,J5*%
X82582500Y91900000D03*
X82582500Y90900000D03*
X82582500Y89900000D03*
X82582500Y88900000D03*
D15*
X78907500Y87600000D03*
X78907500Y93200000D03*
%TD*%
D14*
%TO.C,J5*%
X82582500Y117800000D03*
X82582500Y116800000D03*
X82582500Y115800000D03*
X82582500Y114800000D03*
D15*
X78907500Y113500000D03*
X78907500Y119100000D03*
%TD*%
D14*
%TO.C,J5*%
X82582500Y143700000D03*
X82582500Y142700000D03*
X82582500Y141700000D03*
X82582500Y140700000D03*
D15*
X78907500Y139400000D03*
X78907500Y145000000D03*
%TD*%
D14*
%TO.C,J5*%
X82582500Y169600000D03*
X82582500Y168600000D03*
X82582500Y167600000D03*
X82582500Y166600000D03*
D15*
X78907500Y165300000D03*
X78907500Y170900000D03*
%TD*%
D14*
%TO.C,J5*%
X108482500Y14200000D03*
X108482500Y13200000D03*
X108482500Y12200000D03*
X108482500Y11200000D03*
D15*
X104807500Y9900000D03*
X104807500Y15500000D03*
%TD*%
D14*
%TO.C,J5*%
X108482500Y40100000D03*
X108482500Y39100000D03*
X108482500Y38100000D03*
X108482500Y37100000D03*
D15*
X104807500Y35800000D03*
X104807500Y41400000D03*
%TD*%
D14*
%TO.C,J5*%
X108482500Y66000000D03*
X108482500Y65000000D03*
X108482500Y64000000D03*
X108482500Y63000000D03*
D15*
X104807500Y61700000D03*
X104807500Y67300000D03*
%TD*%
D14*
%TO.C,J5*%
X108482500Y91900000D03*
X108482500Y90900000D03*
X108482500Y89900000D03*
X108482500Y88900000D03*
D15*
X104807500Y87600000D03*
X104807500Y93200000D03*
%TD*%
D14*
%TO.C,J5*%
X108482500Y117800000D03*
X108482500Y116800000D03*
X108482500Y115800000D03*
X108482500Y114800000D03*
D15*
X104807500Y113500000D03*
X104807500Y119100000D03*
%TD*%
D14*
%TO.C,J5*%
X108482500Y143700000D03*
X108482500Y142700000D03*
X108482500Y141700000D03*
X108482500Y140700000D03*
D15*
X104807500Y139400000D03*
X104807500Y145000000D03*
%TD*%
D14*
%TO.C,J5*%
X108482500Y169600000D03*
X108482500Y168600000D03*
X108482500Y167600000D03*
X108482500Y166600000D03*
D15*
X104807500Y165300000D03*
X104807500Y170900000D03*
%TD*%
D16*
%TO.C,R4*%
X13525000Y6667500D03*
X11875000Y6667500D03*
%TD*%
%TO.C,R4*%
X117125000Y6667500D03*
X115475000Y6667500D03*
%TD*%
%TO.C,R4*%
X13525000Y32567500D03*
X11875000Y32567500D03*
%TD*%
%TO.C,R4*%
X13525000Y58467500D03*
X11875000Y58467500D03*
%TD*%
%TO.C,R4*%
X13525000Y84367500D03*
X11875000Y84367500D03*
%TD*%
%TO.C,R4*%
X13525000Y110267500D03*
X11875000Y110267500D03*
%TD*%
%TO.C,R4*%
X13525000Y136167500D03*
X11875000Y136167500D03*
%TD*%
%TO.C,R4*%
X13525000Y162067500D03*
X11875000Y162067500D03*
%TD*%
%TO.C,R4*%
X39425000Y6667500D03*
X37775000Y6667500D03*
%TD*%
%TO.C,R4*%
X39425000Y32567500D03*
X37775000Y32567500D03*
%TD*%
%TO.C,R4*%
X39425000Y58467500D03*
X37775000Y58467500D03*
%TD*%
%TO.C,R4*%
X39425000Y84367500D03*
X37775000Y84367500D03*
%TD*%
%TO.C,R4*%
X39425000Y110267500D03*
X37775000Y110267500D03*
%TD*%
%TO.C,R4*%
X39425000Y136167500D03*
X37775000Y136167500D03*
%TD*%
%TO.C,R4*%
X39425000Y162067500D03*
X37775000Y162067500D03*
%TD*%
%TO.C,R4*%
X65325000Y6667500D03*
X63675000Y6667500D03*
%TD*%
%TO.C,R4*%
X65325000Y32567500D03*
X63675000Y32567500D03*
%TD*%
%TO.C,R4*%
X65325000Y58467500D03*
X63675000Y58467500D03*
%TD*%
%TO.C,R4*%
X65325000Y84367500D03*
X63675000Y84367500D03*
%TD*%
%TO.C,R4*%
X65325000Y110267500D03*
X63675000Y110267500D03*
%TD*%
%TO.C,R4*%
X65325000Y136167500D03*
X63675000Y136167500D03*
%TD*%
%TO.C,R4*%
X65325000Y162067500D03*
X63675000Y162067500D03*
%TD*%
%TO.C,R4*%
X91225000Y6667500D03*
X89575000Y6667500D03*
%TD*%
%TO.C,R4*%
X91225000Y32567500D03*
X89575000Y32567500D03*
%TD*%
%TO.C,R4*%
X91225000Y58467500D03*
X89575000Y58467500D03*
%TD*%
%TO.C,R4*%
X91225000Y84367500D03*
X89575000Y84367500D03*
%TD*%
%TO.C,R4*%
X91225000Y110267500D03*
X89575000Y110267500D03*
%TD*%
%TO.C,R4*%
X91225000Y136167500D03*
X89575000Y136167500D03*
%TD*%
%TO.C,R4*%
X91225000Y162067500D03*
X89575000Y162067500D03*
%TD*%
%TO.C,R4*%
X117125000Y32567500D03*
X115475000Y32567500D03*
%TD*%
%TO.C,R4*%
X117125000Y58467500D03*
X115475000Y58467500D03*
%TD*%
%TO.C,R4*%
X117125000Y84367500D03*
X115475000Y84367500D03*
%TD*%
%TO.C,R4*%
X117125000Y110267500D03*
X115475000Y110267500D03*
%TD*%
%TO.C,R4*%
X117125000Y136167500D03*
X115475000Y136167500D03*
%TD*%
%TO.C,R4*%
X117125000Y162067500D03*
X115475000Y162067500D03*
%TD*%
%TO.C,R5*%
X13525000Y9842500D03*
X11875000Y9842500D03*
%TD*%
%TO.C,R5*%
X13525000Y35742500D03*
X11875000Y35742500D03*
%TD*%
%TO.C,R5*%
X13525000Y61642500D03*
X11875000Y61642500D03*
%TD*%
%TO.C,R5*%
X13525000Y87542500D03*
X11875000Y87542500D03*
%TD*%
%TO.C,R5*%
X13525000Y113442500D03*
X11875000Y113442500D03*
%TD*%
%TO.C,R5*%
X13525000Y139342500D03*
X11875000Y139342500D03*
%TD*%
%TO.C,R5*%
X13525000Y165242500D03*
X11875000Y165242500D03*
%TD*%
%TO.C,R5*%
X39425000Y9842500D03*
X37775000Y9842500D03*
%TD*%
%TO.C,R5*%
X39425000Y35742500D03*
X37775000Y35742500D03*
%TD*%
%TO.C,R5*%
X39425000Y61642500D03*
X37775000Y61642500D03*
%TD*%
%TO.C,R5*%
X39425000Y87542500D03*
X37775000Y87542500D03*
%TD*%
%TO.C,R5*%
X39425000Y113442500D03*
X37775000Y113442500D03*
%TD*%
%TO.C,R5*%
X39425000Y139342500D03*
X37775000Y139342500D03*
%TD*%
%TO.C,R5*%
X39425000Y165242500D03*
X37775000Y165242500D03*
%TD*%
%TO.C,R5*%
X65325000Y9842500D03*
X63675000Y9842500D03*
%TD*%
%TO.C,R5*%
X65325000Y35742500D03*
X63675000Y35742500D03*
%TD*%
%TO.C,R5*%
X65325000Y61642500D03*
X63675000Y61642500D03*
%TD*%
%TO.C,R5*%
X65325000Y87542500D03*
X63675000Y87542500D03*
%TD*%
%TO.C,R5*%
X65325000Y113442500D03*
X63675000Y113442500D03*
%TD*%
%TO.C,R5*%
X65325000Y139342500D03*
X63675000Y139342500D03*
%TD*%
%TO.C,R5*%
X65325000Y165242500D03*
X63675000Y165242500D03*
%TD*%
%TO.C,R5*%
X91225000Y9842500D03*
X89575000Y9842500D03*
%TD*%
%TO.C,R5*%
X91225000Y35742500D03*
X89575000Y35742500D03*
%TD*%
%TO.C,R5*%
X91225000Y61642500D03*
X89575000Y61642500D03*
%TD*%
%TO.C,R5*%
X91225000Y87542500D03*
X89575000Y87542500D03*
%TD*%
%TO.C,R5*%
X91225000Y113442500D03*
X89575000Y113442500D03*
%TD*%
%TO.C,R5*%
X91225000Y139342500D03*
X89575000Y139342500D03*
%TD*%
%TO.C,R5*%
X91225000Y165242500D03*
X89575000Y165242500D03*
%TD*%
%TO.C,R5*%
X117125000Y9842500D03*
X115475000Y9842500D03*
%TD*%
%TO.C,R5*%
X117125000Y35742500D03*
X115475000Y35742500D03*
%TD*%
%TO.C,R5*%
X117125000Y61642500D03*
X115475000Y61642500D03*
%TD*%
%TO.C,R5*%
X117125000Y87542500D03*
X115475000Y87542500D03*
%TD*%
%TO.C,R5*%
X117125000Y113442500D03*
X115475000Y113442500D03*
%TD*%
%TO.C,R5*%
X117125000Y139342500D03*
X115475000Y139342500D03*
%TD*%
%TO.C,R5*%
X117125000Y165242500D03*
X115475000Y165242500D03*
%TD*%
D17*
%TO.C,U4*%
X13631000Y18577000D03*
X13631000Y19577000D03*
X11781000Y19577000D03*
X11781000Y18577000D03*
%TD*%
%TO.C,U4*%
X13631000Y44477000D03*
X13631000Y45477000D03*
X11781000Y45477000D03*
X11781000Y44477000D03*
%TD*%
%TO.C,U4*%
X13631000Y70377000D03*
X13631000Y71377000D03*
X11781000Y71377000D03*
X11781000Y70377000D03*
%TD*%
%TO.C,U4*%
X13631000Y96277000D03*
X13631000Y97277000D03*
X11781000Y97277000D03*
X11781000Y96277000D03*
%TD*%
%TO.C,U4*%
X13631000Y122177000D03*
X13631000Y123177000D03*
X11781000Y123177000D03*
X11781000Y122177000D03*
%TD*%
%TO.C,U4*%
X13631000Y148077000D03*
X13631000Y149077000D03*
X11781000Y149077000D03*
X11781000Y148077000D03*
%TD*%
%TO.C,U4*%
X13631000Y173977000D03*
X13631000Y174977000D03*
X11781000Y174977000D03*
X11781000Y173977000D03*
%TD*%
%TO.C,U4*%
X39531000Y18577000D03*
X39531000Y19577000D03*
X37681000Y19577000D03*
X37681000Y18577000D03*
%TD*%
%TO.C,U4*%
X39531000Y44477000D03*
X39531000Y45477000D03*
X37681000Y45477000D03*
X37681000Y44477000D03*
%TD*%
%TO.C,U4*%
X39531000Y70377000D03*
X39531000Y71377000D03*
X37681000Y71377000D03*
X37681000Y70377000D03*
%TD*%
%TO.C,U4*%
X39531000Y96277000D03*
X39531000Y97277000D03*
X37681000Y97277000D03*
X37681000Y96277000D03*
%TD*%
%TO.C,U4*%
X39531000Y122177000D03*
X39531000Y123177000D03*
X37681000Y123177000D03*
X37681000Y122177000D03*
%TD*%
%TO.C,U4*%
X39531000Y148077000D03*
X39531000Y149077000D03*
X37681000Y149077000D03*
X37681000Y148077000D03*
%TD*%
%TO.C,U4*%
X39531000Y173977000D03*
X39531000Y174977000D03*
X37681000Y174977000D03*
X37681000Y173977000D03*
%TD*%
%TO.C,U4*%
X65431000Y18577000D03*
X65431000Y19577000D03*
X63581000Y19577000D03*
X63581000Y18577000D03*
%TD*%
%TO.C,U4*%
X65431000Y44477000D03*
X65431000Y45477000D03*
X63581000Y45477000D03*
X63581000Y44477000D03*
%TD*%
%TO.C,U4*%
X65431000Y70377000D03*
X65431000Y71377000D03*
X63581000Y71377000D03*
X63581000Y70377000D03*
%TD*%
%TO.C,U4*%
X65431000Y96277000D03*
X65431000Y97277000D03*
X63581000Y97277000D03*
X63581000Y96277000D03*
%TD*%
%TO.C,U4*%
X65431000Y122177000D03*
X65431000Y123177000D03*
X63581000Y123177000D03*
X63581000Y122177000D03*
%TD*%
%TO.C,U4*%
X65431000Y148077000D03*
X65431000Y149077000D03*
X63581000Y149077000D03*
X63581000Y148077000D03*
%TD*%
%TO.C,U4*%
X65431000Y173977000D03*
X65431000Y174977000D03*
X63581000Y174977000D03*
X63581000Y173977000D03*
%TD*%
%TO.C,U4*%
X91331000Y18577000D03*
X91331000Y19577000D03*
X89481000Y19577000D03*
X89481000Y18577000D03*
%TD*%
%TO.C,U4*%
X91331000Y44477000D03*
X91331000Y45477000D03*
X89481000Y45477000D03*
X89481000Y44477000D03*
%TD*%
%TO.C,U4*%
X91331000Y70377000D03*
X91331000Y71377000D03*
X89481000Y71377000D03*
X89481000Y70377000D03*
%TD*%
%TO.C,U4*%
X91331000Y96277000D03*
X91331000Y97277000D03*
X89481000Y97277000D03*
X89481000Y96277000D03*
%TD*%
%TO.C,U4*%
X91331000Y122177000D03*
X91331000Y123177000D03*
X89481000Y123177000D03*
X89481000Y122177000D03*
%TD*%
%TO.C,U4*%
X91331000Y148077000D03*
X91331000Y149077000D03*
X89481000Y149077000D03*
X89481000Y148077000D03*
%TD*%
%TO.C,U4*%
X91331000Y173977000D03*
X91331000Y174977000D03*
X89481000Y174977000D03*
X89481000Y173977000D03*
%TD*%
%TO.C,U4*%
X117231000Y18577000D03*
X117231000Y19577000D03*
X115381000Y19577000D03*
X115381000Y18577000D03*
%TD*%
%TO.C,U4*%
X117231000Y44477000D03*
X117231000Y45477000D03*
X115381000Y45477000D03*
X115381000Y44477000D03*
%TD*%
%TO.C,U4*%
X117231000Y70377000D03*
X117231000Y71377000D03*
X115381000Y71377000D03*
X115381000Y70377000D03*
%TD*%
%TO.C,U4*%
X117231000Y96277000D03*
X117231000Y97277000D03*
X115381000Y97277000D03*
X115381000Y96277000D03*
%TD*%
%TO.C,U4*%
X117231000Y122177000D03*
X117231000Y123177000D03*
X115381000Y123177000D03*
X115381000Y122177000D03*
%TD*%
%TO.C,U4*%
X117231000Y148077000D03*
X117231000Y149077000D03*
X115381000Y149077000D03*
X115381000Y148077000D03*
%TD*%
%TO.C,U4*%
X117231000Y173977000D03*
X117231000Y174977000D03*
X115381000Y174977000D03*
X115381000Y173977000D03*
%TD*%
D14*
%TO.C,J3*%
X20517500Y11200000D03*
X20517500Y12200000D03*
X20517500Y13200000D03*
X20517500Y14200000D03*
D15*
X24192500Y15500000D03*
X24192500Y9900000D03*
%TD*%
D14*
%TO.C,J3*%
X20517500Y37100000D03*
X20517500Y38100000D03*
X20517500Y39100000D03*
X20517500Y40100000D03*
D15*
X24192500Y41400000D03*
X24192500Y35800000D03*
%TD*%
D14*
%TO.C,J3*%
X20517500Y63000000D03*
X20517500Y64000000D03*
X20517500Y65000000D03*
X20517500Y66000000D03*
D15*
X24192500Y67300000D03*
X24192500Y61700000D03*
%TD*%
D14*
%TO.C,J3*%
X20517500Y88900000D03*
X20517500Y89900000D03*
X20517500Y90900000D03*
X20517500Y91900000D03*
D15*
X24192500Y93200000D03*
X24192500Y87600000D03*
%TD*%
D14*
%TO.C,J3*%
X20517500Y114800000D03*
X20517500Y115800000D03*
X20517500Y116800000D03*
X20517500Y117800000D03*
D15*
X24192500Y119100000D03*
X24192500Y113500000D03*
%TD*%
D14*
%TO.C,J3*%
X20517500Y140700000D03*
X20517500Y141700000D03*
X20517500Y142700000D03*
X20517500Y143700000D03*
D15*
X24192500Y145000000D03*
X24192500Y139400000D03*
%TD*%
D14*
%TO.C,J3*%
X20517500Y166600000D03*
X20517500Y167600000D03*
X20517500Y168600000D03*
X20517500Y169600000D03*
D15*
X24192500Y170900000D03*
X24192500Y165300000D03*
%TD*%
D14*
%TO.C,J3*%
X46417500Y11200000D03*
X46417500Y12200000D03*
X46417500Y13200000D03*
X46417500Y14200000D03*
D15*
X50092500Y15500000D03*
X50092500Y9900000D03*
%TD*%
D14*
%TO.C,J3*%
X46417500Y37100000D03*
X46417500Y38100000D03*
X46417500Y39100000D03*
X46417500Y40100000D03*
D15*
X50092500Y41400000D03*
X50092500Y35800000D03*
%TD*%
D14*
%TO.C,J3*%
X46417500Y63000000D03*
X46417500Y64000000D03*
X46417500Y65000000D03*
X46417500Y66000000D03*
D15*
X50092500Y67300000D03*
X50092500Y61700000D03*
%TD*%
D14*
%TO.C,J3*%
X46417500Y88900000D03*
X46417500Y89900000D03*
X46417500Y90900000D03*
X46417500Y91900000D03*
D15*
X50092500Y93200000D03*
X50092500Y87600000D03*
%TD*%
D14*
%TO.C,J3*%
X46417500Y114800000D03*
X46417500Y115800000D03*
X46417500Y116800000D03*
X46417500Y117800000D03*
D15*
X50092500Y119100000D03*
X50092500Y113500000D03*
%TD*%
D14*
%TO.C,J3*%
X46417500Y140700000D03*
X46417500Y141700000D03*
X46417500Y142700000D03*
X46417500Y143700000D03*
D15*
X50092500Y145000000D03*
X50092500Y139400000D03*
%TD*%
D14*
%TO.C,J3*%
X46417500Y166600000D03*
X46417500Y167600000D03*
X46417500Y168600000D03*
X46417500Y169600000D03*
D15*
X50092500Y170900000D03*
X50092500Y165300000D03*
%TD*%
D14*
%TO.C,J3*%
X72317500Y11200000D03*
X72317500Y12200000D03*
X72317500Y13200000D03*
X72317500Y14200000D03*
D15*
X75992500Y15500000D03*
X75992500Y9900000D03*
%TD*%
D14*
%TO.C,J3*%
X72317500Y37100000D03*
X72317500Y38100000D03*
X72317500Y39100000D03*
X72317500Y40100000D03*
D15*
X75992500Y41400000D03*
X75992500Y35800000D03*
%TD*%
D14*
%TO.C,J3*%
X72317500Y63000000D03*
X72317500Y64000000D03*
X72317500Y65000000D03*
X72317500Y66000000D03*
D15*
X75992500Y67300000D03*
X75992500Y61700000D03*
%TD*%
D14*
%TO.C,J3*%
X72317500Y88900000D03*
X72317500Y89900000D03*
X72317500Y90900000D03*
X72317500Y91900000D03*
D15*
X75992500Y93200000D03*
X75992500Y87600000D03*
%TD*%
D14*
%TO.C,J3*%
X72317500Y114800000D03*
X72317500Y115800000D03*
X72317500Y116800000D03*
X72317500Y117800000D03*
D15*
X75992500Y119100000D03*
X75992500Y113500000D03*
%TD*%
D14*
%TO.C,J3*%
X72317500Y140700000D03*
X72317500Y141700000D03*
X72317500Y142700000D03*
X72317500Y143700000D03*
D15*
X75992500Y145000000D03*
X75992500Y139400000D03*
%TD*%
D14*
%TO.C,J3*%
X72317500Y166600000D03*
X72317500Y167600000D03*
X72317500Y168600000D03*
X72317500Y169600000D03*
D15*
X75992500Y170900000D03*
X75992500Y165300000D03*
%TD*%
D14*
%TO.C,J3*%
X98217500Y11200000D03*
X98217500Y12200000D03*
X98217500Y13200000D03*
X98217500Y14200000D03*
D15*
X101892500Y15500000D03*
X101892500Y9900000D03*
%TD*%
D14*
%TO.C,J3*%
X98217500Y37100000D03*
X98217500Y38100000D03*
X98217500Y39100000D03*
X98217500Y40100000D03*
D15*
X101892500Y41400000D03*
X101892500Y35800000D03*
%TD*%
D14*
%TO.C,J3*%
X98217500Y63000000D03*
X98217500Y64000000D03*
X98217500Y65000000D03*
X98217500Y66000000D03*
D15*
X101892500Y67300000D03*
X101892500Y61700000D03*
%TD*%
D14*
%TO.C,J3*%
X98217500Y88900000D03*
X98217500Y89900000D03*
X98217500Y90900000D03*
X98217500Y91900000D03*
D15*
X101892500Y93200000D03*
X101892500Y87600000D03*
%TD*%
D14*
%TO.C,J3*%
X98217500Y114800000D03*
X98217500Y115800000D03*
X98217500Y116800000D03*
X98217500Y117800000D03*
D15*
X101892500Y119100000D03*
X101892500Y113500000D03*
%TD*%
D14*
%TO.C,J3*%
X98217500Y140700000D03*
X98217500Y141700000D03*
X98217500Y142700000D03*
X98217500Y143700000D03*
D15*
X101892500Y145000000D03*
X101892500Y139400000D03*
%TD*%
D14*
%TO.C,J3*%
X98217500Y166600000D03*
X98217500Y167600000D03*
X98217500Y168600000D03*
X98217500Y169600000D03*
D15*
X101892500Y170900000D03*
X101892500Y165300000D03*
%TD*%
D14*
%TO.C,J3*%
X124117500Y11200000D03*
X124117500Y12200000D03*
X124117500Y13200000D03*
X124117500Y14200000D03*
D15*
X127792500Y15500000D03*
X127792500Y9900000D03*
%TD*%
D14*
%TO.C,J3*%
X124117500Y37100000D03*
X124117500Y38100000D03*
X124117500Y39100000D03*
X124117500Y40100000D03*
D15*
X127792500Y41400000D03*
X127792500Y35800000D03*
%TD*%
D14*
%TO.C,J3*%
X124117500Y63000000D03*
X124117500Y64000000D03*
X124117500Y65000000D03*
X124117500Y66000000D03*
D15*
X127792500Y67300000D03*
X127792500Y61700000D03*
%TD*%
D14*
%TO.C,J3*%
X124117500Y88900000D03*
X124117500Y89900000D03*
X124117500Y90900000D03*
X124117500Y91900000D03*
D15*
X127792500Y93200000D03*
X127792500Y87600000D03*
%TD*%
D14*
%TO.C,J3*%
X124117500Y114800000D03*
X124117500Y115800000D03*
X124117500Y116800000D03*
X124117500Y117800000D03*
D15*
X127792500Y119100000D03*
X127792500Y113500000D03*
%TD*%
D14*
%TO.C,J3*%
X124117500Y140700000D03*
X124117500Y141700000D03*
X124117500Y142700000D03*
X124117500Y143700000D03*
D15*
X127792500Y145000000D03*
X127792500Y139400000D03*
%TD*%
D14*
%TO.C,J3*%
X124117500Y166600000D03*
X124117500Y167600000D03*
X124117500Y168600000D03*
X124117500Y169600000D03*
D15*
X127792500Y170900000D03*
X127792500Y165300000D03*
%TD*%
D16*
%TO.C,R1*%
X13525000Y8255000D03*
X11875000Y8255000D03*
%TD*%
%TO.C,R1*%
X13525000Y34155000D03*
X11875000Y34155000D03*
%TD*%
%TO.C,R1*%
X13525000Y60055000D03*
X11875000Y60055000D03*
%TD*%
%TO.C,R1*%
X13525000Y85955000D03*
X11875000Y85955000D03*
%TD*%
%TO.C,R1*%
X13525000Y111855000D03*
X11875000Y111855000D03*
%TD*%
%TO.C,R1*%
X13525000Y137755000D03*
X11875000Y137755000D03*
%TD*%
%TO.C,R1*%
X13525000Y163655000D03*
X11875000Y163655000D03*
%TD*%
%TO.C,R1*%
X39425000Y8255000D03*
X37775000Y8255000D03*
%TD*%
%TO.C,R1*%
X39425000Y34155000D03*
X37775000Y34155000D03*
%TD*%
%TO.C,R1*%
X39425000Y60055000D03*
X37775000Y60055000D03*
%TD*%
%TO.C,R1*%
X39425000Y85955000D03*
X37775000Y85955000D03*
%TD*%
%TO.C,R1*%
X39425000Y111855000D03*
X37775000Y111855000D03*
%TD*%
%TO.C,R1*%
X39425000Y137755000D03*
X37775000Y137755000D03*
%TD*%
%TO.C,R1*%
X39425000Y163655000D03*
X37775000Y163655000D03*
%TD*%
%TO.C,R1*%
X65325000Y8255000D03*
X63675000Y8255000D03*
%TD*%
%TO.C,R1*%
X65325000Y34155000D03*
X63675000Y34155000D03*
%TD*%
%TO.C,R1*%
X65325000Y60055000D03*
X63675000Y60055000D03*
%TD*%
%TO.C,R1*%
X65325000Y85955000D03*
X63675000Y85955000D03*
%TD*%
%TO.C,R1*%
X65325000Y111855000D03*
X63675000Y111855000D03*
%TD*%
%TO.C,R1*%
X65325000Y137755000D03*
X63675000Y137755000D03*
%TD*%
%TO.C,R1*%
X65325000Y163655000D03*
X63675000Y163655000D03*
%TD*%
%TO.C,R1*%
X91225000Y8255000D03*
X89575000Y8255000D03*
%TD*%
%TO.C,R1*%
X91225000Y34155000D03*
X89575000Y34155000D03*
%TD*%
%TO.C,R1*%
X91225000Y60055000D03*
X89575000Y60055000D03*
%TD*%
%TO.C,R1*%
X91225000Y85955000D03*
X89575000Y85955000D03*
%TD*%
%TO.C,R1*%
X91225000Y111855000D03*
X89575000Y111855000D03*
%TD*%
%TO.C,R1*%
X91225000Y137755000D03*
X89575000Y137755000D03*
%TD*%
%TO.C,R1*%
X91225000Y163655000D03*
X89575000Y163655000D03*
%TD*%
%TO.C,R1*%
X117125000Y8255000D03*
X115475000Y8255000D03*
%TD*%
%TO.C,R1*%
X117125000Y34155000D03*
X115475000Y34155000D03*
%TD*%
%TO.C,R1*%
X117125000Y60055000D03*
X115475000Y60055000D03*
%TD*%
%TO.C,R1*%
X117125000Y85955000D03*
X115475000Y85955000D03*
%TD*%
%TO.C,R1*%
X117125000Y111855000D03*
X115475000Y111855000D03*
%TD*%
%TO.C,R1*%
X117125000Y137755000D03*
X115475000Y137755000D03*
%TD*%
%TO.C,R1*%
X117125000Y163655000D03*
X115475000Y163655000D03*
%TD*%
%TO.C,R9*%
X3682500Y7937500D03*
X2032500Y7937500D03*
%TD*%
%TO.C,R9*%
X3682500Y33837500D03*
X2032500Y33837500D03*
%TD*%
%TO.C,R9*%
X3682500Y59737500D03*
X2032500Y59737500D03*
%TD*%
%TO.C,R9*%
X3682500Y85637500D03*
X2032500Y85637500D03*
%TD*%
%TO.C,R9*%
X3682500Y111537500D03*
X2032500Y111537500D03*
%TD*%
%TO.C,R9*%
X3682500Y137437500D03*
X2032500Y137437500D03*
%TD*%
%TO.C,R9*%
X3682500Y163337500D03*
X2032500Y163337500D03*
%TD*%
%TO.C,R9*%
X29582500Y7937500D03*
X27932500Y7937500D03*
%TD*%
%TO.C,R9*%
X29582500Y33837500D03*
X27932500Y33837500D03*
%TD*%
%TO.C,R9*%
X29582500Y59737500D03*
X27932500Y59737500D03*
%TD*%
%TO.C,R9*%
X29582500Y85637500D03*
X27932500Y85637500D03*
%TD*%
%TO.C,R9*%
X29582500Y111537500D03*
X27932500Y111537500D03*
%TD*%
%TO.C,R9*%
X29582500Y137437500D03*
X27932500Y137437500D03*
%TD*%
%TO.C,R9*%
X29582500Y163337500D03*
X27932500Y163337500D03*
%TD*%
%TO.C,R9*%
X55482500Y7937500D03*
X53832500Y7937500D03*
%TD*%
%TO.C,R9*%
X55482500Y33837500D03*
X53832500Y33837500D03*
%TD*%
%TO.C,R9*%
X55482500Y59737500D03*
X53832500Y59737500D03*
%TD*%
%TO.C,R9*%
X55482500Y85637500D03*
X53832500Y85637500D03*
%TD*%
%TO.C,R9*%
X55482500Y111537500D03*
X53832500Y111537500D03*
%TD*%
%TO.C,R9*%
X55482500Y137437500D03*
X53832500Y137437500D03*
%TD*%
%TO.C,R9*%
X55482500Y163337500D03*
X53832500Y163337500D03*
%TD*%
%TO.C,R9*%
X81382500Y7937500D03*
X79732500Y7937500D03*
%TD*%
%TO.C,R9*%
X81382500Y33837500D03*
X79732500Y33837500D03*
%TD*%
%TO.C,R9*%
X81382500Y59737500D03*
X79732500Y59737500D03*
%TD*%
%TO.C,R9*%
X81382500Y85637500D03*
X79732500Y85637500D03*
%TD*%
%TO.C,R9*%
X81382500Y111537500D03*
X79732500Y111537500D03*
%TD*%
%TO.C,R9*%
X81382500Y137437500D03*
X79732500Y137437500D03*
%TD*%
%TO.C,R9*%
X81382500Y163337500D03*
X79732500Y163337500D03*
%TD*%
%TO.C,R9*%
X107282500Y7937500D03*
X105632500Y7937500D03*
%TD*%
%TO.C,R9*%
X107282500Y33837500D03*
X105632500Y33837500D03*
%TD*%
%TO.C,R9*%
X107282500Y59737500D03*
X105632500Y59737500D03*
%TD*%
%TO.C,R9*%
X107282500Y85637500D03*
X105632500Y85637500D03*
%TD*%
%TO.C,R9*%
X107282500Y111537500D03*
X105632500Y111537500D03*
%TD*%
%TO.C,R9*%
X107282500Y137437500D03*
X105632500Y137437500D03*
%TD*%
%TO.C,R9*%
X107282500Y163337500D03*
X105632500Y163337500D03*
%TD*%
D18*
%TO.C,C1*%
X13475000Y12382500D03*
X11925000Y12382500D03*
%TD*%
%TO.C,C1*%
X65275000Y12382500D03*
X63725000Y12382500D03*
%TD*%
%TO.C,C1*%
X13475000Y38282500D03*
X11925000Y38282500D03*
%TD*%
%TO.C,C1*%
X13475000Y64182500D03*
X11925000Y64182500D03*
%TD*%
%TO.C,C1*%
X13475000Y90082500D03*
X11925000Y90082500D03*
%TD*%
%TO.C,C1*%
X13475000Y115982500D03*
X11925000Y115982500D03*
%TD*%
%TO.C,C1*%
X13475000Y141882500D03*
X11925000Y141882500D03*
%TD*%
%TO.C,C1*%
X13475000Y167782500D03*
X11925000Y167782500D03*
%TD*%
%TO.C,C1*%
X39375000Y12382500D03*
X37825000Y12382500D03*
%TD*%
%TO.C,C1*%
X39375000Y38282500D03*
X37825000Y38282500D03*
%TD*%
%TO.C,C1*%
X39375000Y64182500D03*
X37825000Y64182500D03*
%TD*%
%TO.C,C1*%
X39375000Y90082500D03*
X37825000Y90082500D03*
%TD*%
%TO.C,C1*%
X39375000Y115982500D03*
X37825000Y115982500D03*
%TD*%
%TO.C,C1*%
X39375000Y141882500D03*
X37825000Y141882500D03*
%TD*%
%TO.C,C1*%
X39375000Y167782500D03*
X37825000Y167782500D03*
%TD*%
%TO.C,C1*%
X65275000Y38282500D03*
X63725000Y38282500D03*
%TD*%
%TO.C,C1*%
X65275000Y64182500D03*
X63725000Y64182500D03*
%TD*%
%TO.C,C1*%
X65275000Y90082500D03*
X63725000Y90082500D03*
%TD*%
%TO.C,C1*%
X65275000Y115982500D03*
X63725000Y115982500D03*
%TD*%
%TO.C,C1*%
X65275000Y141882500D03*
X63725000Y141882500D03*
%TD*%
%TO.C,C1*%
X65275000Y167782500D03*
X63725000Y167782500D03*
%TD*%
%TO.C,C1*%
X91175000Y12382500D03*
X89625000Y12382500D03*
%TD*%
%TO.C,C1*%
X91175000Y38282500D03*
X89625000Y38282500D03*
%TD*%
%TO.C,C1*%
X91175000Y64182500D03*
X89625000Y64182500D03*
%TD*%
%TO.C,C1*%
X91175000Y90082500D03*
X89625000Y90082500D03*
%TD*%
%TO.C,C1*%
X91175000Y115982500D03*
X89625000Y115982500D03*
%TD*%
%TO.C,C1*%
X91175000Y141882500D03*
X89625000Y141882500D03*
%TD*%
%TO.C,C1*%
X91175000Y167782500D03*
X89625000Y167782500D03*
%TD*%
%TO.C,C1*%
X117075000Y12382500D03*
X115525000Y12382500D03*
%TD*%
%TO.C,C1*%
X117075000Y38282500D03*
X115525000Y38282500D03*
%TD*%
%TO.C,C1*%
X117075000Y64182500D03*
X115525000Y64182500D03*
%TD*%
%TO.C,C1*%
X117075000Y90082500D03*
X115525000Y90082500D03*
%TD*%
%TO.C,C1*%
X117075000Y115982500D03*
X115525000Y115982500D03*
%TD*%
%TO.C,C1*%
X117075000Y141882500D03*
X115525000Y141882500D03*
%TD*%
%TO.C,C1*%
X117075000Y167782500D03*
X115525000Y167782500D03*
%TD*%
M02*
