%TF.GenerationSoftware,KiCad,Pcbnew,9.0.2*%
%TF.CreationDate,2025-07-22T09:56:55-06:00*%
%TF.ProjectId,SparkFun_STC31_panelized,53706172-6b46-4756-9e5f-53544333315f,v10*%
%TF.SameCoordinates,Original*%
%TF.FileFunction,Soldermask,Bot*%
%TF.FilePolarity,Negative*%
%FSLAX46Y46*%
G04 Gerber Fmt 4.6, Leading zero omitted, Abs format (unit mm)*
G04 Created by KiCad (PCBNEW 9.0.2) date 2025-07-22 09:56:55*
%MOMM*%
%LPD*%
G01*
G04 APERTURE LIST*
G04 Aperture macros list*
%AMRoundRect*
0 Rectangle with rounded corners*
0 $1 Rounding radius*
0 $2 $3 $4 $5 $6 $7 $8 $9 X,Y pos of 4 corners*
0 Add a 4 corners polygon primitive as box body*
4,1,4,$2,$3,$4,$5,$6,$7,$8,$9,$2,$3,0*
0 Add four circle primitives for the rounded corners*
1,1,$1+$1,$2,$3*
1,1,$1+$1,$4,$5*
1,1,$1+$1,$6,$7*
1,1,$1+$1,$8,$9*
0 Add four rect primitives between the rounded corners*
20,1,$1+$1,$2,$3,$4,$5,0*
20,1,$1+$1,$4,$5,$6,$7,0*
20,1,$1+$1,$6,$7,$8,$9,0*
20,1,$1+$1,$8,$9,$2,$3,0*%
G04 Aperture macros list end*
%ADD10C,0.000000*%
%ADD11C,3.000000*%
%ADD12RoundRect,0.050000X-0.635000X0.317500X-0.635000X-0.317500X0.635000X-0.317500X0.635000X0.317500X0*%
%ADD13RoundRect,0.050000X0.635000X-0.317500X0.635000X0.317500X-0.635000X0.317500X-0.635000X-0.317500X0*%
%ADD14C,0.600000*%
%ADD15RoundRect,0.050000X-0.635000X0.330200X-0.635000X-0.330200X0.635000X-0.330200X0.635000X0.330200X0*%
%ADD16RoundRect,0.050000X-0.330200X-0.635000X0.330200X-0.635000X0.330200X0.635000X-0.330200X0.635000X0*%
%ADD17RoundRect,0.050000X0.330200X0.635000X-0.330200X0.635000X-0.330200X-0.635000X0.330200X-0.635000X0*%
%ADD18C,3.200000*%
%ADD19C,1.979600*%
G04 APERTURE END LIST*
D10*
%TO.C,JP1*%
G36*
X106698000Y162131000D02*
G01*
X106217000Y162131000D01*
X106217000Y162639000D01*
X106698000Y162639000D01*
X106698000Y162131000D01*
G37*
G36*
X106698000Y136231000D02*
G01*
X106217000Y136231000D01*
X106217000Y136739000D01*
X106698000Y136739000D01*
X106698000Y136231000D01*
G37*
G36*
X106698000Y110331000D02*
G01*
X106217000Y110331000D01*
X106217000Y110839000D01*
X106698000Y110839000D01*
X106698000Y110331000D01*
G37*
G36*
X106698000Y84431000D02*
G01*
X106217000Y84431000D01*
X106217000Y84939000D01*
X106698000Y84939000D01*
X106698000Y84431000D01*
G37*
G36*
X106698000Y58531000D02*
G01*
X106217000Y58531000D01*
X106217000Y59039000D01*
X106698000Y59039000D01*
X106698000Y58531000D01*
G37*
G36*
X106698000Y32631000D02*
G01*
X106217000Y32631000D01*
X106217000Y33139000D01*
X106698000Y33139000D01*
X106698000Y32631000D01*
G37*
G36*
X106698000Y6731000D02*
G01*
X106217000Y6731000D01*
X106217000Y7239000D01*
X106698000Y7239000D01*
X106698000Y6731000D01*
G37*
G36*
X80798000Y162131000D02*
G01*
X80317000Y162131000D01*
X80317000Y162639000D01*
X80798000Y162639000D01*
X80798000Y162131000D01*
G37*
G36*
X80798000Y136231000D02*
G01*
X80317000Y136231000D01*
X80317000Y136739000D01*
X80798000Y136739000D01*
X80798000Y136231000D01*
G37*
G36*
X80798000Y110331000D02*
G01*
X80317000Y110331000D01*
X80317000Y110839000D01*
X80798000Y110839000D01*
X80798000Y110331000D01*
G37*
G36*
X80798000Y84431000D02*
G01*
X80317000Y84431000D01*
X80317000Y84939000D01*
X80798000Y84939000D01*
X80798000Y84431000D01*
G37*
G36*
X80798000Y58531000D02*
G01*
X80317000Y58531000D01*
X80317000Y59039000D01*
X80798000Y59039000D01*
X80798000Y58531000D01*
G37*
G36*
X80798000Y32631000D02*
G01*
X80317000Y32631000D01*
X80317000Y33139000D01*
X80798000Y33139000D01*
X80798000Y32631000D01*
G37*
G36*
X80798000Y6731000D02*
G01*
X80317000Y6731000D01*
X80317000Y7239000D01*
X80798000Y7239000D01*
X80798000Y6731000D01*
G37*
G36*
X54898000Y162131000D02*
G01*
X54417000Y162131000D01*
X54417000Y162639000D01*
X54898000Y162639000D01*
X54898000Y162131000D01*
G37*
G36*
X54898000Y136231000D02*
G01*
X54417000Y136231000D01*
X54417000Y136739000D01*
X54898000Y136739000D01*
X54898000Y136231000D01*
G37*
G36*
X54898000Y110331000D02*
G01*
X54417000Y110331000D01*
X54417000Y110839000D01*
X54898000Y110839000D01*
X54898000Y110331000D01*
G37*
G36*
X54898000Y84431000D02*
G01*
X54417000Y84431000D01*
X54417000Y84939000D01*
X54898000Y84939000D01*
X54898000Y84431000D01*
G37*
G36*
X54898000Y58531000D02*
G01*
X54417000Y58531000D01*
X54417000Y59039000D01*
X54898000Y59039000D01*
X54898000Y58531000D01*
G37*
G36*
X54898000Y32631000D02*
G01*
X54417000Y32631000D01*
X54417000Y33139000D01*
X54898000Y33139000D01*
X54898000Y32631000D01*
G37*
G36*
X54898000Y6731000D02*
G01*
X54417000Y6731000D01*
X54417000Y7239000D01*
X54898000Y7239000D01*
X54898000Y6731000D01*
G37*
G36*
X28998000Y162131000D02*
G01*
X28517000Y162131000D01*
X28517000Y162639000D01*
X28998000Y162639000D01*
X28998000Y162131000D01*
G37*
G36*
X28998000Y136231000D02*
G01*
X28517000Y136231000D01*
X28517000Y136739000D01*
X28998000Y136739000D01*
X28998000Y136231000D01*
G37*
G36*
X28998000Y110331000D02*
G01*
X28517000Y110331000D01*
X28517000Y110839000D01*
X28998000Y110839000D01*
X28998000Y110331000D01*
G37*
G36*
X28998000Y84431000D02*
G01*
X28517000Y84431000D01*
X28517000Y84939000D01*
X28998000Y84939000D01*
X28998000Y84431000D01*
G37*
G36*
X28998000Y58531000D02*
G01*
X28517000Y58531000D01*
X28517000Y59039000D01*
X28998000Y59039000D01*
X28998000Y58531000D01*
G37*
G36*
X28998000Y32631000D02*
G01*
X28517000Y32631000D01*
X28517000Y33139000D01*
X28998000Y33139000D01*
X28998000Y32631000D01*
G37*
G36*
X28998000Y6731000D02*
G01*
X28517000Y6731000D01*
X28517000Y7239000D01*
X28998000Y7239000D01*
X28998000Y6731000D01*
G37*
G36*
X3098000Y162131000D02*
G01*
X2617000Y162131000D01*
X2617000Y162639000D01*
X3098000Y162639000D01*
X3098000Y162131000D01*
G37*
G36*
X3098000Y136231000D02*
G01*
X2617000Y136231000D01*
X2617000Y136739000D01*
X3098000Y136739000D01*
X3098000Y136231000D01*
G37*
G36*
X3098000Y110331000D02*
G01*
X2617000Y110331000D01*
X2617000Y110839000D01*
X3098000Y110839000D01*
X3098000Y110331000D01*
G37*
G36*
X3098000Y84431000D02*
G01*
X2617000Y84431000D01*
X2617000Y84939000D01*
X3098000Y84939000D01*
X3098000Y84431000D01*
G37*
G36*
X3098000Y58531000D02*
G01*
X2617000Y58531000D01*
X2617000Y59039000D01*
X3098000Y59039000D01*
X3098000Y58531000D01*
G37*
G36*
X3098000Y32631000D02*
G01*
X2617000Y32631000D01*
X2617000Y33139000D01*
X3098000Y33139000D01*
X3098000Y32631000D01*
G37*
%TO.C,JP2*%
G36*
X125240800Y173257000D02*
G01*
X124732800Y173257000D01*
X124732800Y173738000D01*
X125240800Y173738000D01*
X125240800Y173257000D01*
G37*
G36*
X126273500Y173234000D02*
G01*
X125765500Y173234000D01*
X125765500Y173715000D01*
X126273500Y173715000D01*
X126273500Y173234000D01*
G37*
G36*
X125240800Y147357000D02*
G01*
X124732800Y147357000D01*
X124732800Y147838000D01*
X125240800Y147838000D01*
X125240800Y147357000D01*
G37*
G36*
X126273500Y147334000D02*
G01*
X125765500Y147334000D01*
X125765500Y147815000D01*
X126273500Y147815000D01*
X126273500Y147334000D01*
G37*
G36*
X125240800Y121457000D02*
G01*
X124732800Y121457000D01*
X124732800Y121938000D01*
X125240800Y121938000D01*
X125240800Y121457000D01*
G37*
G36*
X126273500Y121434000D02*
G01*
X125765500Y121434000D01*
X125765500Y121915000D01*
X126273500Y121915000D01*
X126273500Y121434000D01*
G37*
G36*
X125240800Y95557000D02*
G01*
X124732800Y95557000D01*
X124732800Y96038000D01*
X125240800Y96038000D01*
X125240800Y95557000D01*
G37*
G36*
X126273500Y95534000D02*
G01*
X125765500Y95534000D01*
X125765500Y96015000D01*
X126273500Y96015000D01*
X126273500Y95534000D01*
G37*
G36*
X125240800Y69657000D02*
G01*
X124732800Y69657000D01*
X124732800Y70138000D01*
X125240800Y70138000D01*
X125240800Y69657000D01*
G37*
G36*
X126273500Y69634000D02*
G01*
X125765500Y69634000D01*
X125765500Y70115000D01*
X126273500Y70115000D01*
X126273500Y69634000D01*
G37*
G36*
X125240800Y43757000D02*
G01*
X124732800Y43757000D01*
X124732800Y44238000D01*
X125240800Y44238000D01*
X125240800Y43757000D01*
G37*
G36*
X126273500Y43734000D02*
G01*
X125765500Y43734000D01*
X125765500Y44215000D01*
X126273500Y44215000D01*
X126273500Y43734000D01*
G37*
G36*
X125240800Y17857000D02*
G01*
X124732800Y17857000D01*
X124732800Y18338000D01*
X125240800Y18338000D01*
X125240800Y17857000D01*
G37*
G36*
X126273500Y17834000D02*
G01*
X125765500Y17834000D01*
X125765500Y18315000D01*
X126273500Y18315000D01*
X126273500Y17834000D01*
G37*
G36*
X99340800Y173257000D02*
G01*
X98832800Y173257000D01*
X98832800Y173738000D01*
X99340800Y173738000D01*
X99340800Y173257000D01*
G37*
G36*
X100373500Y173234000D02*
G01*
X99865500Y173234000D01*
X99865500Y173715000D01*
X100373500Y173715000D01*
X100373500Y173234000D01*
G37*
G36*
X99340800Y147357000D02*
G01*
X98832800Y147357000D01*
X98832800Y147838000D01*
X99340800Y147838000D01*
X99340800Y147357000D01*
G37*
G36*
X100373500Y147334000D02*
G01*
X99865500Y147334000D01*
X99865500Y147815000D01*
X100373500Y147815000D01*
X100373500Y147334000D01*
G37*
G36*
X99340800Y121457000D02*
G01*
X98832800Y121457000D01*
X98832800Y121938000D01*
X99340800Y121938000D01*
X99340800Y121457000D01*
G37*
G36*
X100373500Y121434000D02*
G01*
X99865500Y121434000D01*
X99865500Y121915000D01*
X100373500Y121915000D01*
X100373500Y121434000D01*
G37*
G36*
X99340800Y95557000D02*
G01*
X98832800Y95557000D01*
X98832800Y96038000D01*
X99340800Y96038000D01*
X99340800Y95557000D01*
G37*
G36*
X100373500Y95534000D02*
G01*
X99865500Y95534000D01*
X99865500Y96015000D01*
X100373500Y96015000D01*
X100373500Y95534000D01*
G37*
G36*
X99340800Y69657000D02*
G01*
X98832800Y69657000D01*
X98832800Y70138000D01*
X99340800Y70138000D01*
X99340800Y69657000D01*
G37*
G36*
X100373500Y69634000D02*
G01*
X99865500Y69634000D01*
X99865500Y70115000D01*
X100373500Y70115000D01*
X100373500Y69634000D01*
G37*
G36*
X99340800Y43757000D02*
G01*
X98832800Y43757000D01*
X98832800Y44238000D01*
X99340800Y44238000D01*
X99340800Y43757000D01*
G37*
G36*
X100373500Y43734000D02*
G01*
X99865500Y43734000D01*
X99865500Y44215000D01*
X100373500Y44215000D01*
X100373500Y43734000D01*
G37*
G36*
X99340800Y17857000D02*
G01*
X98832800Y17857000D01*
X98832800Y18338000D01*
X99340800Y18338000D01*
X99340800Y17857000D01*
G37*
G36*
X100373500Y17834000D02*
G01*
X99865500Y17834000D01*
X99865500Y18315000D01*
X100373500Y18315000D01*
X100373500Y17834000D01*
G37*
G36*
X73440800Y173257000D02*
G01*
X72932800Y173257000D01*
X72932800Y173738000D01*
X73440800Y173738000D01*
X73440800Y173257000D01*
G37*
G36*
X74473500Y173234000D02*
G01*
X73965500Y173234000D01*
X73965500Y173715000D01*
X74473500Y173715000D01*
X74473500Y173234000D01*
G37*
G36*
X73440800Y147357000D02*
G01*
X72932800Y147357000D01*
X72932800Y147838000D01*
X73440800Y147838000D01*
X73440800Y147357000D01*
G37*
G36*
X74473500Y147334000D02*
G01*
X73965500Y147334000D01*
X73965500Y147815000D01*
X74473500Y147815000D01*
X74473500Y147334000D01*
G37*
G36*
X73440800Y121457000D02*
G01*
X72932800Y121457000D01*
X72932800Y121938000D01*
X73440800Y121938000D01*
X73440800Y121457000D01*
G37*
G36*
X74473500Y121434000D02*
G01*
X73965500Y121434000D01*
X73965500Y121915000D01*
X74473500Y121915000D01*
X74473500Y121434000D01*
G37*
G36*
X73440800Y95557000D02*
G01*
X72932800Y95557000D01*
X72932800Y96038000D01*
X73440800Y96038000D01*
X73440800Y95557000D01*
G37*
G36*
X74473500Y95534000D02*
G01*
X73965500Y95534000D01*
X73965500Y96015000D01*
X74473500Y96015000D01*
X74473500Y95534000D01*
G37*
G36*
X73440800Y69657000D02*
G01*
X72932800Y69657000D01*
X72932800Y70138000D01*
X73440800Y70138000D01*
X73440800Y69657000D01*
G37*
G36*
X74473500Y69634000D02*
G01*
X73965500Y69634000D01*
X73965500Y70115000D01*
X74473500Y70115000D01*
X74473500Y69634000D01*
G37*
G36*
X73440800Y43757000D02*
G01*
X72932800Y43757000D01*
X72932800Y44238000D01*
X73440800Y44238000D01*
X73440800Y43757000D01*
G37*
G36*
X74473500Y43734000D02*
G01*
X73965500Y43734000D01*
X73965500Y44215000D01*
X74473500Y44215000D01*
X74473500Y43734000D01*
G37*
G36*
X73440800Y17857000D02*
G01*
X72932800Y17857000D01*
X72932800Y18338000D01*
X73440800Y18338000D01*
X73440800Y17857000D01*
G37*
G36*
X74473500Y17834000D02*
G01*
X73965500Y17834000D01*
X73965500Y18315000D01*
X74473500Y18315000D01*
X74473500Y17834000D01*
G37*
G36*
X47540800Y173257000D02*
G01*
X47032800Y173257000D01*
X47032800Y173738000D01*
X47540800Y173738000D01*
X47540800Y173257000D01*
G37*
G36*
X48573500Y173234000D02*
G01*
X48065500Y173234000D01*
X48065500Y173715000D01*
X48573500Y173715000D01*
X48573500Y173234000D01*
G37*
G36*
X47540800Y147357000D02*
G01*
X47032800Y147357000D01*
X47032800Y147838000D01*
X47540800Y147838000D01*
X47540800Y147357000D01*
G37*
G36*
X48573500Y147334000D02*
G01*
X48065500Y147334000D01*
X48065500Y147815000D01*
X48573500Y147815000D01*
X48573500Y147334000D01*
G37*
G36*
X47540800Y121457000D02*
G01*
X47032800Y121457000D01*
X47032800Y121938000D01*
X47540800Y121938000D01*
X47540800Y121457000D01*
G37*
G36*
X48573500Y121434000D02*
G01*
X48065500Y121434000D01*
X48065500Y121915000D01*
X48573500Y121915000D01*
X48573500Y121434000D01*
G37*
G36*
X47540800Y95557000D02*
G01*
X47032800Y95557000D01*
X47032800Y96038000D01*
X47540800Y96038000D01*
X47540800Y95557000D01*
G37*
G36*
X48573500Y95534000D02*
G01*
X48065500Y95534000D01*
X48065500Y96015000D01*
X48573500Y96015000D01*
X48573500Y95534000D01*
G37*
G36*
X47540800Y69657000D02*
G01*
X47032800Y69657000D01*
X47032800Y70138000D01*
X47540800Y70138000D01*
X47540800Y69657000D01*
G37*
G36*
X48573500Y69634000D02*
G01*
X48065500Y69634000D01*
X48065500Y70115000D01*
X48573500Y70115000D01*
X48573500Y69634000D01*
G37*
G36*
X47540800Y43757000D02*
G01*
X47032800Y43757000D01*
X47032800Y44238000D01*
X47540800Y44238000D01*
X47540800Y43757000D01*
G37*
G36*
X48573500Y43734000D02*
G01*
X48065500Y43734000D01*
X48065500Y44215000D01*
X48573500Y44215000D01*
X48573500Y43734000D01*
G37*
G36*
X47540800Y17857000D02*
G01*
X47032800Y17857000D01*
X47032800Y18338000D01*
X47540800Y18338000D01*
X47540800Y17857000D01*
G37*
G36*
X48573500Y17834000D02*
G01*
X48065500Y17834000D01*
X48065500Y18315000D01*
X48573500Y18315000D01*
X48573500Y17834000D01*
G37*
G36*
X21640800Y173257000D02*
G01*
X21132800Y173257000D01*
X21132800Y173738000D01*
X21640800Y173738000D01*
X21640800Y173257000D01*
G37*
G36*
X22673500Y173234000D02*
G01*
X22165500Y173234000D01*
X22165500Y173715000D01*
X22673500Y173715000D01*
X22673500Y173234000D01*
G37*
G36*
X21640800Y147357000D02*
G01*
X21132800Y147357000D01*
X21132800Y147838000D01*
X21640800Y147838000D01*
X21640800Y147357000D01*
G37*
G36*
X22673500Y147334000D02*
G01*
X22165500Y147334000D01*
X22165500Y147815000D01*
X22673500Y147815000D01*
X22673500Y147334000D01*
G37*
G36*
X21640800Y121457000D02*
G01*
X21132800Y121457000D01*
X21132800Y121938000D01*
X21640800Y121938000D01*
X21640800Y121457000D01*
G37*
G36*
X22673500Y121434000D02*
G01*
X22165500Y121434000D01*
X22165500Y121915000D01*
X22673500Y121915000D01*
X22673500Y121434000D01*
G37*
G36*
X21640800Y95557000D02*
G01*
X21132800Y95557000D01*
X21132800Y96038000D01*
X21640800Y96038000D01*
X21640800Y95557000D01*
G37*
G36*
X22673500Y95534000D02*
G01*
X22165500Y95534000D01*
X22165500Y96015000D01*
X22673500Y96015000D01*
X22673500Y95534000D01*
G37*
G36*
X21640800Y69657000D02*
G01*
X21132800Y69657000D01*
X21132800Y70138000D01*
X21640800Y70138000D01*
X21640800Y69657000D01*
G37*
G36*
X22673500Y69634000D02*
G01*
X22165500Y69634000D01*
X22165500Y70115000D01*
X22673500Y70115000D01*
X22673500Y69634000D01*
G37*
G36*
X21640800Y43757000D02*
G01*
X21132800Y43757000D01*
X21132800Y44238000D01*
X21640800Y44238000D01*
X21640800Y43757000D01*
G37*
G36*
X22673500Y43734000D02*
G01*
X22165500Y43734000D01*
X22165500Y44215000D01*
X22673500Y44215000D01*
X22673500Y43734000D01*
G37*
G36*
X21640800Y17857000D02*
G01*
X21132800Y17857000D01*
X21132800Y18338000D01*
X21640800Y18338000D01*
X21640800Y17857000D01*
G37*
G36*
X22673500Y17834000D02*
G01*
X22165500Y17834000D01*
X22165500Y18315000D01*
X22673500Y18315000D01*
X22673500Y17834000D01*
G37*
%TO.C,JP1*%
G36*
X3098000Y6731000D02*
G01*
X2617000Y6731000D01*
X2617000Y7239000D01*
X3098000Y7239000D01*
X3098000Y6731000D01*
G37*
%TD*%
D11*
%TO.C,*%
X131087500Y178800000D03*
%TD*%
%TO.C,*%
X-2087500Y178800000D03*
%TD*%
%TO.C,*%
X-2087500Y2000000D03*
%TD*%
D12*
%TO.C,JP3*%
X116300000Y167325300D03*
X116300000Y166512500D03*
%TD*%
%TO.C,JP3*%
X116300000Y141425300D03*
X116300000Y140612500D03*
%TD*%
%TO.C,JP3*%
X116300000Y115525300D03*
X116300000Y114712500D03*
%TD*%
%TO.C,JP3*%
X116300000Y89625300D03*
X116300000Y88812500D03*
%TD*%
%TO.C,JP3*%
X116300000Y63725300D03*
X116300000Y62912500D03*
%TD*%
%TO.C,JP3*%
X116300000Y37825300D03*
X116300000Y37012500D03*
%TD*%
%TO.C,JP3*%
X116300000Y11925300D03*
X116300000Y11112500D03*
%TD*%
%TO.C,JP3*%
X90400000Y167325300D03*
X90400000Y166512500D03*
%TD*%
%TO.C,JP3*%
X90400000Y141425300D03*
X90400000Y140612500D03*
%TD*%
%TO.C,JP3*%
X90400000Y115525300D03*
X90400000Y114712500D03*
%TD*%
%TO.C,JP3*%
X90400000Y89625300D03*
X90400000Y88812500D03*
%TD*%
%TO.C,JP3*%
X90400000Y63725300D03*
X90400000Y62912500D03*
%TD*%
%TO.C,JP3*%
X90400000Y37825300D03*
X90400000Y37012500D03*
%TD*%
%TO.C,JP3*%
X90400000Y11925300D03*
X90400000Y11112500D03*
%TD*%
%TO.C,JP3*%
X64500000Y167325300D03*
X64500000Y166512500D03*
%TD*%
%TO.C,JP3*%
X64500000Y141425300D03*
X64500000Y140612500D03*
%TD*%
%TO.C,JP3*%
X64500000Y115525300D03*
X64500000Y114712500D03*
%TD*%
%TO.C,JP3*%
X64500000Y89625300D03*
X64500000Y88812500D03*
%TD*%
%TO.C,JP3*%
X64500000Y63725300D03*
X64500000Y62912500D03*
%TD*%
%TO.C,JP3*%
X64500000Y37825300D03*
X64500000Y37012500D03*
%TD*%
%TO.C,JP3*%
X64500000Y11925300D03*
X64500000Y11112500D03*
%TD*%
%TO.C,JP3*%
X38600000Y167325300D03*
X38600000Y166512500D03*
%TD*%
%TO.C,JP3*%
X38600000Y141425300D03*
X38600000Y140612500D03*
%TD*%
%TO.C,JP3*%
X38600000Y115525300D03*
X38600000Y114712500D03*
%TD*%
%TO.C,JP3*%
X38600000Y89625300D03*
X38600000Y88812500D03*
%TD*%
%TO.C,JP3*%
X38600000Y63725300D03*
X38600000Y62912500D03*
%TD*%
%TO.C,JP3*%
X38600000Y37825300D03*
X38600000Y37012500D03*
%TD*%
%TO.C,JP3*%
X38600000Y11925300D03*
X38600000Y11112500D03*
%TD*%
%TO.C,JP3*%
X12700000Y167325300D03*
X12700000Y166512500D03*
%TD*%
%TO.C,JP3*%
X12700000Y141425300D03*
X12700000Y140612500D03*
%TD*%
%TO.C,JP3*%
X12700000Y115525300D03*
X12700000Y114712500D03*
%TD*%
%TO.C,JP3*%
X12700000Y89625300D03*
X12700000Y88812500D03*
%TD*%
%TO.C,JP3*%
X12700000Y63725300D03*
X12700000Y62912500D03*
%TD*%
%TO.C,JP3*%
X12700000Y37825300D03*
X12700000Y37012500D03*
%TD*%
D13*
%TO.C,JP5*%
X116300000Y161978600D03*
X116300000Y162791400D03*
%TD*%
%TO.C,JP5*%
X116300000Y136078600D03*
X116300000Y136891400D03*
%TD*%
%TO.C,JP5*%
X116300000Y110178600D03*
X116300000Y110991400D03*
%TD*%
%TO.C,JP5*%
X116300000Y84278600D03*
X116300000Y85091400D03*
%TD*%
%TO.C,JP5*%
X116300000Y58378600D03*
X116300000Y59191400D03*
%TD*%
%TO.C,JP5*%
X116300000Y32478600D03*
X116300000Y33291400D03*
%TD*%
%TO.C,JP5*%
X116300000Y6578600D03*
X116300000Y7391400D03*
%TD*%
%TO.C,JP5*%
X90400000Y161978600D03*
X90400000Y162791400D03*
%TD*%
%TO.C,JP5*%
X90400000Y136078600D03*
X90400000Y136891400D03*
%TD*%
%TO.C,JP5*%
X90400000Y110178600D03*
X90400000Y110991400D03*
%TD*%
%TO.C,JP5*%
X90400000Y84278600D03*
X90400000Y85091400D03*
%TD*%
%TO.C,JP5*%
X90400000Y58378600D03*
X90400000Y59191400D03*
%TD*%
%TO.C,JP5*%
X90400000Y32478600D03*
X90400000Y33291400D03*
%TD*%
%TO.C,JP5*%
X90400000Y6578600D03*
X90400000Y7391400D03*
%TD*%
%TO.C,JP5*%
X64500000Y161978600D03*
X64500000Y162791400D03*
%TD*%
%TO.C,JP5*%
X64500000Y136078600D03*
X64500000Y136891400D03*
%TD*%
%TO.C,JP5*%
X64500000Y110178600D03*
X64500000Y110991400D03*
%TD*%
%TO.C,JP5*%
X64500000Y84278600D03*
X64500000Y85091400D03*
%TD*%
%TO.C,JP5*%
X64500000Y58378600D03*
X64500000Y59191400D03*
%TD*%
%TO.C,JP5*%
X64500000Y32478600D03*
X64500000Y33291400D03*
%TD*%
%TO.C,JP5*%
X64500000Y6578600D03*
X64500000Y7391400D03*
%TD*%
%TO.C,JP5*%
X38600000Y161978600D03*
X38600000Y162791400D03*
%TD*%
%TO.C,JP5*%
X38600000Y136078600D03*
X38600000Y136891400D03*
%TD*%
%TO.C,JP5*%
X38600000Y110178600D03*
X38600000Y110991400D03*
%TD*%
%TO.C,JP5*%
X38600000Y84278600D03*
X38600000Y85091400D03*
%TD*%
%TO.C,JP5*%
X38600000Y58378600D03*
X38600000Y59191400D03*
%TD*%
%TO.C,JP5*%
X38600000Y32478600D03*
X38600000Y33291400D03*
%TD*%
%TO.C,JP5*%
X38600000Y6578600D03*
X38600000Y7391400D03*
%TD*%
%TO.C,JP5*%
X12700000Y161978600D03*
X12700000Y162791400D03*
%TD*%
%TO.C,JP5*%
X12700000Y136078600D03*
X12700000Y136891400D03*
%TD*%
%TO.C,JP5*%
X12700000Y110178600D03*
X12700000Y110991400D03*
%TD*%
%TO.C,JP5*%
X12700000Y84278600D03*
X12700000Y85091400D03*
%TD*%
%TO.C,JP5*%
X12700000Y58378600D03*
X12700000Y59191400D03*
%TD*%
%TO.C,JP5*%
X12700000Y32478600D03*
X12700000Y33291400D03*
%TD*%
D14*
%TO.C,FID1*%
X128365000Y156035000D03*
%TD*%
%TO.C,FID1*%
X128365000Y130135000D03*
%TD*%
%TO.C,FID1*%
X128365000Y104235000D03*
%TD*%
%TO.C,FID1*%
X128365000Y78335000D03*
%TD*%
%TO.C,FID1*%
X128365000Y52435000D03*
%TD*%
%TO.C,FID1*%
X128365000Y26535000D03*
%TD*%
%TO.C,FID1*%
X128365000Y635000D03*
%TD*%
%TO.C,FID1*%
X102465000Y156035000D03*
%TD*%
%TO.C,FID1*%
X102465000Y130135000D03*
%TD*%
%TO.C,FID1*%
X102465000Y104235000D03*
%TD*%
%TO.C,FID1*%
X102465000Y78335000D03*
%TD*%
%TO.C,FID1*%
X102465000Y52435000D03*
%TD*%
%TO.C,FID1*%
X102465000Y26535000D03*
%TD*%
%TO.C,FID1*%
X102465000Y635000D03*
%TD*%
%TO.C,FID1*%
X76565000Y156035000D03*
%TD*%
%TO.C,FID1*%
X76565000Y130135000D03*
%TD*%
%TO.C,FID1*%
X76565000Y104235000D03*
%TD*%
%TO.C,FID1*%
X76565000Y78335000D03*
%TD*%
%TO.C,FID1*%
X76565000Y52435000D03*
%TD*%
%TO.C,FID1*%
X76565000Y26535000D03*
%TD*%
%TO.C,FID1*%
X76565000Y635000D03*
%TD*%
%TO.C,FID1*%
X50665000Y156035000D03*
%TD*%
%TO.C,FID1*%
X50665000Y130135000D03*
%TD*%
%TO.C,FID1*%
X50665000Y104235000D03*
%TD*%
%TO.C,FID1*%
X50665000Y78335000D03*
%TD*%
%TO.C,FID1*%
X50665000Y52435000D03*
%TD*%
%TO.C,FID1*%
X50665000Y26535000D03*
%TD*%
%TO.C,FID1*%
X50665000Y635000D03*
%TD*%
%TO.C,FID1*%
X24765000Y156035000D03*
%TD*%
%TO.C,FID1*%
X24765000Y130135000D03*
%TD*%
%TO.C,FID1*%
X24765000Y104235000D03*
%TD*%
%TO.C,FID1*%
X24765000Y78335000D03*
%TD*%
%TO.C,FID1*%
X24765000Y52435000D03*
%TD*%
%TO.C,FID1*%
X24765000Y26535000D03*
%TD*%
%TO.C,FID2*%
X104235000Y180165000D03*
%TD*%
%TO.C,FID2*%
X104235000Y154265000D03*
%TD*%
%TO.C,FID2*%
X104235000Y128365000D03*
%TD*%
%TO.C,FID2*%
X104235000Y102465000D03*
%TD*%
%TO.C,FID2*%
X104235000Y76565000D03*
%TD*%
%TO.C,FID2*%
X104235000Y50665000D03*
%TD*%
%TO.C,FID2*%
X104235000Y24765000D03*
%TD*%
%TO.C,FID2*%
X78335000Y180165000D03*
%TD*%
%TO.C,FID2*%
X78335000Y154265000D03*
%TD*%
%TO.C,FID2*%
X78335000Y128365000D03*
%TD*%
%TO.C,FID2*%
X78335000Y102465000D03*
%TD*%
%TO.C,FID2*%
X78335000Y76565000D03*
%TD*%
%TO.C,FID2*%
X78335000Y50665000D03*
%TD*%
%TO.C,FID2*%
X78335000Y24765000D03*
%TD*%
%TO.C,FID2*%
X52435000Y180165000D03*
%TD*%
%TO.C,FID2*%
X52435000Y154265000D03*
%TD*%
%TO.C,FID2*%
X52435000Y128365000D03*
%TD*%
%TO.C,FID2*%
X52435000Y102465000D03*
%TD*%
%TO.C,FID2*%
X52435000Y76565000D03*
%TD*%
%TO.C,FID2*%
X52435000Y50665000D03*
%TD*%
%TO.C,FID2*%
X52435000Y24765000D03*
%TD*%
%TO.C,FID2*%
X26535000Y180165000D03*
%TD*%
%TO.C,FID2*%
X26535000Y154265000D03*
%TD*%
%TO.C,FID2*%
X26535000Y128365000D03*
%TD*%
%TO.C,FID2*%
X26535000Y102465000D03*
%TD*%
%TO.C,FID2*%
X26535000Y76565000D03*
%TD*%
%TO.C,FID2*%
X26535000Y50665000D03*
%TD*%
%TO.C,FID2*%
X26535000Y24765000D03*
%TD*%
%TO.C,FID2*%
X635000Y180165000D03*
%TD*%
%TO.C,FID2*%
X635000Y154265000D03*
%TD*%
%TO.C,FID2*%
X635000Y128365000D03*
%TD*%
%TO.C,FID2*%
X635000Y102465000D03*
%TD*%
%TO.C,FID2*%
X635000Y76565000D03*
%TD*%
%TO.C,FID2*%
X635000Y50665000D03*
%TD*%
D15*
%TO.C,JP1*%
X106457500Y162905700D03*
X106457500Y161864300D03*
%TD*%
%TO.C,JP1*%
X106457500Y137005700D03*
X106457500Y135964300D03*
%TD*%
%TO.C,JP1*%
X106457500Y111105700D03*
X106457500Y110064300D03*
%TD*%
%TO.C,JP1*%
X106457500Y85205700D03*
X106457500Y84164300D03*
%TD*%
%TO.C,JP1*%
X106457500Y59305700D03*
X106457500Y58264300D03*
%TD*%
%TO.C,JP1*%
X106457500Y33405700D03*
X106457500Y32364300D03*
%TD*%
%TO.C,JP1*%
X106457500Y7505700D03*
X106457500Y6464300D03*
%TD*%
%TO.C,JP1*%
X80557500Y162905700D03*
X80557500Y161864300D03*
%TD*%
%TO.C,JP1*%
X80557500Y137005700D03*
X80557500Y135964300D03*
%TD*%
%TO.C,JP1*%
X80557500Y111105700D03*
X80557500Y110064300D03*
%TD*%
%TO.C,JP1*%
X80557500Y85205700D03*
X80557500Y84164300D03*
%TD*%
%TO.C,JP1*%
X80557500Y59305700D03*
X80557500Y58264300D03*
%TD*%
%TO.C,JP1*%
X80557500Y33405700D03*
X80557500Y32364300D03*
%TD*%
%TO.C,JP1*%
X80557500Y7505700D03*
X80557500Y6464300D03*
%TD*%
%TO.C,JP1*%
X54657500Y162905700D03*
X54657500Y161864300D03*
%TD*%
%TO.C,JP1*%
X54657500Y137005700D03*
X54657500Y135964300D03*
%TD*%
%TO.C,JP1*%
X54657500Y111105700D03*
X54657500Y110064300D03*
%TD*%
%TO.C,JP1*%
X54657500Y85205700D03*
X54657500Y84164300D03*
%TD*%
%TO.C,JP1*%
X54657500Y59305700D03*
X54657500Y58264300D03*
%TD*%
%TO.C,JP1*%
X54657500Y33405700D03*
X54657500Y32364300D03*
%TD*%
%TO.C,JP1*%
X54657500Y7505700D03*
X54657500Y6464300D03*
%TD*%
%TO.C,JP1*%
X28757500Y162905700D03*
X28757500Y161864300D03*
%TD*%
%TO.C,JP1*%
X28757500Y137005700D03*
X28757500Y135964300D03*
%TD*%
%TO.C,JP1*%
X28757500Y111105700D03*
X28757500Y110064300D03*
%TD*%
%TO.C,JP1*%
X28757500Y85205700D03*
X28757500Y84164300D03*
%TD*%
%TO.C,JP1*%
X28757500Y59305700D03*
X28757500Y58264300D03*
%TD*%
%TO.C,JP1*%
X28757500Y33405700D03*
X28757500Y32364300D03*
%TD*%
%TO.C,JP1*%
X28757500Y7505700D03*
X28757500Y6464300D03*
%TD*%
%TO.C,JP1*%
X2857500Y162905700D03*
X2857500Y161864300D03*
%TD*%
%TO.C,JP1*%
X2857500Y137005700D03*
X2857500Y135964300D03*
%TD*%
%TO.C,JP1*%
X2857500Y111105700D03*
X2857500Y110064300D03*
%TD*%
%TO.C,JP1*%
X2857500Y85205700D03*
X2857500Y84164300D03*
%TD*%
%TO.C,JP1*%
X2857500Y59305700D03*
X2857500Y58264300D03*
%TD*%
%TO.C,JP1*%
X2857500Y33405700D03*
X2857500Y32364300D03*
%TD*%
D13*
%TO.C,JP4*%
X116300000Y164201100D03*
X116300000Y165013900D03*
%TD*%
%TO.C,JP4*%
X116300000Y138301100D03*
X116300000Y139113900D03*
%TD*%
%TO.C,JP4*%
X116300000Y112401100D03*
X116300000Y113213900D03*
%TD*%
%TO.C,JP4*%
X116300000Y86501100D03*
X116300000Y87313900D03*
%TD*%
%TO.C,JP4*%
X116300000Y60601100D03*
X116300000Y61413900D03*
%TD*%
%TO.C,JP4*%
X116300000Y34701100D03*
X116300000Y35513900D03*
%TD*%
%TO.C,JP4*%
X116300000Y8801100D03*
X116300000Y9613900D03*
%TD*%
%TO.C,JP4*%
X90400000Y164201100D03*
X90400000Y165013900D03*
%TD*%
%TO.C,JP4*%
X90400000Y138301100D03*
X90400000Y139113900D03*
%TD*%
%TO.C,JP4*%
X90400000Y112401100D03*
X90400000Y113213900D03*
%TD*%
%TO.C,JP4*%
X90400000Y86501100D03*
X90400000Y87313900D03*
%TD*%
%TO.C,JP4*%
X90400000Y60601100D03*
X90400000Y61413900D03*
%TD*%
%TO.C,JP4*%
X90400000Y34701100D03*
X90400000Y35513900D03*
%TD*%
%TO.C,JP4*%
X90400000Y8801100D03*
X90400000Y9613900D03*
%TD*%
%TO.C,JP4*%
X64500000Y164201100D03*
X64500000Y165013900D03*
%TD*%
%TO.C,JP4*%
X64500000Y138301100D03*
X64500000Y139113900D03*
%TD*%
%TO.C,JP4*%
X64500000Y112401100D03*
X64500000Y113213900D03*
%TD*%
%TO.C,JP4*%
X64500000Y86501100D03*
X64500000Y87313900D03*
%TD*%
%TO.C,JP4*%
X64500000Y60601100D03*
X64500000Y61413900D03*
%TD*%
%TO.C,JP4*%
X64500000Y34701100D03*
X64500000Y35513900D03*
%TD*%
%TO.C,JP4*%
X64500000Y8801100D03*
X64500000Y9613900D03*
%TD*%
%TO.C,JP4*%
X38600000Y164201100D03*
X38600000Y165013900D03*
%TD*%
%TO.C,JP4*%
X38600000Y138301100D03*
X38600000Y139113900D03*
%TD*%
%TO.C,JP4*%
X38600000Y112401100D03*
X38600000Y113213900D03*
%TD*%
%TO.C,JP4*%
X38600000Y86501100D03*
X38600000Y87313900D03*
%TD*%
%TO.C,JP4*%
X38600000Y60601100D03*
X38600000Y61413900D03*
%TD*%
%TO.C,JP4*%
X38600000Y34701100D03*
X38600000Y35513900D03*
%TD*%
%TO.C,JP4*%
X38600000Y8801100D03*
X38600000Y9613900D03*
%TD*%
%TO.C,JP4*%
X12700000Y164201100D03*
X12700000Y165013900D03*
%TD*%
%TO.C,JP4*%
X12700000Y138301100D03*
X12700000Y139113900D03*
%TD*%
%TO.C,JP4*%
X12700000Y112401100D03*
X12700000Y113213900D03*
%TD*%
%TO.C,JP4*%
X12700000Y86501100D03*
X12700000Y87313900D03*
%TD*%
%TO.C,JP4*%
X12700000Y60601100D03*
X12700000Y61413900D03*
%TD*%
%TO.C,JP4*%
X12700000Y34701100D03*
X12700000Y35513900D03*
%TD*%
D16*
%TO.C,JP2*%
X124466100Y173497500D03*
X125507500Y173497500D03*
D17*
X126548900Y173497500D03*
%TD*%
D16*
%TO.C,JP2*%
X124466100Y147597500D03*
X125507500Y147597500D03*
D17*
X126548900Y147597500D03*
%TD*%
D16*
%TO.C,JP2*%
X124466100Y121697500D03*
X125507500Y121697500D03*
D17*
X126548900Y121697500D03*
%TD*%
D16*
%TO.C,JP2*%
X124466100Y95797500D03*
X125507500Y95797500D03*
D17*
X126548900Y95797500D03*
%TD*%
D16*
%TO.C,JP2*%
X124466100Y69897500D03*
X125507500Y69897500D03*
D17*
X126548900Y69897500D03*
%TD*%
D16*
%TO.C,JP2*%
X124466100Y43997500D03*
X125507500Y43997500D03*
D17*
X126548900Y43997500D03*
%TD*%
D16*
%TO.C,JP2*%
X124466100Y18097500D03*
X125507500Y18097500D03*
D17*
X126548900Y18097500D03*
%TD*%
D16*
%TO.C,JP2*%
X98566100Y173497500D03*
X99607500Y173497500D03*
D17*
X100648900Y173497500D03*
%TD*%
D16*
%TO.C,JP2*%
X98566100Y147597500D03*
X99607500Y147597500D03*
D17*
X100648900Y147597500D03*
%TD*%
D16*
%TO.C,JP2*%
X98566100Y121697500D03*
X99607500Y121697500D03*
D17*
X100648900Y121697500D03*
%TD*%
D16*
%TO.C,JP2*%
X98566100Y95797500D03*
X99607500Y95797500D03*
D17*
X100648900Y95797500D03*
%TD*%
D16*
%TO.C,JP2*%
X98566100Y69897500D03*
X99607500Y69897500D03*
D17*
X100648900Y69897500D03*
%TD*%
D16*
%TO.C,JP2*%
X98566100Y43997500D03*
X99607500Y43997500D03*
D17*
X100648900Y43997500D03*
%TD*%
D16*
%TO.C,JP2*%
X98566100Y18097500D03*
X99607500Y18097500D03*
D17*
X100648900Y18097500D03*
%TD*%
D16*
%TO.C,JP2*%
X72666100Y173497500D03*
X73707500Y173497500D03*
D17*
X74748900Y173497500D03*
%TD*%
D16*
%TO.C,JP2*%
X72666100Y147597500D03*
X73707500Y147597500D03*
D17*
X74748900Y147597500D03*
%TD*%
D16*
%TO.C,JP2*%
X72666100Y121697500D03*
X73707500Y121697500D03*
D17*
X74748900Y121697500D03*
%TD*%
D16*
%TO.C,JP2*%
X72666100Y95797500D03*
X73707500Y95797500D03*
D17*
X74748900Y95797500D03*
%TD*%
D16*
%TO.C,JP2*%
X72666100Y69897500D03*
X73707500Y69897500D03*
D17*
X74748900Y69897500D03*
%TD*%
D16*
%TO.C,JP2*%
X72666100Y43997500D03*
X73707500Y43997500D03*
D17*
X74748900Y43997500D03*
%TD*%
D16*
%TO.C,JP2*%
X72666100Y18097500D03*
X73707500Y18097500D03*
D17*
X74748900Y18097500D03*
%TD*%
D16*
%TO.C,JP2*%
X46766100Y173497500D03*
X47807500Y173497500D03*
D17*
X48848900Y173497500D03*
%TD*%
D16*
%TO.C,JP2*%
X46766100Y147597500D03*
X47807500Y147597500D03*
D17*
X48848900Y147597500D03*
%TD*%
D16*
%TO.C,JP2*%
X46766100Y121697500D03*
X47807500Y121697500D03*
D17*
X48848900Y121697500D03*
%TD*%
D16*
%TO.C,JP2*%
X46766100Y95797500D03*
X47807500Y95797500D03*
D17*
X48848900Y95797500D03*
%TD*%
D16*
%TO.C,JP2*%
X46766100Y69897500D03*
X47807500Y69897500D03*
D17*
X48848900Y69897500D03*
%TD*%
D16*
%TO.C,JP2*%
X46766100Y43997500D03*
X47807500Y43997500D03*
D17*
X48848900Y43997500D03*
%TD*%
D16*
%TO.C,JP2*%
X46766100Y18097500D03*
X47807500Y18097500D03*
D17*
X48848900Y18097500D03*
%TD*%
D16*
%TO.C,JP2*%
X20866100Y173497500D03*
X21907500Y173497500D03*
D17*
X22948900Y173497500D03*
%TD*%
D16*
%TO.C,JP2*%
X20866100Y147597500D03*
X21907500Y147597500D03*
D17*
X22948900Y147597500D03*
%TD*%
D16*
%TO.C,JP2*%
X20866100Y121697500D03*
X21907500Y121697500D03*
D17*
X22948900Y121697500D03*
%TD*%
D16*
%TO.C,JP2*%
X20866100Y95797500D03*
X21907500Y95797500D03*
D17*
X22948900Y95797500D03*
%TD*%
D16*
%TO.C,JP2*%
X20866100Y69897500D03*
X21907500Y69897500D03*
D17*
X22948900Y69897500D03*
%TD*%
D16*
%TO.C,JP2*%
X20866100Y43997500D03*
X21907500Y43997500D03*
D17*
X22948900Y43997500D03*
%TD*%
D18*
%TO.C,ST4*%
X106140000Y157940000D03*
%TD*%
%TO.C,ST4*%
X106140000Y132040000D03*
%TD*%
%TO.C,ST4*%
X106140000Y106140000D03*
%TD*%
%TO.C,ST4*%
X106140000Y80240000D03*
%TD*%
%TO.C,ST4*%
X106140000Y54340000D03*
%TD*%
%TO.C,ST4*%
X106140000Y28440000D03*
%TD*%
%TO.C,ST4*%
X106140000Y2540000D03*
%TD*%
%TO.C,ST4*%
X80240000Y157940000D03*
%TD*%
%TO.C,ST4*%
X80240000Y132040000D03*
%TD*%
%TO.C,ST4*%
X80240000Y106140000D03*
%TD*%
%TO.C,ST4*%
X80240000Y80240000D03*
%TD*%
%TO.C,ST4*%
X80240000Y54340000D03*
%TD*%
%TO.C,ST4*%
X80240000Y28440000D03*
%TD*%
%TO.C,ST4*%
X80240000Y2540000D03*
%TD*%
%TO.C,ST4*%
X54340000Y157940000D03*
%TD*%
%TO.C,ST4*%
X54340000Y132040000D03*
%TD*%
%TO.C,ST4*%
X54340000Y106140000D03*
%TD*%
%TO.C,ST4*%
X54340000Y80240000D03*
%TD*%
%TO.C,ST4*%
X54340000Y54340000D03*
%TD*%
%TO.C,ST4*%
X54340000Y28440000D03*
%TD*%
%TO.C,ST4*%
X54340000Y2540000D03*
%TD*%
%TO.C,ST4*%
X28440000Y157940000D03*
%TD*%
%TO.C,ST4*%
X28440000Y132040000D03*
%TD*%
%TO.C,ST4*%
X28440000Y106140000D03*
%TD*%
%TO.C,ST4*%
X28440000Y80240000D03*
%TD*%
%TO.C,ST4*%
X28440000Y54340000D03*
%TD*%
%TO.C,ST4*%
X28440000Y28440000D03*
%TD*%
%TO.C,ST4*%
X28440000Y2540000D03*
%TD*%
%TO.C,ST4*%
X2540000Y157940000D03*
%TD*%
%TO.C,ST4*%
X2540000Y132040000D03*
%TD*%
%TO.C,ST4*%
X2540000Y106140000D03*
%TD*%
%TO.C,ST4*%
X2540000Y80240000D03*
%TD*%
%TO.C,ST4*%
X2540000Y54340000D03*
%TD*%
%TO.C,ST4*%
X2540000Y28440000D03*
%TD*%
%TO.C,ST1*%
X106140000Y178260000D03*
%TD*%
%TO.C,ST1*%
X106140000Y152360000D03*
%TD*%
%TO.C,ST1*%
X106140000Y126460000D03*
%TD*%
%TO.C,ST1*%
X106140000Y100560000D03*
%TD*%
%TO.C,ST1*%
X106140000Y74660000D03*
%TD*%
%TO.C,ST1*%
X106140000Y48760000D03*
%TD*%
%TO.C,ST1*%
X106140000Y22860000D03*
%TD*%
%TO.C,ST1*%
X80240000Y178260000D03*
%TD*%
%TO.C,ST1*%
X80240000Y152360000D03*
%TD*%
%TO.C,ST1*%
X80240000Y126460000D03*
%TD*%
%TO.C,ST1*%
X80240000Y100560000D03*
%TD*%
%TO.C,ST1*%
X80240000Y74660000D03*
%TD*%
%TO.C,ST1*%
X80240000Y48760000D03*
%TD*%
%TO.C,ST1*%
X80240000Y22860000D03*
%TD*%
%TO.C,ST1*%
X54340000Y178260000D03*
%TD*%
%TO.C,ST1*%
X54340000Y152360000D03*
%TD*%
%TO.C,ST1*%
X54340000Y126460000D03*
%TD*%
%TO.C,ST1*%
X54340000Y100560000D03*
%TD*%
%TO.C,ST1*%
X54340000Y74660000D03*
%TD*%
%TO.C,ST1*%
X54340000Y48760000D03*
%TD*%
%TO.C,ST1*%
X54340000Y22860000D03*
%TD*%
%TO.C,ST1*%
X28440000Y178260000D03*
%TD*%
%TO.C,ST1*%
X28440000Y152360000D03*
%TD*%
%TO.C,ST1*%
X28440000Y126460000D03*
%TD*%
%TO.C,ST1*%
X28440000Y100560000D03*
%TD*%
%TO.C,ST1*%
X28440000Y74660000D03*
%TD*%
%TO.C,ST1*%
X28440000Y48760000D03*
%TD*%
%TO.C,ST1*%
X28440000Y22860000D03*
%TD*%
%TO.C,ST1*%
X2540000Y178260000D03*
%TD*%
%TO.C,ST1*%
X2540000Y152360000D03*
%TD*%
%TO.C,ST1*%
X2540000Y126460000D03*
%TD*%
%TO.C,ST1*%
X2540000Y100560000D03*
%TD*%
%TO.C,ST1*%
X2540000Y74660000D03*
%TD*%
%TO.C,ST1*%
X2540000Y48760000D03*
%TD*%
%TO.C,ST2*%
X126460000Y178260000D03*
%TD*%
%TO.C,ST2*%
X126460000Y152360000D03*
%TD*%
%TO.C,ST2*%
X126460000Y126460000D03*
%TD*%
%TO.C,ST2*%
X126460000Y100560000D03*
%TD*%
%TO.C,ST2*%
X126460000Y74660000D03*
%TD*%
%TO.C,ST2*%
X126460000Y48760000D03*
%TD*%
%TO.C,ST2*%
X126460000Y22860000D03*
%TD*%
%TO.C,ST2*%
X100560000Y178260000D03*
%TD*%
%TO.C,ST2*%
X100560000Y152360000D03*
%TD*%
%TO.C,ST2*%
X100560000Y126460000D03*
%TD*%
%TO.C,ST2*%
X100560000Y100560000D03*
%TD*%
%TO.C,ST2*%
X100560000Y74660000D03*
%TD*%
%TO.C,ST2*%
X100560000Y48760000D03*
%TD*%
%TO.C,ST2*%
X100560000Y22860000D03*
%TD*%
%TO.C,ST2*%
X74660000Y178260000D03*
%TD*%
%TO.C,ST2*%
X74660000Y152360000D03*
%TD*%
%TO.C,ST2*%
X74660000Y126460000D03*
%TD*%
%TO.C,ST2*%
X74660000Y100560000D03*
%TD*%
%TO.C,ST2*%
X74660000Y74660000D03*
%TD*%
%TO.C,ST2*%
X74660000Y48760000D03*
%TD*%
%TO.C,ST2*%
X74660000Y22860000D03*
%TD*%
%TO.C,ST2*%
X48760000Y178260000D03*
%TD*%
%TO.C,ST2*%
X48760000Y152360000D03*
%TD*%
%TO.C,ST2*%
X48760000Y126460000D03*
%TD*%
%TO.C,ST2*%
X48760000Y100560000D03*
%TD*%
%TO.C,ST2*%
X48760000Y74660000D03*
%TD*%
%TO.C,ST2*%
X48760000Y48760000D03*
%TD*%
%TO.C,ST2*%
X48760000Y22860000D03*
%TD*%
%TO.C,ST2*%
X22860000Y178260000D03*
%TD*%
%TO.C,ST2*%
X22860000Y152360000D03*
%TD*%
%TO.C,ST2*%
X22860000Y126460000D03*
%TD*%
%TO.C,ST2*%
X22860000Y100560000D03*
%TD*%
%TO.C,ST2*%
X22860000Y74660000D03*
%TD*%
%TO.C,ST2*%
X22860000Y48760000D03*
%TD*%
D19*
%TO.C,J4*%
X112490000Y156670000D03*
X115030000Y156670000D03*
X117570000Y156670000D03*
X120110000Y156670000D03*
%TD*%
%TO.C,J4*%
X112490000Y130770000D03*
X115030000Y130770000D03*
X117570000Y130770000D03*
X120110000Y130770000D03*
%TD*%
%TO.C,J4*%
X112490000Y104870000D03*
X115030000Y104870000D03*
X117570000Y104870000D03*
X120110000Y104870000D03*
%TD*%
%TO.C,J4*%
X112490000Y78970000D03*
X115030000Y78970000D03*
X117570000Y78970000D03*
X120110000Y78970000D03*
%TD*%
%TO.C,J4*%
X112490000Y53070000D03*
X115030000Y53070000D03*
X117570000Y53070000D03*
X120110000Y53070000D03*
%TD*%
%TO.C,J4*%
X112490000Y27170000D03*
X115030000Y27170000D03*
X117570000Y27170000D03*
X120110000Y27170000D03*
%TD*%
%TO.C,J4*%
X112490000Y1270000D03*
X115030000Y1270000D03*
X117570000Y1270000D03*
X120110000Y1270000D03*
%TD*%
%TO.C,J4*%
X86590000Y156670000D03*
X89130000Y156670000D03*
X91670000Y156670000D03*
X94210000Y156670000D03*
%TD*%
%TO.C,J4*%
X86590000Y130770000D03*
X89130000Y130770000D03*
X91670000Y130770000D03*
X94210000Y130770000D03*
%TD*%
%TO.C,J4*%
X86590000Y104870000D03*
X89130000Y104870000D03*
X91670000Y104870000D03*
X94210000Y104870000D03*
%TD*%
%TO.C,J4*%
X86590000Y78970000D03*
X89130000Y78970000D03*
X91670000Y78970000D03*
X94210000Y78970000D03*
%TD*%
%TO.C,J4*%
X86590000Y53070000D03*
X89130000Y53070000D03*
X91670000Y53070000D03*
X94210000Y53070000D03*
%TD*%
%TO.C,J4*%
X86590000Y27170000D03*
X89130000Y27170000D03*
X91670000Y27170000D03*
X94210000Y27170000D03*
%TD*%
%TO.C,J4*%
X86590000Y1270000D03*
X89130000Y1270000D03*
X91670000Y1270000D03*
X94210000Y1270000D03*
%TD*%
%TO.C,J4*%
X60690000Y156670000D03*
X63230000Y156670000D03*
X65770000Y156670000D03*
X68310000Y156670000D03*
%TD*%
%TO.C,J4*%
X60690000Y130770000D03*
X63230000Y130770000D03*
X65770000Y130770000D03*
X68310000Y130770000D03*
%TD*%
%TO.C,J4*%
X60690000Y104870000D03*
X63230000Y104870000D03*
X65770000Y104870000D03*
X68310000Y104870000D03*
%TD*%
%TO.C,J4*%
X60690000Y78970000D03*
X63230000Y78970000D03*
X65770000Y78970000D03*
X68310000Y78970000D03*
%TD*%
%TO.C,J4*%
X60690000Y53070000D03*
X63230000Y53070000D03*
X65770000Y53070000D03*
X68310000Y53070000D03*
%TD*%
%TO.C,J4*%
X60690000Y27170000D03*
X63230000Y27170000D03*
X65770000Y27170000D03*
X68310000Y27170000D03*
%TD*%
%TO.C,J4*%
X60690000Y1270000D03*
X63230000Y1270000D03*
X65770000Y1270000D03*
X68310000Y1270000D03*
%TD*%
%TO.C,J4*%
X34790000Y156670000D03*
X37330000Y156670000D03*
X39870000Y156670000D03*
X42410000Y156670000D03*
%TD*%
%TO.C,J4*%
X34790000Y130770000D03*
X37330000Y130770000D03*
X39870000Y130770000D03*
X42410000Y130770000D03*
%TD*%
%TO.C,J4*%
X34790000Y104870000D03*
X37330000Y104870000D03*
X39870000Y104870000D03*
X42410000Y104870000D03*
%TD*%
%TO.C,J4*%
X34790000Y78970000D03*
X37330000Y78970000D03*
X39870000Y78970000D03*
X42410000Y78970000D03*
%TD*%
%TO.C,J4*%
X34790000Y53070000D03*
X37330000Y53070000D03*
X39870000Y53070000D03*
X42410000Y53070000D03*
%TD*%
%TO.C,J4*%
X34790000Y27170000D03*
X37330000Y27170000D03*
X39870000Y27170000D03*
X42410000Y27170000D03*
%TD*%
%TO.C,J4*%
X34790000Y1270000D03*
X37330000Y1270000D03*
X39870000Y1270000D03*
X42410000Y1270000D03*
%TD*%
%TO.C,J4*%
X8890000Y156670000D03*
X11430000Y156670000D03*
X13970000Y156670000D03*
X16510000Y156670000D03*
%TD*%
%TO.C,J4*%
X8890000Y130770000D03*
X11430000Y130770000D03*
X13970000Y130770000D03*
X16510000Y130770000D03*
%TD*%
%TO.C,J4*%
X8890000Y104870000D03*
X11430000Y104870000D03*
X13970000Y104870000D03*
X16510000Y104870000D03*
%TD*%
%TO.C,J4*%
X8890000Y78970000D03*
X11430000Y78970000D03*
X13970000Y78970000D03*
X16510000Y78970000D03*
%TD*%
%TO.C,J4*%
X8890000Y53070000D03*
X11430000Y53070000D03*
X13970000Y53070000D03*
X16510000Y53070000D03*
%TD*%
%TO.C,J4*%
X8890000Y27170000D03*
X11430000Y27170000D03*
X13970000Y27170000D03*
X16510000Y27170000D03*
%TD*%
D18*
%TO.C,ST3*%
X126460000Y157940000D03*
%TD*%
%TO.C,ST3*%
X126460000Y132040000D03*
%TD*%
%TO.C,ST3*%
X126460000Y106140000D03*
%TD*%
%TO.C,ST3*%
X126460000Y80240000D03*
%TD*%
%TO.C,ST3*%
X126460000Y54340000D03*
%TD*%
%TO.C,ST3*%
X126460000Y28440000D03*
%TD*%
%TO.C,ST3*%
X126460000Y2540000D03*
%TD*%
%TO.C,ST3*%
X100560000Y157940000D03*
%TD*%
%TO.C,ST3*%
X100560000Y132040000D03*
%TD*%
%TO.C,ST3*%
X100560000Y106140000D03*
%TD*%
%TO.C,ST3*%
X100560000Y80240000D03*
%TD*%
%TO.C,ST3*%
X100560000Y54340000D03*
%TD*%
%TO.C,ST3*%
X100560000Y28440000D03*
%TD*%
%TO.C,ST3*%
X100560000Y2540000D03*
%TD*%
%TO.C,ST3*%
X74660000Y157940000D03*
%TD*%
%TO.C,ST3*%
X74660000Y132040000D03*
%TD*%
%TO.C,ST3*%
X74660000Y106140000D03*
%TD*%
%TO.C,ST3*%
X74660000Y80240000D03*
%TD*%
%TO.C,ST3*%
X74660000Y54340000D03*
%TD*%
%TO.C,ST3*%
X74660000Y28440000D03*
%TD*%
%TO.C,ST3*%
X74660000Y2540000D03*
%TD*%
%TO.C,ST3*%
X48760000Y157940000D03*
%TD*%
%TO.C,ST3*%
X48760000Y132040000D03*
%TD*%
%TO.C,ST3*%
X48760000Y106140000D03*
%TD*%
%TO.C,ST3*%
X48760000Y80240000D03*
%TD*%
%TO.C,ST3*%
X48760000Y54340000D03*
%TD*%
%TO.C,ST3*%
X48760000Y28440000D03*
%TD*%
%TO.C,ST3*%
X48760000Y2540000D03*
%TD*%
%TO.C,ST3*%
X22860000Y157940000D03*
%TD*%
%TO.C,ST3*%
X22860000Y132040000D03*
%TD*%
%TO.C,ST3*%
X22860000Y106140000D03*
%TD*%
%TO.C,ST3*%
X22860000Y80240000D03*
%TD*%
%TO.C,ST3*%
X22860000Y54340000D03*
%TD*%
%TO.C,ST3*%
X22860000Y28440000D03*
%TD*%
%TO.C,ST3*%
X22860000Y2540000D03*
%TD*%
D19*
%TO.C,J4*%
X8890000Y1270000D03*
X11430000Y1270000D03*
X13970000Y1270000D03*
X16510000Y1270000D03*
%TD*%
D18*
%TO.C,ST2*%
X22860000Y22860000D03*
%TD*%
%TO.C,ST1*%
X2540000Y22860000D03*
%TD*%
%TO.C,ST4*%
X2540000Y2540000D03*
%TD*%
D16*
%TO.C,JP2*%
X20866100Y18097500D03*
X21907500Y18097500D03*
D17*
X22948900Y18097500D03*
%TD*%
D13*
%TO.C,JP4*%
X12700000Y8801100D03*
X12700000Y9613900D03*
%TD*%
D15*
%TO.C,JP1*%
X2857500Y7505700D03*
X2857500Y6464300D03*
%TD*%
D14*
%TO.C,FID2*%
X635000Y24765000D03*
%TD*%
%TO.C,FID1*%
X24765000Y635000D03*
%TD*%
D13*
%TO.C,JP5*%
X12700000Y6578600D03*
X12700000Y7391400D03*
%TD*%
D12*
%TO.C,JP3*%
X12700000Y11925300D03*
X12700000Y11112500D03*
%TD*%
M02*
