M48
; DRILL file {KiCad 9.0.2} date 2025-07-22T09:56:55-0600
; FORMAT={-:-/ absolute / metric / decimal}
; #@! TF.CreationDate,2025-07-22T09:56:55-06:00
; #@! TF.GenerationSoftware,Kicad,Pcbnew,9.0.2
; #@! TF.FileFunction,MixedPlating,1,2
FMAT,2
METRIC
; #@! TA.AperFunction,Plated,PTH,ViaDrill
T1C0.300
; #@! TA.AperFunction,Plated,PTH,ComponentDrill
T2C1.016
; #@! TA.AperFunction,NonPlated,NPTH,ComponentDrill
T3C3.100
%
G90
G05
T1
X0.952Y161.75
X0.952Y135.85
X0.952Y109.95
X0.952Y84.05
X0.952Y58.15
X0.952Y32.25
X0.952Y6.35
X1.27Y174.45
X1.27Y148.55
X1.27Y122.65
X1.27Y96.75
X1.27Y70.85
X1.27Y44.95
X1.27Y19.05
X3.683Y160.734
X3.683Y134.834
X3.683Y108.934
X3.683Y83.034
X3.683Y57.134
X3.683Y31.234
X3.683Y5.334
X4.851Y162.995
X4.851Y137.095
X4.851Y111.195
X4.851Y85.295
X4.851Y59.395
X4.851Y33.495
X4.851Y7.595
X5.08Y165.814
X5.08Y164.036
X5.08Y139.914
X5.08Y138.136
X5.08Y114.014
X5.08Y112.236
X5.08Y88.114
X5.08Y86.336
X5.08Y62.214
X5.08Y60.436
X5.08Y36.314
X5.08Y34.536
X5.08Y10.414
X5.08Y8.636
X5.715Y164.925
X5.715Y139.025
X5.715Y113.125
X5.715Y87.225
X5.715Y61.325
X5.715Y35.425
X5.715Y9.525
X6.35Y179.53
X6.35Y169.688
X6.35Y153.63
X6.35Y143.787
X6.35Y127.73
X6.35Y117.887
X6.35Y101.83
X6.35Y91.987
X6.35Y75.93
X6.35Y66.087
X6.35Y50.03
X6.35Y40.188
X6.35Y24.13
X6.35Y14.287
X9.684Y174.926
X9.684Y149.026
X9.684Y123.126
X9.684Y97.226
X9.684Y71.326
X9.684Y45.426
X9.684Y19.526
X10.668Y164.417
X10.668Y162.893
X10.668Y138.517
X10.668Y136.993
X10.668Y112.617
X10.668Y111.093
X10.668Y86.717
X10.668Y85.193
X10.668Y60.817
X10.668Y59.293
X10.668Y34.917
X10.668Y33.393
X10.668Y9.017
X10.668Y7.493
X10.694Y169.878
X10.694Y143.978
X10.694Y118.078
X10.694Y92.178
X10.694Y66.278
X10.694Y40.378
X10.694Y14.478
X10.795Y167.782
X10.795Y165.242
X10.795Y163.655
X10.795Y162.067
X10.795Y141.882
X10.795Y139.343
X10.795Y137.755
X10.795Y136.167
X10.795Y115.983
X10.795Y113.442
X10.795Y111.855
X10.795Y110.267
X10.795Y90.082
X10.795Y87.542
X10.795Y85.955
X10.795Y84.367
X10.795Y64.182
X10.795Y61.642
X10.795Y60.055
X10.795Y58.467
X10.795Y38.282
X10.795Y35.742
X10.795Y34.155
X10.795Y32.567
X10.795Y12.383
X10.795Y9.842
X10.795Y8.255
X10.795Y6.667
X10.922Y173.942
X10.922Y148.042
X10.922Y122.142
X10.922Y96.242
X10.922Y70.342
X10.922Y44.442
X10.922Y18.542
X11.112Y175.085
X11.112Y149.185
X11.112Y123.285
X11.112Y97.385
X11.112Y71.485
X11.112Y45.585
X11.112Y19.685
X11.176Y172.418
X11.176Y146.518
X11.176Y120.618
X11.176Y94.718
X11.176Y68.818
X11.176Y42.918
X11.176Y17.018
X12.7Y179.53
X12.7Y157.94
X12.7Y153.63
X12.7Y132.04
X12.7Y127.73
X12.7Y106.14
X12.7Y101.83
X12.7Y80.24
X12.7Y75.93
X12.7Y54.34
X12.7Y50.03
X12.7Y28.44
X12.7Y24.13
X12.7Y2.54
X13.652Y175.72
X13.652Y149.82
X13.652Y123.92
X13.652Y98.02
X13.652Y72.12
X13.652Y46.22
X13.652Y20.32
X14.224Y172.418
X14.224Y146.518
X14.224Y120.618
X14.224Y94.718
X14.224Y68.818
X14.224Y42.918
X14.224Y17.018
X14.922Y176.037
X14.922Y150.137
X14.922Y124.237
X14.922Y98.337
X14.922Y72.438
X14.922Y46.538
X14.922Y20.637
X14.923Y171.148
X14.923Y145.248
X14.923Y119.348
X14.923Y93.448
X14.923Y67.548
X14.923Y41.648
X14.923Y15.748
X15.457Y172.164
X15.457Y146.264
X15.457Y120.364
X15.457Y94.464
X15.457Y68.564
X15.457Y42.664
X15.457Y16.764
X15.748Y165.242
X15.748Y139.343
X15.748Y113.442
X15.748Y87.542
X15.748Y61.642
X15.748Y35.742
X15.748Y9.842
X15.813Y168.292
X15.813Y142.392
X15.813Y116.492
X15.813Y90.592
X15.813Y64.692
X15.813Y38.792
X15.813Y12.892
X19.05Y179.53
X19.05Y156.67
X19.05Y153.63
X19.05Y130.77
X19.05Y127.73
X19.05Y104.87
X19.05Y101.83
X19.05Y78.97
X19.05Y75.93
X19.05Y53.07
X19.05Y50.03
X19.05Y27.17
X19.05Y24.13
X19.05Y1.27
X19.209Y167.306
X19.209Y141.406
X19.209Y115.506
X19.209Y89.606
X19.209Y63.706
X19.209Y37.806
X19.209Y11.906
X20.32Y165.56
X20.32Y139.66
X20.32Y113.76
X20.32Y87.86
X20.32Y61.96
X20.32Y36.06
X20.32Y10.16
X20.955Y175.403
X20.955Y149.502
X20.955Y123.602
X20.955Y97.703
X20.955Y71.802
X20.955Y45.902
X20.955Y20.002
X21.907Y169.6
X21.907Y143.7
X21.907Y117.8
X21.907Y91.9
X21.907Y66.0
X21.907Y40.1
X21.907Y14.2
X22.098Y175.593
X22.098Y170.386
X22.098Y149.693
X22.098Y144.486
X22.098Y123.793
X22.098Y118.586
X22.098Y97.893
X22.098Y92.686
X22.098Y71.993
X22.098Y66.786
X22.098Y46.093
X22.098Y40.886
X22.098Y20.193
X22.098Y14.986
X22.543Y167.782
X22.543Y141.882
X22.543Y115.983
X22.543Y90.082
X22.543Y64.182
X22.543Y38.282
X22.543Y12.383
X23.177Y175.403
X23.177Y149.502
X23.177Y123.602
X23.177Y97.703
X23.177Y71.802
X23.177Y45.902
X23.177Y20.002
X23.495Y167.782
X23.495Y141.882
X23.495Y115.983
X23.495Y90.082
X23.495Y64.182
X23.495Y38.282
X23.495Y12.383
X24.13Y174.45
X24.13Y148.55
X24.13Y122.65
X24.13Y96.75
X24.13Y70.85
X24.13Y44.95
X24.13Y19.05
X26.852Y161.75
X26.852Y135.85
X26.852Y109.95
X26.852Y84.05
X26.852Y58.15
X26.852Y32.25
X26.852Y6.35
X27.17Y174.45
X27.17Y148.55
X27.17Y122.65
X27.17Y96.75
X27.17Y70.85
X27.17Y44.95
X27.17Y19.05
X29.583Y160.734
X29.583Y134.834
X29.583Y108.934
X29.583Y83.034
X29.583Y57.134
X29.583Y31.234
X29.583Y5.334
X30.751Y162.995
X30.751Y137.095
X30.751Y111.195
X30.751Y85.295
X30.751Y59.395
X30.751Y33.495
X30.751Y7.595
X30.98Y165.814
X30.98Y164.036
X30.98Y139.914
X30.98Y138.136
X30.98Y114.014
X30.98Y112.236
X30.98Y88.114
X30.98Y86.336
X30.98Y62.214
X30.98Y60.436
X30.98Y36.314
X30.98Y34.536
X30.98Y10.414
X30.98Y8.636
X31.615Y164.925
X31.615Y139.025
X31.615Y113.125
X31.615Y87.225
X31.615Y61.325
X31.615Y35.425
X31.615Y9.525
X32.25Y179.53
X32.25Y169.688
X32.25Y153.63
X32.25Y143.787
X32.25Y127.73
X32.25Y117.887
X32.25Y101.83
X32.25Y91.987
X32.25Y75.93
X32.25Y66.087
X32.25Y50.03
X32.25Y40.188
X32.25Y24.13
X32.25Y14.287
X35.584Y174.926
X35.584Y149.026
X35.584Y123.126
X35.584Y97.226
X35.584Y71.326
X35.584Y45.426
X35.584Y19.526
X36.568Y164.417
X36.568Y162.893
X36.568Y138.517
X36.568Y136.993
X36.568Y112.617
X36.568Y111.093
X36.568Y86.717
X36.568Y85.193
X36.568Y60.817
X36.568Y59.293
X36.568Y34.917
X36.568Y33.393
X36.568Y9.017
X36.568Y7.493
X36.594Y169.878
X36.594Y143.978
X36.594Y118.078
X36.594Y92.178
X36.594Y66.278
X36.594Y40.378
X36.594Y14.478
X36.695Y167.782
X36.695Y165.242
X36.695Y163.655
X36.695Y162.067
X36.695Y141.882
X36.695Y139.343
X36.695Y137.755
X36.695Y136.167
X36.695Y115.983
X36.695Y113.442
X36.695Y111.855
X36.695Y110.267
X36.695Y90.082
X36.695Y87.542
X36.695Y85.955
X36.695Y84.367
X36.695Y64.182
X36.695Y61.642
X36.695Y60.055
X36.695Y58.467
X36.695Y38.282
X36.695Y35.742
X36.695Y34.155
X36.695Y32.567
X36.695Y12.383
X36.695Y9.842
X36.695Y8.255
X36.695Y6.667
X36.822Y173.942
X36.822Y148.042
X36.822Y122.142
X36.822Y96.242
X36.822Y70.342
X36.822Y44.442
X36.822Y18.542
X37.012Y175.085
X37.012Y149.185
X37.012Y123.285
X37.012Y97.385
X37.012Y71.485
X37.012Y45.585
X37.012Y19.685
X37.076Y172.418
X37.076Y146.518
X37.076Y120.618
X37.076Y94.718
X37.076Y68.818
X37.076Y42.918
X37.076Y17.018
X38.6Y179.53
X38.6Y157.94
X38.6Y153.63
X38.6Y132.04
X38.6Y127.73
X38.6Y106.14
X38.6Y101.83
X38.6Y80.24
X38.6Y75.93
X38.6Y54.34
X38.6Y50.03
X38.6Y28.44
X38.6Y24.13
X38.6Y2.54
X39.552Y175.72
X39.552Y149.82
X39.552Y123.92
X39.552Y98.02
X39.552Y72.12
X39.552Y46.22
X39.552Y20.32
X40.124Y172.418
X40.124Y146.518
X40.124Y120.618
X40.124Y94.718
X40.124Y68.818
X40.124Y42.918
X40.124Y17.018
X40.822Y176.037
X40.822Y150.137
X40.822Y124.237
X40.822Y98.337
X40.822Y72.438
X40.822Y46.538
X40.822Y20.637
X40.823Y171.148
X40.823Y145.248
X40.823Y119.348
X40.823Y93.448
X40.823Y67.548
X40.823Y41.648
X40.823Y15.748
X41.357Y172.164
X41.357Y146.264
X41.357Y120.364
X41.357Y94.464
X41.357Y68.564
X41.357Y42.664
X41.357Y16.764
X41.648Y165.242
X41.648Y139.343
X41.648Y113.442
X41.648Y87.542
X41.648Y61.642
X41.648Y35.742
X41.648Y9.842
X41.713Y168.292
X41.713Y142.392
X41.713Y116.492
X41.713Y90.592
X41.713Y64.692
X41.713Y38.792
X41.713Y12.892
X44.95Y179.53
X44.95Y156.67
X44.95Y153.63
X44.95Y130.77
X44.95Y127.73
X44.95Y104.87
X44.95Y101.83
X44.95Y78.97
X44.95Y75.93
X44.95Y53.07
X44.95Y50.03
X44.95Y27.17
X44.95Y24.13
X44.95Y1.27
X45.109Y167.306
X45.109Y141.406
X45.109Y115.506
X45.109Y89.606
X45.109Y63.706
X45.109Y37.806
X45.109Y11.906
X46.22Y165.56
X46.22Y139.66
X46.22Y113.76
X46.22Y87.86
X46.22Y61.96
X46.22Y36.06
X46.22Y10.16
X46.855Y175.403
X46.855Y149.502
X46.855Y123.602
X46.855Y97.703
X46.855Y71.802
X46.855Y45.902
X46.855Y20.002
X47.807Y169.6
X47.807Y143.7
X47.807Y117.8
X47.807Y91.9
X47.807Y66.0
X47.807Y40.1
X47.807Y14.2
X47.998Y175.593
X47.998Y170.386
X47.998Y149.693
X47.998Y144.486
X47.998Y123.793
X47.998Y118.586
X47.998Y97.893
X47.998Y92.686
X47.998Y71.993
X47.998Y66.786
X47.998Y46.093
X47.998Y40.886
X47.998Y20.193
X47.998Y14.986
X48.442Y167.782
X48.442Y141.882
X48.442Y115.983
X48.442Y90.082
X48.442Y64.182
X48.442Y38.282
X48.442Y12.383
X49.078Y175.403
X49.078Y149.502
X49.078Y123.602
X49.078Y97.703
X49.078Y71.802
X49.078Y45.902
X49.078Y20.002
X49.395Y167.782
X49.395Y141.882
X49.395Y115.983
X49.395Y90.082
X49.395Y64.182
X49.395Y38.282
X49.395Y12.383
X50.03Y174.45
X50.03Y148.55
X50.03Y122.65
X50.03Y96.75
X50.03Y70.85
X50.03Y44.95
X50.03Y19.05
X52.752Y161.75
X52.752Y135.85
X52.752Y109.95
X52.752Y84.05
X52.752Y58.15
X52.752Y32.25
X52.752Y6.35
X53.07Y174.45
X53.07Y148.55
X53.07Y122.65
X53.07Y96.75
X53.07Y70.85
X53.07Y44.95
X53.07Y19.05
X55.483Y160.734
X55.483Y134.834
X55.483Y108.934
X55.483Y83.034
X55.483Y57.134
X55.483Y31.234
X55.483Y5.334
X56.651Y162.995
X56.651Y137.095
X56.651Y111.195
X56.651Y85.295
X56.651Y59.395
X56.651Y33.495
X56.651Y7.595
X56.88Y165.814
X56.88Y164.036
X56.88Y139.914
X56.88Y138.136
X56.88Y114.014
X56.88Y112.236
X56.88Y88.114
X56.88Y86.336
X56.88Y62.214
X56.88Y60.436
X56.88Y36.314
X56.88Y34.536
X56.88Y10.414
X56.88Y8.636
X57.515Y164.925
X57.515Y139.025
X57.515Y113.125
X57.515Y87.225
X57.515Y61.325
X57.515Y35.425
X57.515Y9.525
X58.15Y179.53
X58.15Y169.688
X58.15Y153.63
X58.15Y143.787
X58.15Y127.73
X58.15Y117.887
X58.15Y101.83
X58.15Y91.987
X58.15Y75.93
X58.15Y66.087
X58.15Y50.03
X58.15Y40.188
X58.15Y24.13
X58.15Y14.287
X61.484Y174.926
X61.484Y149.026
X61.484Y123.126
X61.484Y97.226
X61.484Y71.326
X61.484Y45.426
X61.484Y19.526
X62.468Y164.417
X62.468Y162.893
X62.468Y138.517
X62.468Y136.993
X62.468Y112.617
X62.468Y111.093
X62.468Y86.717
X62.468Y85.193
X62.468Y60.817
X62.468Y59.293
X62.468Y34.917
X62.468Y33.393
X62.468Y9.017
X62.468Y7.493
X62.494Y169.878
X62.494Y143.978
X62.494Y118.078
X62.494Y92.178
X62.494Y66.278
X62.494Y40.378
X62.494Y14.478
X62.595Y167.782
X62.595Y165.242
X62.595Y163.655
X62.595Y162.067
X62.595Y141.882
X62.595Y139.343
X62.595Y137.755
X62.595Y136.167
X62.595Y115.983
X62.595Y113.442
X62.595Y111.855
X62.595Y110.267
X62.595Y90.082
X62.595Y87.542
X62.595Y85.955
X62.595Y84.367
X62.595Y64.182
X62.595Y61.642
X62.595Y60.055
X62.595Y58.467
X62.595Y38.282
X62.595Y35.742
X62.595Y34.155
X62.595Y32.567
X62.595Y12.383
X62.595Y9.842
X62.595Y8.255
X62.595Y6.667
X62.722Y173.942
X62.722Y148.042
X62.722Y122.142
X62.722Y96.242
X62.722Y70.342
X62.722Y44.442
X62.722Y18.542
X62.912Y175.085
X62.912Y149.185
X62.912Y123.285
X62.912Y97.385
X62.912Y71.485
X62.912Y45.585
X62.912Y19.685
X62.976Y172.418
X62.976Y146.518
X62.976Y120.618
X62.976Y94.718
X62.976Y68.818
X62.976Y42.918
X62.976Y17.018
X64.5Y179.53
X64.5Y157.94
X64.5Y153.63
X64.5Y132.04
X64.5Y127.73
X64.5Y106.14
X64.5Y101.83
X64.5Y80.24
X64.5Y75.93
X64.5Y54.34
X64.5Y50.03
X64.5Y28.44
X64.5Y24.13
X64.5Y2.54
X65.453Y175.72
X65.453Y149.82
X65.453Y123.92
X65.453Y98.02
X65.453Y72.12
X65.453Y46.22
X65.453Y20.32
X66.024Y172.418
X66.024Y146.518
X66.024Y120.618
X66.024Y94.718
X66.024Y68.818
X66.024Y42.918
X66.024Y17.018
X66.722Y176.037
X66.722Y150.137
X66.722Y124.237
X66.722Y98.337
X66.722Y72.438
X66.722Y46.538
X66.722Y20.637
X66.723Y171.148
X66.723Y145.248
X66.723Y119.348
X66.723Y93.448
X66.723Y67.548
X66.723Y41.648
X66.723Y15.748
X67.257Y172.164
X67.257Y146.264
X67.257Y120.364
X67.257Y94.464
X67.257Y68.564
X67.257Y42.664
X67.257Y16.764
X67.548Y165.242
X67.548Y139.343
X67.548Y113.442
X67.548Y87.542
X67.548Y61.642
X67.548Y35.742
X67.548Y9.842
X67.613Y168.292
X67.613Y142.392
X67.613Y116.492
X67.613Y90.592
X67.613Y64.692
X67.613Y38.792
X67.613Y12.892
X70.85Y179.53
X70.85Y156.67
X70.85Y153.63
X70.85Y130.77
X70.85Y127.73
X70.85Y104.87
X70.85Y101.83
X70.85Y78.97
X70.85Y75.93
X70.85Y53.07
X70.85Y50.03
X70.85Y27.17
X70.85Y24.13
X70.85Y1.27
X71.009Y167.306
X71.009Y141.406
X71.009Y115.506
X71.009Y89.606
X71.009Y63.706
X71.009Y37.806
X71.009Y11.906
X72.12Y165.56
X72.12Y139.66
X72.12Y113.76
X72.12Y87.86
X72.12Y61.96
X72.12Y36.06
X72.12Y10.16
X72.755Y175.403
X72.755Y149.502
X72.755Y123.602
X72.755Y97.703
X72.755Y71.802
X72.755Y45.902
X72.755Y20.002
X73.707Y169.6
X73.707Y143.7
X73.707Y117.8
X73.707Y91.9
X73.707Y66.0
X73.707Y40.1
X73.707Y14.2
X73.898Y175.593
X73.898Y170.386
X73.898Y149.693
X73.898Y144.486
X73.898Y123.793
X73.898Y118.586
X73.898Y97.893
X73.898Y92.686
X73.898Y71.993
X73.898Y66.786
X73.898Y46.093
X73.898Y40.886
X73.898Y20.193
X73.898Y14.986
X74.343Y167.782
X74.343Y141.882
X74.343Y115.983
X74.343Y90.082
X74.343Y64.182
X74.343Y38.282
X74.343Y12.383
X74.977Y175.403
X74.977Y149.502
X74.977Y123.602
X74.977Y97.703
X74.977Y71.802
X74.977Y45.902
X74.977Y20.002
X75.295Y167.782
X75.295Y141.882
X75.295Y115.983
X75.295Y90.082
X75.295Y64.182
X75.295Y38.282
X75.295Y12.383
X75.93Y174.45
X75.93Y148.55
X75.93Y122.65
X75.93Y96.75
X75.93Y70.85
X75.93Y44.95
X75.93Y19.05
X78.653Y161.75
X78.653Y135.85
X78.653Y109.95
X78.653Y84.05
X78.653Y58.15
X78.653Y32.25
X78.653Y6.35
X78.97Y174.45
X78.97Y148.55
X78.97Y122.65
X78.97Y96.75
X78.97Y70.85
X78.97Y44.95
X78.97Y19.05
X81.383Y160.734
X81.383Y134.834
X81.383Y108.934
X81.383Y83.034
X81.383Y57.134
X81.383Y31.234
X81.383Y5.334
X82.551Y162.995
X82.551Y137.095
X82.551Y111.195
X82.551Y85.295
X82.551Y59.395
X82.551Y33.495
X82.551Y7.595
X82.78Y165.814
X82.78Y164.036
X82.78Y139.914
X82.78Y138.136
X82.78Y114.014
X82.78Y112.236
X82.78Y88.114
X82.78Y86.336
X82.78Y62.214
X82.78Y60.436
X82.78Y36.314
X82.78Y34.536
X82.78Y10.414
X82.78Y8.636
X83.415Y164.925
X83.415Y139.025
X83.415Y113.125
X83.415Y87.225
X83.415Y61.325
X83.415Y35.425
X83.415Y9.525
X84.05Y179.53
X84.05Y169.688
X84.05Y153.63
X84.05Y143.787
X84.05Y127.73
X84.05Y117.887
X84.05Y101.83
X84.05Y91.987
X84.05Y75.93
X84.05Y66.087
X84.05Y50.03
X84.05Y40.188
X84.05Y24.13
X84.05Y14.287
X87.384Y174.926
X87.384Y149.026
X87.384Y123.126
X87.384Y97.226
X87.384Y71.326
X87.384Y45.426
X87.384Y19.526
X88.368Y164.417
X88.368Y162.893
X88.368Y138.517
X88.368Y136.993
X88.368Y112.617
X88.368Y111.093
X88.368Y86.717
X88.368Y85.193
X88.368Y60.817
X88.368Y59.293
X88.368Y34.917
X88.368Y33.393
X88.368Y9.017
X88.368Y7.493
X88.394Y169.878
X88.394Y143.978
X88.394Y118.078
X88.394Y92.178
X88.394Y66.278
X88.394Y40.378
X88.394Y14.478
X88.495Y167.782
X88.495Y165.242
X88.495Y163.655
X88.495Y162.067
X88.495Y141.882
X88.495Y139.343
X88.495Y137.755
X88.495Y136.167
X88.495Y115.983
X88.495Y113.442
X88.495Y111.855
X88.495Y110.267
X88.495Y90.082
X88.495Y87.542
X88.495Y85.955
X88.495Y84.367
X88.495Y64.182
X88.495Y61.642
X88.495Y60.055
X88.495Y58.467
X88.495Y38.282
X88.495Y35.742
X88.495Y34.155
X88.495Y32.567
X88.495Y12.383
X88.495Y9.842
X88.495Y8.255
X88.495Y6.667
X88.622Y173.942
X88.622Y148.042
X88.622Y122.142
X88.622Y96.242
X88.622Y70.342
X88.622Y44.442
X88.622Y18.542
X88.812Y175.085
X88.812Y149.185
X88.812Y123.285
X88.812Y97.385
X88.812Y71.485
X88.812Y45.585
X88.812Y19.685
X88.876Y172.418
X88.876Y146.518
X88.876Y120.618
X88.876Y94.718
X88.876Y68.818
X88.876Y42.918
X88.876Y17.018
X90.4Y179.53
X90.4Y157.94
X90.4Y153.63
X90.4Y132.04
X90.4Y127.73
X90.4Y106.14
X90.4Y101.83
X90.4Y80.24
X90.4Y75.93
X90.4Y54.34
X90.4Y50.03
X90.4Y28.44
X90.4Y24.13
X90.4Y2.54
X91.352Y175.72
X91.352Y149.82
X91.352Y123.92
X91.352Y98.02
X91.352Y72.12
X91.352Y46.22
X91.352Y20.32
X91.924Y172.418
X91.924Y146.518
X91.924Y120.618
X91.924Y94.718
X91.924Y68.818
X91.924Y42.918
X91.924Y17.018
X92.623Y176.037
X92.623Y150.137
X92.623Y124.237
X92.623Y98.337
X92.623Y72.438
X92.623Y46.538
X92.623Y20.637
X92.623Y171.148
X92.623Y145.248
X92.623Y119.348
X92.623Y93.448
X92.623Y67.548
X92.623Y41.648
X92.623Y15.748
X93.157Y172.164
X93.157Y146.264
X93.157Y120.364
X93.157Y94.464
X93.157Y68.564
X93.157Y42.664
X93.157Y16.764
X93.448Y165.242
X93.448Y139.343
X93.448Y113.442
X93.448Y87.542
X93.448Y61.642
X93.448Y35.742
X93.448Y9.842
X93.513Y168.292
X93.513Y142.392
X93.513Y116.492
X93.513Y90.592
X93.513Y64.692
X93.513Y38.792
X93.513Y12.892
X96.75Y179.53
X96.75Y156.67
X96.75Y153.63
X96.75Y130.77
X96.75Y127.73
X96.75Y104.87
X96.75Y101.83
X96.75Y78.97
X96.75Y75.93
X96.75Y53.07
X96.75Y50.03
X96.75Y27.17
X96.75Y24.13
X96.75Y1.27
X96.909Y167.306
X96.909Y141.406
X96.909Y115.506
X96.909Y89.606
X96.909Y63.706
X96.909Y37.806
X96.909Y11.906
X98.02Y165.56
X98.02Y139.66
X98.02Y113.76
X98.02Y87.86
X98.02Y61.96
X98.02Y36.06
X98.02Y10.16
X98.655Y175.403
X98.655Y149.502
X98.655Y123.602
X98.655Y97.703
X98.655Y71.802
X98.655Y45.902
X98.655Y20.002
X99.608Y169.6
X99.608Y143.7
X99.608Y117.8
X99.608Y91.9
X99.608Y66.0
X99.608Y40.1
X99.608Y14.2
X99.798Y175.593
X99.798Y170.386
X99.798Y149.693
X99.798Y144.486
X99.798Y123.793
X99.798Y118.586
X99.798Y97.893
X99.798Y92.686
X99.798Y71.993
X99.798Y66.786
X99.798Y46.093
X99.798Y40.886
X99.798Y20.193
X99.798Y14.986
X100.242Y167.782
X100.242Y141.882
X100.242Y115.983
X100.242Y90.082
X100.242Y64.182
X100.242Y38.282
X100.242Y12.383
X100.877Y175.403
X100.877Y149.502
X100.877Y123.602
X100.877Y97.703
X100.877Y71.802
X100.877Y45.902
X100.877Y20.002
X101.195Y167.782
X101.195Y141.882
X101.195Y115.983
X101.195Y90.082
X101.195Y64.182
X101.195Y38.282
X101.195Y12.383
X101.83Y174.45
X101.83Y148.55
X101.83Y122.65
X101.83Y96.75
X101.83Y70.85
X101.83Y44.95
X101.83Y19.05
X104.552Y161.75
X104.552Y135.85
X104.552Y109.95
X104.552Y84.05
X104.552Y58.15
X104.552Y32.25
X104.552Y6.35
X104.87Y174.45
X104.87Y148.55
X104.87Y122.65
X104.87Y96.75
X104.87Y70.85
X104.87Y44.95
X104.87Y19.05
X107.283Y160.734
X107.283Y134.834
X107.283Y108.934
X107.283Y83.034
X107.283Y57.134
X107.283Y31.234
X107.283Y5.334
X108.451Y162.995
X108.451Y137.095
X108.451Y111.195
X108.451Y85.295
X108.451Y59.395
X108.451Y33.495
X108.451Y7.595
X108.68Y165.814
X108.68Y164.036
X108.68Y139.914
X108.68Y138.136
X108.68Y114.014
X108.68Y112.236
X108.68Y88.114
X108.68Y86.336
X108.68Y62.214
X108.68Y60.436
X108.68Y36.314
X108.68Y34.536
X108.68Y10.414
X108.68Y8.636
X109.315Y164.925
X109.315Y139.025
X109.315Y113.125
X109.315Y87.225
X109.315Y61.325
X109.315Y35.425
X109.315Y9.525
X109.95Y179.53
X109.95Y169.688
X109.95Y153.63
X109.95Y143.787
X109.95Y127.73
X109.95Y117.887
X109.95Y101.83
X109.95Y91.987
X109.95Y75.93
X109.95Y66.087
X109.95Y50.03
X109.95Y40.188
X109.95Y24.13
X109.95Y14.287
X113.284Y174.926
X113.284Y149.026
X113.284Y123.126
X113.284Y97.226
X113.284Y71.326
X113.284Y45.426
X113.284Y19.526
X114.268Y164.417
X114.268Y162.893
X114.268Y138.517
X114.268Y136.993
X114.268Y112.617
X114.268Y111.093
X114.268Y86.717
X114.268Y85.193
X114.268Y60.817
X114.268Y59.293
X114.268Y34.917
X114.268Y33.393
X114.268Y9.017
X114.268Y7.493
X114.294Y169.878
X114.294Y143.978
X114.294Y118.078
X114.294Y92.178
X114.294Y66.278
X114.294Y40.378
X114.294Y14.478
X114.395Y167.782
X114.395Y165.242
X114.395Y163.655
X114.395Y162.067
X114.395Y141.882
X114.395Y139.343
X114.395Y137.755
X114.395Y136.167
X114.395Y115.983
X114.395Y113.442
X114.395Y111.855
X114.395Y110.267
X114.395Y90.082
X114.395Y87.542
X114.395Y85.955
X114.395Y84.367
X114.395Y64.182
X114.395Y61.642
X114.395Y60.055
X114.395Y58.467
X114.395Y38.282
X114.395Y35.742
X114.395Y34.155
X114.395Y32.567
X114.395Y12.383
X114.395Y9.842
X114.395Y8.255
X114.395Y6.667
X114.522Y173.942
X114.522Y148.042
X114.522Y122.142
X114.522Y96.242
X114.522Y70.342
X114.522Y44.442
X114.522Y18.542
X114.712Y175.085
X114.712Y149.185
X114.712Y123.285
X114.712Y97.385
X114.712Y71.485
X114.712Y45.585
X114.712Y19.685
X114.776Y172.418
X114.776Y146.518
X114.776Y120.618
X114.776Y94.718
X114.776Y68.818
X114.776Y42.918
X114.776Y17.018
X116.3Y179.53
X116.3Y157.94
X116.3Y153.63
X116.3Y132.04
X116.3Y127.73
X116.3Y106.14
X116.3Y101.83
X116.3Y80.24
X116.3Y75.93
X116.3Y54.34
X116.3Y50.03
X116.3Y28.44
X116.3Y24.13
X116.3Y2.54
X117.252Y175.72
X117.252Y149.82
X117.252Y123.92
X117.252Y98.02
X117.252Y72.12
X117.252Y46.22
X117.252Y20.32
X117.824Y172.418
X117.824Y146.518
X117.824Y120.618
X117.824Y94.718
X117.824Y68.818
X117.824Y42.918
X117.824Y17.018
X118.522Y176.037
X118.522Y150.137
X118.522Y124.237
X118.522Y98.337
X118.522Y72.438
X118.522Y46.538
X118.522Y20.637
X118.523Y171.148
X118.523Y145.248
X118.523Y119.348
X118.523Y93.448
X118.523Y67.548
X118.523Y41.648
X118.523Y15.748
X119.057Y172.164
X119.057Y146.264
X119.057Y120.364
X119.057Y94.464
X119.057Y68.564
X119.057Y42.664
X119.057Y16.764
X119.348Y165.242
X119.348Y139.343
X119.348Y113.442
X119.348Y87.542
X119.348Y61.642
X119.348Y35.742
X119.348Y9.842
X119.413Y168.292
X119.413Y142.392
X119.413Y116.492
X119.413Y90.592
X119.413Y64.692
X119.413Y38.792
X119.413Y12.892
X122.65Y179.53
X122.65Y156.67
X122.65Y153.63
X122.65Y130.77
X122.65Y127.73
X122.65Y104.87
X122.65Y101.83
X122.65Y78.97
X122.65Y75.93
X122.65Y53.07
X122.65Y50.03
X122.65Y27.17
X122.65Y24.13
X122.65Y1.27
X122.809Y167.306
X122.809Y141.406
X122.809Y115.506
X122.809Y89.606
X122.809Y63.706
X122.809Y37.806
X122.809Y11.906
X123.92Y165.56
X123.92Y139.66
X123.92Y113.76
X123.92Y87.86
X123.92Y61.96
X123.92Y36.06
X123.92Y10.16
X124.555Y175.403
X124.555Y149.502
X124.555Y123.602
X124.555Y97.703
X124.555Y71.802
X124.555Y45.902
X124.555Y20.002
X125.507Y169.6
X125.507Y143.7
X125.507Y117.8
X125.507Y91.9
X125.507Y66.0
X125.507Y40.1
X125.507Y14.2
X125.698Y175.593
X125.698Y170.386
X125.698Y149.693
X125.698Y144.486
X125.698Y123.793
X125.698Y118.586
X125.698Y97.893
X125.698Y92.686
X125.698Y71.993
X125.698Y66.786
X125.698Y46.093
X125.698Y40.886
X125.698Y20.193
X125.698Y14.986
X126.142Y167.782
X126.142Y141.882
X126.142Y115.983
X126.142Y90.082
X126.142Y64.182
X126.142Y38.282
X126.142Y12.383
X126.777Y175.403
X126.777Y149.502
X126.777Y123.602
X126.777Y97.703
X126.777Y71.802
X126.777Y45.902
X126.777Y20.002
X127.095Y167.782
X127.095Y141.882
X127.095Y115.983
X127.095Y90.082
X127.095Y64.182
X127.095Y38.282
X127.095Y12.383
X127.73Y174.45
X127.73Y148.55
X127.73Y122.65
X127.73Y96.75
X127.73Y70.85
X127.73Y44.95
X127.73Y19.05
T2
X8.89Y156.67
X8.89Y130.77
X8.89Y104.87
X8.89Y78.97
X8.89Y53.07
X8.89Y27.17
X8.89Y1.27
X11.43Y156.67
X11.43Y130.77
X11.43Y104.87
X11.43Y78.97
X11.43Y53.07
X11.43Y27.17
X11.43Y1.27
X13.97Y156.67
X13.97Y130.77
X13.97Y104.87
X13.97Y78.97
X13.97Y53.07
X13.97Y27.17
X13.97Y1.27
X16.51Y156.67
X16.51Y130.77
X16.51Y104.87
X16.51Y78.97
X16.51Y53.07
X16.51Y27.17
X16.51Y1.27
X34.79Y156.67
X34.79Y130.77
X34.79Y104.87
X34.79Y78.97
X34.79Y53.07
X34.79Y27.17
X34.79Y1.27
X37.33Y156.67
X37.33Y130.77
X37.33Y104.87
X37.33Y78.97
X37.33Y53.07
X37.33Y27.17
X37.33Y1.27
X39.87Y156.67
X39.87Y130.77
X39.87Y104.87
X39.87Y78.97
X39.87Y53.07
X39.87Y27.17
X39.87Y1.27
X42.41Y156.67
X42.41Y130.77
X42.41Y104.87
X42.41Y78.97
X42.41Y53.07
X42.41Y27.17
X42.41Y1.27
X60.69Y156.67
X60.69Y130.77
X60.69Y104.87
X60.69Y78.97
X60.69Y53.07
X60.69Y27.17
X60.69Y1.27
X63.23Y156.67
X63.23Y130.77
X63.23Y104.87
X63.23Y78.97
X63.23Y53.07
X63.23Y27.17
X63.23Y1.27
X65.77Y156.67
X65.77Y130.77
X65.77Y104.87
X65.77Y78.97
X65.77Y53.07
X65.77Y27.17
X65.77Y1.27
X68.31Y156.67
X68.31Y130.77
X68.31Y104.87
X68.31Y78.97
X68.31Y53.07
X68.31Y27.17
X68.31Y1.27
X86.59Y156.67
X86.59Y130.77
X86.59Y104.87
X86.59Y78.97
X86.59Y53.07
X86.59Y27.17
X86.59Y1.27
X89.13Y156.67
X89.13Y130.77
X89.13Y104.87
X89.13Y78.97
X89.13Y53.07
X89.13Y27.17
X89.13Y1.27
X91.67Y156.67
X91.67Y130.77
X91.67Y104.87
X91.67Y78.97
X91.67Y53.07
X91.67Y27.17
X91.67Y1.27
X94.21Y156.67
X94.21Y130.77
X94.21Y104.87
X94.21Y78.97
X94.21Y53.07
X94.21Y27.17
X94.21Y1.27
X112.49Y156.67
X112.49Y130.77
X112.49Y104.87
X112.49Y78.97
X112.49Y53.07
X112.49Y27.17
X112.49Y1.27
X115.03Y156.67
X115.03Y130.77
X115.03Y104.87
X115.03Y78.97
X115.03Y53.07
X115.03Y27.17
X115.03Y1.27
X117.57Y156.67
X117.57Y130.77
X117.57Y104.87
X117.57Y78.97
X117.57Y53.07
X117.57Y27.17
X117.57Y1.27
X120.11Y156.67
X120.11Y130.77
X120.11Y104.87
X120.11Y78.97
X120.11Y53.07
X120.11Y27.17
X120.11Y1.27
T3
X2.54Y178.26
X2.54Y157.94
X2.54Y152.36
X2.54Y132.04
X2.54Y126.46
X2.54Y106.14
X2.54Y100.56
X2.54Y80.24
X2.54Y74.66
X2.54Y54.34
X2.54Y48.76
X2.54Y28.44
X2.54Y22.86
X2.54Y2.54
X22.86Y178.26
X22.86Y157.94
X22.86Y152.36
X22.86Y132.04
X22.86Y126.46
X22.86Y106.14
X22.86Y100.56
X22.86Y80.24
X22.86Y74.66
X22.86Y54.34
X22.86Y48.76
X22.86Y28.44
X22.86Y22.86
X22.86Y2.54
X28.44Y178.26
X28.44Y157.94
X28.44Y152.36
X28.44Y132.04
X28.44Y126.46
X28.44Y106.14
X28.44Y100.56
X28.44Y80.24
X28.44Y74.66
X28.44Y54.34
X28.44Y48.76
X28.44Y28.44
X28.44Y22.86
X28.44Y2.54
X48.76Y178.26
X48.76Y157.94
X48.76Y152.36
X48.76Y132.04
X48.76Y126.46
X48.76Y106.14
X48.76Y100.56
X48.76Y80.24
X48.76Y74.66
X48.76Y54.34
X48.76Y48.76
X48.76Y28.44
X48.76Y22.86
X48.76Y2.54
X54.34Y178.26
X54.34Y157.94
X54.34Y152.36
X54.34Y132.04
X54.34Y126.46
X54.34Y106.14
X54.34Y100.56
X54.34Y80.24
X54.34Y74.66
X54.34Y54.34
X54.34Y48.76
X54.34Y28.44
X54.34Y22.86
X54.34Y2.54
X74.66Y178.26
X74.66Y157.94
X74.66Y152.36
X74.66Y132.04
X74.66Y126.46
X74.66Y106.14
X74.66Y100.56
X74.66Y80.24
X74.66Y74.66
X74.66Y54.34
X74.66Y48.76
X74.66Y28.44
X74.66Y22.86
X74.66Y2.54
X80.24Y178.26
X80.24Y157.94
X80.24Y152.36
X80.24Y132.04
X80.24Y126.46
X80.24Y106.14
X80.24Y100.56
X80.24Y80.24
X80.24Y74.66
X80.24Y54.34
X80.24Y48.76
X80.24Y28.44
X80.24Y22.86
X80.24Y2.54
X100.56Y178.26
X100.56Y157.94
X100.56Y152.36
X100.56Y132.04
X100.56Y126.46
X100.56Y106.14
X100.56Y100.56
X100.56Y80.24
X100.56Y74.66
X100.56Y54.34
X100.56Y48.76
X100.56Y28.44
X100.56Y22.86
X100.56Y2.54
X106.14Y178.26
X106.14Y157.94
X106.14Y152.36
X106.14Y132.04
X106.14Y126.46
X106.14Y106.14
X106.14Y100.56
X106.14Y80.24
X106.14Y74.66
X106.14Y54.34
X106.14Y48.76
X106.14Y28.44
X106.14Y22.86
X106.14Y2.54
X126.46Y178.26
X126.46Y157.94
X126.46Y152.36
X126.46Y132.04
X126.46Y126.46
X126.46Y106.14
X126.46Y100.56
X126.46Y80.24
X126.46Y74.66
X126.46Y54.34
X126.46Y48.76
X126.46Y28.44
X126.46Y22.86
X126.46Y2.54
M30
